<svg xmlns="http://www.w3.org/2000/svg" width="256" height="232" viewBox="0 0 256 232">
  <title>Dragon - 3DPixelZodiac</title>
  <g transform="translate(-32,-5.54637425095153)"><g><rect x="64" y="56" width="16" height="8" fill="#0d2e1c"/><rect x="56" y="64" width="8" height="8" fill="#0d2e1c"/><rect x="64" y="64" width="16" height="8" fill="#2f9e5f"/><rect x="80" y="64" width="8" height="8" fill="#0d2e1c"/><rect x="56" y="72" width="8" height="8" fill="#0d2e1c"/><rect x="64" y="72" width="16" height="8" fill="#2f9e5f"/><rect x="80" y="72" width="8" height="8" fill="#0d2e1c"/><rect x="64" y="80" width="16" height="8" fill="#0d2e1c"/><animateTransform attributeName="transform" type="translate" calcMode="discrete" values="0 -3.3;0 -10.0;0 -3.3;0 3.3;0 10.0;0 3.3" keyTimes="0.0000;0.1667;0.3333;0.5000;0.6667;0.8333" dur="1.2000000000000002s" repeatCount="indefinite" /></g></g><g transform="translate(3.1999999999999886,-10.270759818678712)"><g><rect x="64" y="56" width="16" height="8" fill="#0d2e1c"/><rect x="56" y="64" width="8" height="8" fill="#0d2e1c"/><rect x="64" y="64" width="16" height="8" fill="#2f9e5f"/><rect x="80" y="64" width="8" height="8" fill="#0d2e1c"/><rect x="56" y="72" width="8" height="8" fill="#0d2e1c"/><rect x="64" y="72" width="16" height="8" fill="#2f9e5f"/><rect x="80" y="72" width="8" height="8" fill="#0d2e1c"/><rect x="64" y="80" width="16" height="8" fill="#0d2e1c"/><animateTransform attributeName="transform" type="translate" calcMode="discrete" values="0 3.3;0 -3.3;0 -10.0;0 -3.3;0 3.3;0 10.0" keyTimes="0.0000;0.1667;0.3333;0.5000;0.6667;0.8333" dur="1.2000000000000002s" repeatCount="indefinite" /></g></g><g transform="translate(38.39999999999999,4.971282672449632)"><g><rect x="56" y="56" width="32" height="8" fill="#0d2e1c"/><rect x="48" y="64" width="8" height="8" fill="#0d2e1c"/><rect x="56" y="64" width="32" height="8" fill="#2f9e5f"/><rect x="88" y="64" width="8" height="8" fill="#0d2e1c"/><rect x="48" y="72" width="8" height="8" fill="#0d2e1c"/><rect x="56" y="72" width="32" height="8" fill="#2f9e5f"/><rect x="88" y="72" width="8" height="8" fill="#0d2e1c"/><rect x="56" y="80" width="32" height="8" fill="#0d2e1c"/><animateTransform attributeName="transform" type="translate" calcMode="discrete" values="0 10.0;0 3.3;0 -3.3;0 -10.0;0 -3.3;0 3.3" keyTimes="0.0000;0.1667;0.3333;0.5000;0.6667;0.8333" dur="1.2000000000000002s" repeatCount="indefinite" /></g></g><g transform="translate(73.6,23.523130953336135)"><g><rect x="64" y="48" width="16" height="8" fill="#0d2e1c"/><rect x="56" y="56" width="8" height="8" fill="#0d2e1c"/><rect x="64" y="56" width="16" height="8" fill="#2f9e5f"/><rect x="80" y="56" width="8" height="8" fill="#0d2e1c"/><rect x="48" y="64" width="8" height="8" fill="#0d2e1c"/><rect x="56" y="64" width="32" height="8" fill="#2f9e5f"/><rect x="88" y="64" width="8" height="8" fill="#0d2e1c"/><rect x="48" y="72" width="8" height="8" fill="#0d2e1c"/><rect x="56" y="72" width="32" height="8" fill="#2f9e5f"/><rect x="88" y="72" width="8" height="8" fill="#0d2e1c"/><rect x="56" y="80" width="8" height="8" fill="#0d2e1c"/><rect x="64" y="80" width="16" height="8" fill="#2f9e5f"/><rect x="80" y="80" width="8" height="8" fill="#0d2e1c"/><rect x="64" y="88" width="16" height="8" fill="#0d2e1c"/><animateTransform attributeName="transform" type="translate" calcMode="discrete" values="0 3.3;0 10.0;0 3.3;0 -3.3;0 -10.0;0 -3.3" keyTimes="0.0000;0.1667;0.3333;0.5000;0.6667;0.8333" dur="1.2000000000000002s" repeatCount="indefinite" /></g></g><g transform="translate(108.80000000000001,25.111181313179557)"><g><rect x="56" y="48" width="32" height="8" fill="#0d2e1c"/><rect x="48" y="56" width="8" height="8" fill="#0d2e1c"/><rect x="56" y="56" width="32" height="8" fill="#2f9e5f"/><rect x="88" y="56" width="8" height="8" fill="#0d2e1c"/><rect x="40" y="64" width="8" height="8" fill="#0d2e1c"/><rect x="48" y="64" width="48" height="8" fill="#2f9e5f"/><rect x="96" y="64" width="8" height="8" fill="#0d2e1c"/><rect x="40" y="72" width="8" height="8" fill="#0d2e1c"/><rect x="48" y="72" width="48" height="8" fill="#2f9e5f"/><rect x="96" y="72" width="8" height="8" fill="#0d2e1c"/><rect x="48" y="80" width="8" height="8" fill="#0d2e1c"/><rect x="56" y="80" width="32" height="8" fill="#2f9e5f"/><rect x="88" y="80" width="8" height="8" fill="#0d2e1c"/><rect x="56" y="88" width="32" height="8" fill="#0d2e1c"/><animateTransform attributeName="transform" type="translate" calcMode="discrete" values="0 -3.3;0 3.3;0 10.0;0 3.3;0 -3.3;0 -10.0" keyTimes="0.0000;0.1667;0.3333;0.5000;0.6667;0.8333" dur="1.2000000000000002s" repeatCount="indefinite" /></g></g><g transform="translate(144,8)"><g><rect x="48" y="8" width="16" height="8" fill="#0d2e1c"/><rect x="104" y="8" width="16" height="8" fill="#0d2e1c"/><rect x="40" y="16" width="8" height="8" fill="#0d2e1c"/><rect x="48" y="16" width="16" height="8" fill="#e8c94b"/><rect x="64" y="16" width="8" height="8" fill="#0d2e1c"/><rect x="96" y="16" width="8" height="8" fill="#0d2e1c"/><rect x="104" y="16" width="16" height="8" fill="#e8c94b"/><rect x="120" y="16" width="8" height="8" fill="#0d2e1c"/><rect x="40" y="24" width="8" height="8" fill="#0d2e1c"/><rect x="48" y="24" width="24" height="8" fill="#e8c94b"/><rect x="72" y="24" width="8" height="8" fill="#0d2e1c"/><rect x="88" y="24" width="8" height="8" fill="#0d2e1c"/><rect x="96" y="24" width="24" height="8" fill="#e8c94b"/><rect x="120" y="24" width="8" height="8" fill="#0d2e1c"/><rect x="48" y="32" width="8" height="8" fill="#0d2e1c"/><rect x="56" y="32" width="16" height="8" fill="#e8c94b"/><rect x="72" y="32" width="8" height="8" fill="#0d2e1c"/><rect x="88" y="32" width="8" height="8" fill="#0d2e1c"/><rect x="96" y="32" width="16" height="8" fill="#e8c94b"/><rect x="112" y="32" width="8" height="8" fill="#0d2e1c"/><rect x="48" y="40" width="8" height="8" fill="#0d2e1c"/><rect x="56" y="40" width="24" height="8" fill="#e8c94b"/><rect x="80" y="40" width="16" height="8" fill="#0d2e1c"/><rect x="96" y="40" width="16" height="8" fill="#e8c94b"/><rect x="112" y="40" width="8" height="8" fill="#0d2e1c"/><rect x="48" y="48" width="16" height="8" fill="#0d2e1c"/><rect x="64" y="48" width="16" height="8" fill="#e8c94b"/><rect x="80" y="48" width="32" height="8" fill="#0d2e1c"/><rect x="40" y="56" width="8" height="8" fill="#0d2e1c"/><rect x="48" y="56" width="48" height="8" fill="#2f9e5f"/><rect x="96" y="56" width="16" height="8" fill="#0d2e1c"/><rect x="40" y="64" width="8" height="8" fill="#0d2e1c"/><rect x="48" y="64" width="40" height="8" fill="#2f9e5f"/><rect x="88" y="64" width="8" height="8" fill="#141116"/><rect x="96" y="64" width="16" height="8" fill="#2f9e5f"/><rect x="112" y="64" width="8" height="8" fill="#0d2e1c"/><rect x="40" y="72" width="8" height="8" fill="#0d2e1c"/><rect x="48" y="72" width="64" height="8" fill="#2f9e5f"/><rect x="112" y="72" width="16" height="8" fill="#0d2e1c"/><rect x="40" y="80" width="8" height="8" fill="#0d2e1c"/><rect x="48" y="80" width="64" height="8" fill="#2f9e5f"/><rect x="112" y="80" width="16" height="8" fill="#e8c94b"/><rect x="128" y="80" width="8" height="8" fill="#0d2e1c"/><rect x="48" y="88" width="16" height="8" fill="#0d2e1c"/><rect x="64" y="88" width="16" height="8" fill="#2f9e5f"/><rect x="80" y="88" width="24" height="8" fill="#0d2e1c"/><rect x="104" y="88" width="24" height="8" fill="#e8c94b"/><rect x="128" y="88" width="8" height="8" fill="#0d2e1c"/><rect x="64" y="96" width="16" height="8" fill="#0d2e1c"/><rect x="104" y="96" width="24" height="8" fill="#0d2e1c"/><animateTransform attributeName="transform" type="translate" calcMode="discrete" values="0 -10.0;0 -3.3;0 3.3;0 10.0;0 3.3;0 -3.3" keyTimes="0.0000;0.1667;0.3333;0.5000;0.6667;0.8333" dur="1.2000000000000002s" repeatCount="indefinite" /></g></g>
</svg>