<svg xmlns="http://www.w3.org/2000/svg" width="256" height="232" viewBox="0 0 256 232">
  <title>Monkey - 3DPixelZodiac</title>
  <g transform="rotate(0 72 160)">
    <rect x="63" y="160" width="18" height="43" fill="#8a5a3c"/>
    <rect x="63" y="203" width="18" height="13" fill="#241a10"/>
    <animateTransform attributeName="transform" type="rotate" calcMode="discrete" values="18.0 72 160;5.9 72 160;-5.9 72 160;-18.0 72 160;-5.9 72 160;5.9 72 160" keyTimes="0.0000;0.1667;0.3333;0.5000;0.6667;0.8333" dur="1.2000000000000002s" repeatCount="indefinite" />
  </g><rect x="216" y="16" width="8" height="8" fill="#241a10"/><rect x="144" y="24" width="32" height="8" fill="#241a10"/><rect x="200" y="24" width="16" height="8" fill="#241a10"/><rect x="216" y="24" width="8" height="8" fill="#e8c9a0"/><rect x="224" y="24" width="16" height="8" fill="#241a10"/><rect x="136" y="32" width="8" height="8" fill="#241a10"/><rect x="144" y="32" width="32" height="8" fill="#e8c9a0"/><rect x="176" y="32" width="8" height="8" fill="#241a10"/><rect x="192" y="32" width="8" height="8" fill="#241a10"/><rect x="200" y="32" width="40" height="8" fill="#e8c9a0"/><rect x="240" y="32" width="8" height="8" fill="#241a10"/><rect x="32" y="40" width="8" height="8" fill="#241a10"/><rect x="48" y="40" width="8" height="8" fill="#241a10"/><rect x="136" y="40" width="8" height="8" fill="#241a10"/><rect x="144" y="40" width="32" height="8" fill="#e8c9a0"/><rect x="176" y="40" width="8" height="8" fill="#241a10"/><rect x="192" y="40" width="8" height="8" fill="#241a10"/><rect x="200" y="40" width="40" height="8" fill="#e8c9a0"/><rect x="240" y="40" width="8" height="8" fill="#241a10"/><rect x="16" y="48" width="16" height="8" fill="#241a10"/><rect x="32" y="48" width="8" height="8" fill="#8a5a3c"/><rect x="40" y="48" width="8" height="8" fill="#241a10"/><rect x="48" y="48" width="8" height="8" fill="#8a5a3c"/><rect x="56" y="48" width="8" height="8" fill="#241a10"/><rect x="128" y="48" width="8" height="8" fill="#241a10"/><rect x="136" y="48" width="48" height="8" fill="#e8c9a0"/><rect x="184" y="48" width="16" height="8" fill="#241a10"/><rect x="200" y="48" width="40" height="8" fill="#e8c9a0"/><rect x="240" y="48" width="8" height="8" fill="#241a10"/><rect x="8" y="56" width="8" height="8" fill="#241a10"/><rect x="16" y="56" width="8" height="8" fill="#8a5a3c"/><rect x="24" y="56" width="16" height="8" fill="#241a10"/><rect x="48" y="56" width="8" height="8" fill="#241a10"/><rect x="128" y="56" width="8" height="8" fill="#241a10"/><rect x="136" y="56" width="40" height="8" fill="#e8c9a0"/><rect x="176" y="56" width="16" height="8" fill="#8a5a3c"/><rect x="192" y="56" width="8" height="8" fill="#241a10"/><rect x="200" y="56" width="40" height="8" fill="#e8c9a0"/><rect x="240" y="56" width="8" height="8" fill="#241a10"/><rect x="8" y="64" width="16" height="8" fill="#241a10"/><rect x="136" y="64" width="8" height="8" fill="#241a10"/><rect x="144" y="64" width="16" height="8" fill="#e8c9a0"/><rect x="160" y="64" width="48" height="8" fill="#8a5a3c"/><rect x="208" y="64" width="32" height="8" fill="#e8c9a0"/><rect x="240" y="64" width="8" height="8" fill="#241a10"/><rect x="0" y="72" width="8" height="8" fill="#241a10"/><rect x="8" y="72" width="8" height="8" fill="#8a5a3c"/><rect x="16" y="72" width="8" height="8" fill="#241a10"/><rect x="80" y="72" width="64" height="8" fill="#241a10"/><rect x="144" y="72" width="8" height="8" fill="#e8c9a0"/><rect x="152" y="72" width="32" height="8" fill="#8a5a3c"/><rect x="184" y="72" width="24" height="8" fill="#e8c9a0"/><rect x="208" y="72" width="8" height="8" fill="#8a5a3c"/><rect x="216" y="72" width="8" height="8" fill="#e8c9a0"/><rect x="224" y="72" width="16" height="8" fill="#241a10"/><rect x="8" y="80" width="8" height="8" fill="#241a10"/><rect x="64" y="80" width="16" height="8" fill="#241a10"/><rect x="80" y="80" width="64" height="8" fill="#8a5a3c"/><rect x="144" y="80" width="8" height="8" fill="#241a10"/><rect x="152" y="80" width="16" height="8" fill="#8a5a3c"/><rect x="168" y="80" width="48" height="8" fill="#e8c9a0"/><rect x="216" y="80" width="16" height="8" fill="#241a10"/><rect x="16" y="88" width="8" height="8" fill="#241a10"/><rect x="56" y="88" width="8" height="8" fill="#241a10"/><rect x="64" y="88" width="104" height="8" fill="#8a5a3c"/><rect x="168" y="88" width="64" height="8" fill="#e8c9a0"/><rect x="232" y="88" width="8" height="8" fill="#241a10"/><rect x="8" y="96" width="8" height="8" fill="#241a10"/><rect x="16" y="96" width="8" height="8" fill="#8a5a3c"/><rect x="24" y="96" width="8" height="8" fill="#241a10"/><rect x="48" y="96" width="8" height="8" fill="#241a10"/><rect x="56" y="96" width="112" height="8" fill="#8a5a3c"/><rect x="168" y="96" width="24" height="8" fill="#e8c9a0"/><rect x="192" y="96" width="8" height="8" fill="#141116"/><rect x="200" y="96" width="40" height="8" fill="#e8c9a0"/><rect x="240" y="96" width="8" height="8" fill="#241a10"/><rect x="16" y="104" width="8" height="8" fill="#241a10"/><rect x="32" y="104" width="16" height="8" fill="#241a10"/><rect x="48" y="104" width="120" height="8" fill="#8a5a3c"/><rect x="168" y="104" width="72" height="8" fill="#e8c9a0"/><rect x="240" y="104" width="8" height="8" fill="#241a10"/><rect x="24" y="112" width="8" height="8" fill="#241a10"/><rect x="32" y="112" width="8" height="8" fill="#8a5a3c"/><rect x="40" y="112" width="8" height="8" fill="#241a10"/><rect x="48" y="112" width="48" height="8" fill="#8a5a3c"/><rect x="96" y="112" width="24" height="8" fill="#e8c9a0"/><rect x="120" y="112" width="48" height="8" fill="#8a5a3c"/><rect x="168" y="112" width="64" height="8" fill="#e8c9a0"/><rect x="232" y="112" width="8" height="8" fill="#241a10"/><rect x="32" y="120" width="16" height="8" fill="#241a10"/><rect x="48" y="120" width="24" height="8" fill="#8a5a3c"/><rect x="72" y="120" width="72" height="8" fill="#e8c9a0"/><rect x="144" y="120" width="32" height="8" fill="#8a5a3c"/><rect x="176" y="120" width="32" height="8" fill="#e8c9a0"/><rect x="208" y="120" width="24" height="8" fill="#241a10"/><rect x="40" y="128" width="8" height="8" fill="#241a10"/><rect x="48" y="128" width="16" height="8" fill="#8a5a3c"/><rect x="64" y="128" width="88" height="8" fill="#e8c9a0"/><rect x="152" y="128" width="40" height="8" fill="#8a5a3c"/><rect x="192" y="128" width="16" height="8" fill="#241a10"/><rect x="48" y="136" width="8" height="8" fill="#241a10"/><rect x="56" y="136" width="8" height="8" fill="#8a5a3c"/><rect x="64" y="136" width="88" height="8" fill="#e8c9a0"/><rect x="152" y="136" width="16" height="8" fill="#8a5a3c"/><rect x="168" y="136" width="24" height="8" fill="#241a10"/><rect x="56" y="144" width="8" height="8" fill="#241a10"/><rect x="64" y="144" width="88" height="8" fill="#e8c9a0"/><rect x="152" y="144" width="8" height="8" fill="#8a5a3c"/><rect x="160" y="144" width="8" height="8" fill="#241a10"/><rect x="64" y="152" width="8" height="8" fill="#241a10"/><rect x="72" y="152" width="72" height="8" fill="#e8c9a0"/><rect x="144" y="152" width="16" height="8" fill="#241a10"/><rect x="72" y="160" width="72" height="8" fill="#241a10"/><g transform="rotate(0 160 160)">
    <rect x="151" y="160" width="18" height="43" fill="#8a5a3c"/>
    <rect x="151" y="203" width="18" height="13" fill="#241a10"/>
    <animateTransform attributeName="transform" type="rotate" calcMode="discrete" values="-18.0 160 160;-5.9 160 160;5.9 160 160;18.0 160 160;5.9 160 160;-5.9 160 160" keyTimes="0.0000;0.1667;0.3333;0.5000;0.6667;0.8333" dur="1.2000000000000002s" repeatCount="indefinite" />
  </g>
</svg>