<svg xmlns="http://www.w3.org/2000/svg" width="304" height="176" viewBox="0 0 304 176">
  <title>Dragon - 3DPixelZodiac</title>
  <g transform="translate(8,0)"><g><rect x="4" y="84" width="4" height="4" fill="#0d2e1c"/><rect x="4" y="88" width="4" height="4" fill="#0d2e1c"/><animateTransform attributeName="transform" type="translate" calcMode="discrete" values="0 -3.0;0 3.0;0 9.0;0 3.0;0 -3.0;0 -9.0" keyTimes="0.0000;0.1667;0.3333;0.5000;0.6667;0.8333" dur="1.2000000000000002s" repeatCount="indefinite" /></g></g><g transform="translate(16,0)"><g><rect x="0" y="80" width="8" height="4" fill="#0d2e1c"/><rect x="0" y="84" width="8" height="4" fill="#2f9e5f"/><rect x="0" y="88" width="8" height="4" fill="#2f9e5f"/><rect x="0" y="92" width="8" height="4" fill="#0d2e1c"/><animateTransform attributeName="transform" type="translate" calcMode="discrete" values="0 3.0;0 9.0;0 3.0;0 -3.0;0 -9.0;0 -3.0" keyTimes="0.0000;0.1667;0.3333;0.5000;0.6667;0.8333" dur="1.2000000000000002s" repeatCount="indefinite" /></g></g><g transform="translate(24,0)"><g><rect x="0" y="76" width="8" height="4" fill="#0d2e1c"/><rect x="0" y="80" width="8" height="4" fill="#2f9e5f"/><rect x="0" y="84" width="8" height="4" fill="#2f9e5f"/><rect x="0" y="88" width="8" height="4" fill="#1f7a46"/><rect x="0" y="92" width="8" height="4" fill="#1f7a46"/><rect x="0" y="96" width="8" height="4" fill="#0d2e1c"/><animateTransform attributeName="transform" type="translate" calcMode="discrete" values="0 9.0;0 3.0;0 -3.0;0 -9.0;0 -3.0;0 3.0" keyTimes="0.0000;0.1667;0.3333;0.5000;0.6667;0.8333" dur="1.2000000000000002s" repeatCount="indefinite" /></g></g><g transform="translate(32,0)"><g><rect x="4" y="72" width="4" height="4" fill="#0d2e1c"/><rect x="0" y="76" width="4" height="4" fill="#0d2e1c"/><rect x="4" y="76" width="4" height="4" fill="#2f9e5f"/><rect x="0" y="80" width="8" height="4" fill="#1f7a46"/><rect x="0" y="84" width="8" height="4" fill="#1f7a46"/><rect x="0" y="88" width="8" height="4" fill="#2f9e5f"/><rect x="0" y="92" width="8" height="4" fill="#0d2e1c"/><animateTransform attributeName="transform" type="translate" calcMode="discrete" values="0 3.0;0 -3.0;0 -9.0;0 -3.0;0 3.0;0 9.0" keyTimes="0.0000;0.1667;0.3333;0.5000;0.6667;0.8333" dur="1.2000000000000002s" repeatCount="indefinite" /></g></g><g transform="translate(40,0)"><g><rect x="0" y="72" width="8" height="4" fill="#0d2e1c"/><rect x="0" y="76" width="8" height="4" fill="#2f9e5f"/><rect x="0" y="80" width="8" height="4" fill="#1f7a46"/><rect x="0" y="84" width="8" height="4" fill="#1f7a46"/><rect x="0" y="88" width="8" height="4" fill="#2f9e5f"/><rect x="0" y="92" width="8" height="4" fill="#0d2e1c"/><animateTransform attributeName="transform" type="translate" calcMode="discrete" values="0 -3.0;0 -9.0;0 -3.0;0 3.0;0 9.0;0 3.0" keyTimes="0.0000;0.1667;0.3333;0.5000;0.6667;0.8333" dur="1.2000000000000002s" repeatCount="indefinite" /></g></g><g transform="translate(48,0)"><g><rect x="0" y="72" width="8" height="4" fill="#0d2e1c"/><rect x="0" y="76" width="8" height="4" fill="#2f9e5f"/><rect x="0" y="80" width="8" height="4" fill="#1f7a46"/><rect x="0" y="84" width="8" height="4" fill="#1f7a46"/><rect x="0" y="88" width="8" height="4" fill="#2f9e5f"/><rect x="0" y="92" width="8" height="4" fill="#2f9e5f"/><rect x="0" y="96" width="8" height="4" fill="#0d2e1c"/><animateTransform attributeName="transform" type="translate" calcMode="discrete" values="0 -9.0;0 -3.0;0 3.0;0 9.0;0 3.0;0 -3.0" keyTimes="0.0000;0.1667;0.3333;0.5000;0.6667;0.8333" dur="1.2000000000000002s" repeatCount="indefinite" /></g></g><g transform="translate(56,0)"><g><rect x="0" y="72" width="8" height="4" fill="#0d2e1c"/><rect x="0" y="76" width="8" height="4" fill="#2f9e5f"/><rect x="0" y="80" width="8" height="4" fill="#1f7a46"/><rect x="0" y="84" width="8" height="4" fill="#1f7a46"/><rect x="0" y="88" width="8" height="4" fill="#2f9e5f"/><rect x="0" y="92" width="8" height="4" fill="#2f9e5f"/><rect x="0" y="96" width="8" height="4" fill="#2f9e5f"/><rect x="0" y="100" width="8" height="4" fill="#0d2e1c"/><animateTransform attributeName="transform" type="translate" calcMode="discrete" values="0 -3.0;0 3.0;0 9.0;0 3.0;0 -3.0;0 -9.0" keyTimes="0.0000;0.1667;0.3333;0.5000;0.6667;0.8333" dur="1.2000000000000002s" repeatCount="indefinite" /></g></g><g transform="translate(64,0)"><g><rect x="0" y="72" width="4" height="4" fill="#0d2e1c"/><rect x="0" y="76" width="4" height="4" fill="#2f9e5f"/><rect x="4" y="76" width="4" height="4" fill="#0d2e1c"/><rect x="0" y="80" width="8" height="4" fill="#1f7a46"/><rect x="0" y="84" width="8" height="4" fill="#1f7a46"/><rect x="0" y="88" width="8" height="4" fill="#2f9e5f"/><rect x="0" y="92" width="8" height="4" fill="#2f9e5f"/><rect x="0" y="96" width="8" height="4" fill="#2f9e5f"/><rect x="0" y="100" width="4" height="4" fill="#0d2e1c"/><rect x="4" y="100" width="4" height="4" fill="#2f9e5f"/><rect x="4" y="104" width="4" height="4" fill="#0d2e1c"/><animateTransform attributeName="transform" type="translate" calcMode="discrete" values="0 3.0;0 9.0;0 3.0;0 -3.0;0 -9.0;0 -3.0" keyTimes="0.0000;0.1667;0.3333;0.5000;0.6667;0.8333" dur="1.2000000000000002s" repeatCount="indefinite" /></g></g><g transform="translate(72,0)"><g><rect x="0" y="76" width="8" height="4" fill="#0d2e1c"/><rect x="0" y="80" width="8" height="4" fill="#2f9e5f"/><rect x="0" y="84" width="8" height="4" fill="#2f9e5f"/><rect x="0" y="88" width="8" height="4" fill="#2f9e5f"/><rect x="0" y="92" width="8" height="4" fill="#2f9e5f"/><rect x="0" y="96" width="8" height="4" fill="#2f9e5f"/><rect x="0" y="100" width="8" height="4" fill="#2f9e5f"/><rect x="0" y="104" width="8" height="4" fill="#0d2e1c"/><animateTransform attributeName="transform" type="translate" calcMode="discrete" values="0 9.0;0 3.0;0 -3.0;0 -9.0;0 -3.0;0 3.0" keyTimes="0.0000;0.1667;0.3333;0.5000;0.6667;0.8333" dur="1.2000000000000002s" repeatCount="indefinite" /></g></g><g transform="translate(80,0)"><g><rect x="4" y="72" width="4" height="4" fill="#0d2e1c"/><rect x="0" y="76" width="4" height="4" fill="#0d2e1c"/><rect x="4" y="76" width="4" height="4" fill="#2f9e5f"/><rect x="0" y="80" width="8" height="4" fill="#2f9e5f"/><rect x="0" y="84" width="8" height="4" fill="#2f9e5f"/><rect x="0" y="88" width="8" height="4" fill="#1f7a46"/><rect x="0" y="92" width="8" height="4" fill="#1f7a46"/><rect x="0" y="96" width="8" height="4" fill="#2f9e5f"/><rect x="0" y="100" width="8" height="4" fill="#2f9e5f"/><rect x="0" y="104" width="8" height="4" fill="#0d2e1c"/><animateTransform attributeName="transform" type="translate" calcMode="discrete" values="0 3.0;0 -3.0;0 -9.0;0 -3.0;0 3.0;0 9.0" keyTimes="0.0000;0.1667;0.3333;0.5000;0.6667;0.8333" dur="1.2000000000000002s" repeatCount="indefinite" /></g></g><g transform="translate(88,0)"><g><rect x="0" y="72" width="8" height="4" fill="#0d2e1c"/><rect x="0" y="76" width="8" height="4" fill="#2f9e5f"/><rect x="0" y="80" width="8" height="4" fill="#2f9e5f"/><rect x="0" y="84" width="8" height="4" fill="#2f9e5f"/><rect x="0" y="88" width="8" height="4" fill="#1f7a46"/><rect x="0" y="92" width="8" height="4" fill="#1f7a46"/><rect x="0" y="96" width="8" height="4" fill="#2f9e5f"/><rect x="0" y="100" width="8" height="4" fill="#2f9e5f"/><rect x="0" y="104" width="8" height="4" fill="#0d2e1c"/><animateTransform attributeName="transform" type="translate" calcMode="discrete" values="0 -3.0;0 -9.0;0 -3.0;0 3.0;0 9.0;0 3.0" keyTimes="0.0000;0.1667;0.3333;0.5000;0.6667;0.8333" dur="1.2000000000000002s" repeatCount="indefinite" /></g></g><g transform="translate(96,0)"><g><rect x="0" y="68" width="8" height="4" fill="#0d2e1c"/><rect x="0" y="72" width="8" height="4" fill="#2f9e5f"/><rect x="0" y="76" width="8" height="4" fill="#2f9e5f"/><rect x="0" y="80" width="8" height="4" fill="#1f7a46"/><rect x="0" y="84" width="8" height="4" fill="#1f7a46"/><rect x="0" y="88" width="8" height="4" fill="#2f9e5f"/><rect x="0" y="92" width="8" height="4" fill="#2f9e5f"/><rect x="0" y="96" width="8" height="4" fill="#2f9e5f"/><rect x="0" y="100" width="8" height="4" fill="#2f9e5f"/><rect x="0" y="104" width="8" height="4" fill="#0d2e1c"/><animateTransform attributeName="transform" type="translate" calcMode="discrete" values="0 -9.0;0 -3.0;0 3.0;0 9.0;0 3.0;0 -3.0" keyTimes="0.0000;0.1667;0.3333;0.5000;0.6667;0.8333" dur="1.2000000000000002s" repeatCount="indefinite" /></g></g><g transform="translate(104,0)"><g><rect x="4" y="64" width="4" height="4" fill="#0d2e1c"/><rect x="0" y="68" width="4" height="4" fill="#0d2e1c"/><rect x="4" y="68" width="4" height="4" fill="#2f9e5f"/><rect x="0" y="72" width="8" height="4" fill="#2f9e5f"/><rect x="0" y="76" width="8" height="4" fill="#2f9e5f"/><rect x="0" y="80" width="8" height="4" fill="#2f9e5f"/><rect x="0" y="84" width="8" height="4" fill="#2f9e5f"/><rect x="0" y="88" width="8" height="4" fill="#2f9e5f"/><rect x="0" y="92" width="8" height="4" fill="#2f9e5f"/><rect x="0" y="96" width="8" height="4" fill="#2f9e5f"/><rect x="0" y="100" width="4" height="4" fill="#2f9e5f"/><rect x="4" y="100" width="4" height="4" fill="#0d2e1c"/><rect x="0" y="104" width="4" height="4" fill="#0d2e1c"/><animateTransform attributeName="transform" type="translate" calcMode="discrete" values="0 -3.0;0 3.0;0 9.0;0 3.0;0 -3.0;0 -9.0" keyTimes="0.0000;0.1667;0.3333;0.5000;0.6667;0.8333" dur="1.2000000000000002s" repeatCount="indefinite" /></g></g><g transform="translate(112,0)"><g><rect x="0" y="64" width="8" height="4" fill="#0d2e1c"/><rect x="0" y="68" width="8" height="4" fill="#2f9e5f"/><rect x="0" y="72" width="8" height="4" fill="#2f9e5f"/><rect x="0" y="76" width="8" height="4" fill="#2f9e5f"/><rect x="0" y="80" width="8" height="4" fill="#1f7a46"/><rect x="0" y="84" width="8" height="4" fill="#1f7a46"/><rect x="0" y="88" width="8" height="4" fill="#2f9e5f"/><rect x="0" y="92" width="8" height="4" fill="#2f9e5f"/><rect x="0" y="96" width="8" height="4" fill="#2f9e5f"/><rect x="0" y="100" width="8" height="4" fill="#0d2e1c"/><animateTransform attributeName="transform" type="translate" calcMode="discrete" values="0 3.0;0 9.0;0 3.0;0 -3.0;0 -9.0;0 -3.0" keyTimes="0.0000;0.1667;0.3333;0.5000;0.6667;0.8333" dur="1.2000000000000002s" repeatCount="indefinite" /></g></g><g transform="translate(120,0)"><g><rect x="0" y="64" width="8" height="4" fill="#0d2e1c"/><rect x="0" y="68" width="8" height="4" fill="#2f9e5f"/><rect x="0" y="72" width="8" height="4" fill="#2f9e5f"/><rect x="0" y="76" width="8" height="4" fill="#2f9e5f"/><rect x="0" y="80" width="8" height="4" fill="#1f7a46"/><rect x="0" y="84" width="8" height="4" fill="#1f7a46"/><rect x="0" y="88" width="8" height="4" fill="#2f9e5f"/><rect x="0" y="92" width="8" height="4" fill="#2f9e5f"/><rect x="0" y="96" width="8" height="4" fill="#2f9e5f"/><rect x="0" y="100" width="8" height="4" fill="#2f9e5f"/><rect x="0" y="104" width="8" height="4" fill="#0d2e1c"/><animateTransform attributeName="transform" type="translate" calcMode="discrete" values="0 9.0;0 3.0;0 -3.0;0 -9.0;0 -3.0;0 3.0" keyTimes="0.0000;0.1667;0.3333;0.5000;0.6667;0.8333" dur="1.2000000000000002s" repeatCount="indefinite" /></g></g><g transform="translate(128,0)"><g><rect x="0" y="64" width="8" height="4" fill="#0d2e1c"/><rect x="0" y="68" width="8" height="4" fill="#2f9e5f"/><rect x="0" y="72" width="8" height="4" fill="#2f9e5f"/><rect x="0" y="76" width="8" height="4" fill="#2f9e5f"/><rect x="0" y="80" width="8" height="4" fill="#1f7a46"/><rect x="0" y="84" width="8" height="4" fill="#1f7a46"/><rect x="0" y="88" width="8" height="4" fill="#2f9e5f"/><rect x="0" y="92" width="8" height="4" fill="#2f9e5f"/><rect x="0" y="96" width="8" height="4" fill="#2f9e5f"/><rect x="0" y="100" width="8" height="4" fill="#2f9e5f"/><rect x="0" y="104" width="8" height="4" fill="#0d2e1c"/><animateTransform attributeName="transform" type="translate" calcMode="discrete" values="0 3.0;0 -3.0;0 -9.0;0 -3.0;0 3.0;0 9.0" keyTimes="0.0000;0.1667;0.3333;0.5000;0.6667;0.8333" dur="1.2000000000000002s" repeatCount="indefinite" /></g></g><g transform="translate(136,0)"><g><rect x="0" y="64" width="8" height="4" fill="#0d2e1c"/><rect x="0" y="68" width="8" height="4" fill="#2f9e5f"/><rect x="0" y="72" width="8" height="4" fill="#2f9e5f"/><rect x="0" y="76" width="8" height="4" fill="#2f9e5f"/><rect x="0" y="80" width="8" height="4" fill="#2f9e5f"/><rect x="0" y="84" width="8" height="4" fill="#2f9e5f"/><rect x="0" y="88" width="8" height="4" fill="#2f9e5f"/><rect x="0" y="92" width="8" height="4" fill="#2f9e5f"/><rect x="0" y="96" width="8" height="4" fill="#2f9e5f"/><rect x="0" y="100" width="8" height="4" fill="#2f9e5f"/><rect x="0" y="104" width="8" height="4" fill="#2f9e5f"/><rect x="0" y="108" width="8" height="4" fill="#0d2e1c"/><animateTransform attributeName="transform" type="translate" calcMode="discrete" values="0 -3.0;0 -9.0;0 -3.0;0 3.0;0 9.0;0 3.0" keyTimes="0.0000;0.1667;0.3333;0.5000;0.6667;0.8333" dur="1.2000000000000002s" repeatCount="indefinite" /></g></g><g transform="translate(144,0)"><g><rect x="0" y="64" width="4" height="4" fill="#0d2e1c"/><rect x="0" y="68" width="4" height="4" fill="#2f9e5f"/><rect x="4" y="68" width="4" height="4" fill="#0d2e1c"/><rect x="0" y="72" width="8" height="4" fill="#2f9e5f"/><rect x="0" y="76" width="8" height="4" fill="#2f9e5f"/><rect x="0" y="80" width="8" height="4" fill="#1f7a46"/><rect x="0" y="84" width="8" height="4" fill="#1f7a46"/><rect x="0" y="88" width="8" height="4" fill="#2f9e5f"/><rect x="0" y="92" width="8" height="4" fill="#2f9e5f"/><rect x="0" y="96" width="8" height="4" fill="#2f9e5f"/><rect x="0" y="100" width="8" height="4" fill="#2f9e5f"/><rect x="0" y="104" width="8" height="4" fill="#2f9e5f"/><rect x="0" y="108" width="4" height="4" fill="#0d2e1c"/><rect x="4" y="108" width="4" height="4" fill="#2f9e5f"/><rect x="4" y="112" width="4" height="4" fill="#0d2e1c"/><animateTransform attributeName="transform" type="translate" calcMode="discrete" values="0 -9.0;0 -3.0;0 3.0;0 9.0;0 3.0;0 -3.0" keyTimes="0.0000;0.1667;0.3333;0.5000;0.6667;0.8333" dur="1.2000000000000002s" repeatCount="indefinite" /></g></g><g transform="translate(152,0)"><g><rect x="0" y="68" width="8" height="4" fill="#0d2e1c"/><rect x="0" y="72" width="8" height="4" fill="#2f9e5f"/><rect x="0" y="76" width="8" height="4" fill="#2f9e5f"/><rect x="0" y="80" width="8" height="4" fill="#1f7a46"/><rect x="0" y="84" width="8" height="4" fill="#1f7a46"/><rect x="0" y="88" width="8" height="4" fill="#2f9e5f"/><rect x="0" y="92" width="8" height="4" fill="#2f9e5f"/><rect x="0" y="96" width="8" height="4" fill="#2f9e5f"/><rect x="0" y="100" width="8" height="4" fill="#2f9e5f"/><rect x="0" y="104" width="8" height="4" fill="#2f9e5f"/><rect x="0" y="108" width="8" height="4" fill="#2f9e5f"/><rect x="0" y="112" width="8" height="4" fill="#0d2e1c"/><animateTransform attributeName="transform" type="translate" calcMode="discrete" values="0 -3.0;0 3.0;0 9.0;0 3.0;0 -3.0;0 -9.0" keyTimes="0.0000;0.1667;0.3333;0.5000;0.6667;0.8333" dur="1.2000000000000002s" repeatCount="indefinite" /></g></g><g transform="translate(160,0)"><g><rect x="0" y="64" width="8" height="4" fill="#0d2e1c"/><rect x="0" y="68" width="8" height="4" fill="#2f9e5f"/><rect x="0" y="72" width="8" height="4" fill="#2f9e5f"/><rect x="0" y="76" width="8" height="4" fill="#2f9e5f"/><rect x="0" y="80" width="8" height="4" fill="#1f7a46"/><rect x="0" y="84" width="8" height="4" fill="#1f7a46"/><rect x="0" y="88" width="8" height="4" fill="#2f9e5f"/><rect x="0" y="92" width="8" height="4" fill="#2f9e5f"/><rect x="0" y="96" width="8" height="4" fill="#2f9e5f"/><rect x="0" y="100" width="8" height="4" fill="#2f9e5f"/><rect x="0" y="104" width="8" height="4" fill="#2f9e5f"/><rect x="0" y="108" width="8" height="4" fill="#2f9e5f"/><rect x="0" y="112" width="8" height="4" fill="#0d2e1c"/><animateTransform attributeName="transform" type="translate" calcMode="discrete" values="0 3.0;0 9.0;0 3.0;0 -3.0;0 -9.0;0 -3.0" keyTimes="0.0000;0.1667;0.3333;0.5000;0.6667;0.8333" dur="1.2000000000000002s" repeatCount="indefinite" /></g></g><g transform="translate(168,0)"><g><rect x="0" y="64" width="8" height="4" fill="#0d2e1c"/><rect x="0" y="68" width="8" height="4" fill="#2f9e5f"/><rect x="0" y="72" width="8" height="4" fill="#2f9e5f"/><rect x="0" y="76" width="8" height="4" fill="#2f9e5f"/><rect x="0" y="80" width="8" height="4" fill="#2f9e5f"/><rect x="0" y="84" width="8" height="4" fill="#2f9e5f"/><rect x="0" y="88" width="8" height="4" fill="#2f9e5f"/><rect x="0" y="92" width="8" height="4" fill="#2f9e5f"/><rect x="0" y="96" width="8" height="4" fill="#2f9e5f"/><rect x="0" y="100" width="8" height="4" fill="#2f9e5f"/><rect x="0" y="104" width="8" height="4" fill="#2f9e5f"/><rect x="0" y="108" width="8" height="4" fill="#2f9e5f"/><rect x="0" y="112" width="8" height="4" fill="#0d2e1c"/><animateTransform attributeName="transform" type="translate" calcMode="discrete" values="0 9.0;0 3.0;0 -3.0;0 -9.0;0 -3.0;0 3.0" keyTimes="0.0000;0.1667;0.3333;0.5000;0.6667;0.8333" dur="1.2000000000000002s" repeatCount="indefinite" /></g></g><g transform="translate(176,0)"><g><rect x="0" y="60" width="8" height="4" fill="#0d2e1c"/><rect x="0" y="64" width="8" height="4" fill="#2f9e5f"/><rect x="0" y="68" width="8" height="4" fill="#2f9e5f"/><rect x="0" y="72" width="8" height="4" fill="#2f9e5f"/><rect x="0" y="76" width="8" height="4" fill="#2f9e5f"/><rect x="0" y="80" width="8" height="4" fill="#1f7a46"/><rect x="0" y="84" width="8" height="4" fill="#1f7a46"/><rect x="0" y="88" width="8" height="4" fill="#2f9e5f"/><rect x="0" y="92" width="8" height="4" fill="#2f9e5f"/><rect x="0" y="96" width="8" height="4" fill="#2f9e5f"/><rect x="0" y="100" width="8" height="4" fill="#2f9e5f"/><rect x="0" y="104" width="8" height="4" fill="#2f9e5f"/><rect x="0" y="108" width="8" height="4" fill="#2f9e5f"/><rect x="0" y="112" width="8" height="4" fill="#0d2e1c"/><animateTransform attributeName="transform" type="translate" calcMode="discrete" values="0 3.0;0 -3.0;0 -9.0;0 -3.0;0 3.0;0 9.0" keyTimes="0.0000;0.1667;0.3333;0.5000;0.6667;0.8333" dur="1.2000000000000002s" repeatCount="indefinite" /></g></g><g transform="translate(184,0)"><g><rect x="4" y="56" width="4" height="4" fill="#0d2e1c"/><rect x="0" y="60" width="4" height="4" fill="#0d2e1c"/><rect x="4" y="60" width="4" height="4" fill="#2f9e5f"/><rect x="0" y="64" width="8" height="4" fill="#2f9e5f"/><rect x="0" y="68" width="8" height="4" fill="#2f9e5f"/><rect x="0" y="72" width="8" height="4" fill="#2f9e5f"/><rect x="0" y="76" width="8" height="4" fill="#2f9e5f"/><rect x="0" y="80" width="8" height="4" fill="#1f7a46"/><rect x="0" y="84" width="8" height="4" fill="#1f7a46"/><rect x="0" y="88" width="8" height="4" fill="#2f9e5f"/><rect x="0" y="92" width="8" height="4" fill="#2f9e5f"/><rect x="0" y="96" width="8" height="4" fill="#2f9e5f"/><rect x="0" y="100" width="8" height="4" fill="#2f9e5f"/><rect x="0" y="104" width="8" height="4" fill="#2f9e5f"/><rect x="0" y="108" width="4" height="4" fill="#2f9e5f"/><rect x="4" y="108" width="4" height="4" fill="#0d2e1c"/><rect x="0" y="112" width="4" height="4" fill="#0d2e1c"/><animateTransform attributeName="transform" type="translate" calcMode="discrete" values="0 -3.0;0 -9.0;0 -3.0;0 3.0;0 9.0;0 3.0" keyTimes="0.0000;0.1667;0.3333;0.5000;0.6667;0.8333" dur="1.2000000000000002s" repeatCount="indefinite" /></g></g><g transform="translate(192,0)"><g><rect x="0" y="56" width="8" height="4" fill="#0d2e1c"/><rect x="0" y="60" width="8" height="4" fill="#2f9e5f"/><rect x="0" y="64" width="8" height="4" fill="#2f9e5f"/><rect x="0" y="68" width="8" height="4" fill="#2f9e5f"/><rect x="0" y="72" width="8" height="4" fill="#2f9e5f"/><rect x="0" y="76" width="8" height="4" fill="#2f9e5f"/><rect x="0" y="80" width="8" height="4" fill="#2f9e5f"/><rect x="0" y="84" width="8" height="4" fill="#2f9e5f"/><rect x="0" y="88" width="8" height="4" fill="#2f9e5f"/><rect x="0" y="92" width="8" height="4" fill="#2f9e5f"/><rect x="0" y="96" width="8" height="4" fill="#2f9e5f"/><rect x="0" y="100" width="8" height="4" fill="#2f9e5f"/><rect x="0" y="104" width="8" height="4" fill="#2f9e5f"/><rect x="0" y="108" width="8" height="4" fill="#0d2e1c"/><animateTransform attributeName="transform" type="translate" calcMode="discrete" values="0 -9.0;0 -3.0;0 3.0;0 9.0;0 3.0;0 -3.0" keyTimes="0.0000;0.1667;0.3333;0.5000;0.6667;0.8333" dur="1.2000000000000002s" repeatCount="indefinite" /></g></g><g transform="translate(200,0)"><rect x="16" y="20" width="12" height="4" fill="#0d2e1c"/><rect x="56" y="20" width="12" height="4" fill="#0d2e1c"/><rect x="12" y="24" width="4" height="4" fill="#0d2e1c"/><rect x="16" y="24" width="12" height="4" fill="#e8c94b"/><rect x="28" y="24" width="4" height="4" fill="#0d2e1c"/><rect x="52" y="24" width="4" height="4" fill="#0d2e1c"/><rect x="56" y="24" width="12" height="4" fill="#e8c94b"/><rect x="68" y="24" width="4" height="4" fill="#0d2e1c"/><rect x="12" y="28" width="4" height="4" fill="#0d2e1c"/><rect x="16" y="28" width="12" height="4" fill="#e8c94b"/><rect x="28" y="28" width="4" height="4" fill="#0d2e1c"/><rect x="52" y="28" width="4" height="4" fill="#0d2e1c"/><rect x="56" y="28" width="12" height="4" fill="#e8c94b"/><rect x="68" y="28" width="4" height="4" fill="#0d2e1c"/><rect x="12" y="32" width="4" height="4" fill="#0d2e1c"/><rect x="16" y="32" width="12" height="4" fill="#e8c94b"/><rect x="28" y="32" width="8" height="4" fill="#0d2e1c"/><rect x="48" y="32" width="8" height="4" fill="#0d2e1c"/><rect x="56" y="32" width="12" height="4" fill="#e8c94b"/><rect x="68" y="32" width="4" height="4" fill="#0d2e1c"/><rect x="12" y="36" width="4" height="4" fill="#0d2e1c"/><rect x="16" y="36" width="20" height="4" fill="#e8c94b"/><rect x="36" y="36" width="4" height="4" fill="#0d2e1c"/><rect x="44" y="36" width="4" height="4" fill="#0d2e1c"/><rect x="48" y="36" width="20" height="4" fill="#e8c94b"/><rect x="68" y="36" width="4" height="4" fill="#0d2e1c"/><rect x="16" y="40" width="8" height="4" fill="#0d2e1c"/><rect x="24" y="40" width="12" height="4" fill="#e8c94b"/><rect x="36" y="40" width="4" height="4" fill="#0d2e1c"/><rect x="44" y="40" width="4" height="4" fill="#0d2e1c"/><rect x="48" y="40" width="12" height="4" fill="#e8c94b"/><rect x="60" y="40" width="8" height="4" fill="#0d2e1c"/><rect x="20" y="44" width="4" height="4" fill="#0d2e1c"/><rect x="24" y="44" width="12" height="4" fill="#e8c94b"/><rect x="36" y="44" width="4" height="4" fill="#0d2e1c"/><rect x="44" y="44" width="4" height="4" fill="#0d2e1c"/><rect x="48" y="44" width="12" height="4" fill="#e8c94b"/><rect x="60" y="44" width="4" height="4" fill="#0d2e1c"/><rect x="20" y="48" width="4" height="4" fill="#0d2e1c"/><rect x="24" y="48" width="12" height="4" fill="#e8c94b"/><rect x="36" y="48" width="4" height="4" fill="#0d2e1c"/><rect x="44" y="48" width="4" height="4" fill="#0d2e1c"/><rect x="48" y="48" width="12" height="4" fill="#e8c94b"/><rect x="60" y="48" width="4" height="4" fill="#0d2e1c"/><rect x="20" y="52" width="4" height="4" fill="#0d2e1c"/><rect x="24" y="52" width="12" height="4" fill="#e8c94b"/><rect x="36" y="52" width="4" height="4" fill="#0d2e1c"/><rect x="44" y="52" width="4" height="4" fill="#0d2e1c"/><rect x="48" y="52" width="12" height="4" fill="#e8c94b"/><rect x="60" y="52" width="4" height="4" fill="#0d2e1c"/><rect x="0" y="56" width="24" height="4" fill="#0d2e1c"/><rect x="24" y="56" width="12" height="4" fill="#e8c94b"/><rect x="36" y="56" width="12" height="4" fill="#0d2e1c"/><rect x="48" y="56" width="12" height="4" fill="#e8c94b"/><rect x="60" y="56" width="4" height="4" fill="#0d2e1c"/><rect x="0" y="60" width="52" height="4" fill="#2f9e5f"/><rect x="52" y="60" width="8" height="4" fill="#0d2e1c"/><rect x="0" y="64" width="56" height="4" fill="#2f9e5f"/><rect x="56" y="64" width="4" height="4" fill="#0d2e1c"/><rect x="0" y="68" width="60" height="4" fill="#2f9e5f"/><rect x="60" y="68" width="4" height="4" fill="#0d2e1c"/><rect x="0" y="72" width="24" height="4" fill="#1f7a46"/><rect x="24" y="72" width="8" height="4" fill="#2f9e5f"/><rect x="32" y="72" width="16" height="4" fill="#1f7a46"/><rect x="48" y="72" width="16" height="4" fill="#2f9e5f"/><rect x="64" y="72" width="4" height="4" fill="#0d2e1c"/><rect x="0" y="76" width="24" height="4" fill="#1f7a46"/><rect x="24" y="76" width="8" height="4" fill="#2f9e5f"/><rect x="32" y="76" width="8" height="4" fill="#1f7a46"/><rect x="40" y="76" width="8" height="4" fill="#141116"/><rect x="48" y="76" width="20" height="4" fill="#2f9e5f"/><rect x="68" y="76" width="4" height="4" fill="#0d2e1c"/><rect x="0" y="80" width="40" height="4" fill="#2f9e5f"/><rect x="40" y="80" width="8" height="4" fill="#141116"/><rect x="48" y="80" width="20" height="4" fill="#2f9e5f"/><rect x="68" y="80" width="4" height="4" fill="#0d2e1c"/><rect x="0" y="84" width="72" height="4" fill="#2f9e5f"/><rect x="72" y="84" width="4" height="4" fill="#0d2e1c"/><rect x="0" y="88" width="76" height="4" fill="#2f9e5f"/><rect x="76" y="88" width="4" height="4" fill="#0d2e1c"/><rect x="0" y="92" width="76" height="4" fill="#2f9e5f"/><rect x="76" y="92" width="4" height="4" fill="#0d2e1c"/><rect x="0" y="96" width="76" height="4" fill="#2f9e5f"/><rect x="76" y="96" width="4" height="4" fill="#0d2e1c"/><rect x="0" y="100" width="76" height="4" fill="#2f9e5f"/><rect x="76" y="100" width="4" height="4" fill="#0d2e1c"/><rect x="0" y="104" width="64" height="4" fill="#2f9e5f"/><rect x="64" y="104" width="16" height="4" fill="#e8c94b"/><rect x="80" y="104" width="4" height="4" fill="#0d2e1c"/><rect x="0" y="108" width="4" height="4" fill="#0d2e1c"/><rect x="4" y="108" width="52" height="4" fill="#2f9e5f"/><rect x="56" y="108" width="8" height="4" fill="#0d2e1c"/><rect x="64" y="108" width="16" height="4" fill="#e8c94b"/><rect x="80" y="108" width="12" height="4" fill="#0d2e1c"/><rect x="4" y="112" width="24" height="4" fill="#0d2e1c"/><rect x="28" y="112" width="24" height="4" fill="#2f9e5f"/><rect x="52" y="112" width="4" height="4" fill="#0d2e1c"/><rect x="64" y="112" width="4" height="4" fill="#0d2e1c"/><rect x="68" y="112" width="24" height="4" fill="#e8c94b"/><rect x="92" y="112" width="4" height="4" fill="#0d2e1c"/><rect x="28" y="116" width="24" height="4" fill="#0d2e1c"/><rect x="64" y="116" width="4" height="4" fill="#0d2e1c"/><rect x="68" y="116" width="24" height="4" fill="#e8c94b"/><rect x="92" y="116" width="4" height="4" fill="#0d2e1c"/><rect x="68" y="120" width="24" height="4" fill="#0d2e1c"/></g>
</svg>