<svg xmlns="http://www.w3.org/2000/svg" width="256" height="208" viewBox="0 0 256 208">
  <title>Rooster - 3DPixelZodiac</title>
  <g transform="rotate(0 72 136)">
    <rect x="63" y="136" width="18" height="43" fill="#c0392b"/>
    <rect x="63" y="179" width="18" height="13" fill="#241206"/>
    <animateTransform attributeName="transform" type="rotate" calcMode="discrete" values="18.0 72 136;5.9 72 136;-5.9 72 136;-18.0 72 136;-5.9 72 136;5.9 72 136" keyTimes="0.0000;0.1667;0.3333;0.5000;0.6667;0.8333" dur="1.2000000000000002s" repeatCount="indefinite" />
  </g><g transform="rotate(0 132 64)">
    <rect x="131" y="63" width="58" height="50" fill="#241206"/>
    <rect x="132" y="64" width="56" height="48" fill="#f2c94c"/>
    <animateTransform attributeName="transform" type="rotate" calcMode="discrete" values="-22.0 132 64;-7.3 132 64;7.3 132 64;22.0 132 64;7.3 132 64;-7.3 132 64" keyTimes="0.0000;0.1667;0.3333;0.5000;0.6667;0.8333" dur="1.2000000000000002s" repeatCount="indefinite" />
  </g><rect x="168" y="8" width="8" height="8" fill="#241206"/><rect x="160" y="16" width="8" height="8" fill="#241206"/><rect x="168" y="16" width="8" height="8" fill="#f2c94c"/><rect x="176" y="16" width="16" height="8" fill="#241206"/><rect x="152" y="24" width="8" height="8" fill="#241206"/><rect x="160" y="24" width="16" height="8" fill="#f2c94c"/><rect x="176" y="24" width="8" height="8" fill="#241206"/><rect x="184" y="24" width="8" height="8" fill="#f2c94c"/><rect x="192" y="24" width="8" height="8" fill="#241206"/><rect x="32" y="32" width="16" height="8" fill="#241206"/><rect x="152" y="32" width="8" height="8" fill="#241206"/><rect x="160" y="32" width="16" height="8" fill="#f2c94c"/><rect x="176" y="32" width="8" height="8" fill="#241206"/><rect x="184" y="32" width="8" height="8" fill="#f2c94c"/><rect x="192" y="32" width="8" height="8" fill="#241206"/><rect x="16" y="40" width="16" height="8" fill="#241206"/><rect x="32" y="40" width="16" height="8" fill="#f2c94c"/><rect x="48" y="40" width="16" height="8" fill="#241206"/><rect x="152" y="40" width="8" height="8" fill="#241206"/><rect x="160" y="40" width="24" height="8" fill="#c0392b"/><rect x="184" y="40" width="8" height="8" fill="#f2c94c"/><rect x="192" y="40" width="8" height="8" fill="#241206"/><rect x="8" y="48" width="8" height="8" fill="#241206"/><rect x="16" y="48" width="16" height="8" fill="#c0392b"/><rect x="32" y="48" width="16" height="8" fill="#f2c94c"/><rect x="48" y="48" width="16" height="8" fill="#8a2416"/><rect x="64" y="48" width="8" height="8" fill="#241206"/><rect x="96" y="48" width="56" height="8" fill="#241206"/><rect x="152" y="48" width="48" height="8" fill="#c0392b"/><rect x="200" y="48" width="8" height="8" fill="#241206"/><rect x="8" y="56" width="8" height="8" fill="#241206"/><rect x="16" y="56" width="16" height="8" fill="#c0392b"/><rect x="32" y="56" width="16" height="8" fill="#f2c94c"/><rect x="48" y="56" width="16" height="8" fill="#8a2416"/><rect x="64" y="56" width="8" height="8" fill="#241206"/><rect x="80" y="56" width="16" height="8" fill="#241206"/><rect x="96" y="56" width="112" height="8" fill="#c0392b"/><rect x="208" y="56" width="8" height="8" fill="#241206"/><rect x="8" y="64" width="8" height="8" fill="#241206"/><rect x="16" y="64" width="16" height="8" fill="#c0392b"/><rect x="32" y="64" width="16" height="8" fill="#f2c94c"/><rect x="48" y="64" width="16" height="8" fill="#8a2416"/><rect x="64" y="64" width="16" height="8" fill="#241206"/><rect x="80" y="64" width="104" height="8" fill="#c0392b"/><rect x="184" y="64" width="8" height="8" fill="#141116"/><rect x="192" y="64" width="16" height="8" fill="#c0392b"/><rect x="208" y="64" width="16" height="8" fill="#241206"/><rect x="8" y="72" width="8" height="8" fill="#241206"/><rect x="16" y="72" width="16" height="8" fill="#c0392b"/><rect x="32" y="72" width="16" height="8" fill="#f2c94c"/><rect x="48" y="72" width="16" height="8" fill="#8a2416"/><rect x="64" y="72" width="8" height="8" fill="#241206"/><rect x="72" y="72" width="136" height="8" fill="#c0392b"/><rect x="208" y="72" width="16" height="8" fill="#f2a71b"/><rect x="224" y="72" width="8" height="8" fill="#241206"/><rect x="8" y="80" width="8" height="8" fill="#241206"/><rect x="16" y="80" width="16" height="8" fill="#c0392b"/><rect x="32" y="80" width="16" height="8" fill="#f2c94c"/><rect x="48" y="80" width="16" height="8" fill="#8a2416"/><rect x="64" y="80" width="8" height="8" fill="#241206"/><rect x="72" y="80" width="136" height="8" fill="#c0392b"/><rect x="208" y="80" width="16" height="8" fill="#241206"/><rect x="8" y="88" width="8" height="8" fill="#241206"/><rect x="16" y="88" width="16" height="8" fill="#c0392b"/><rect x="32" y="88" width="16" height="8" fill="#f2c94c"/><rect x="48" y="88" width="16" height="8" fill="#8a2416"/><rect x="64" y="88" width="8" height="8" fill="#241206"/><rect x="72" y="88" width="128" height="8" fill="#c0392b"/><rect x="200" y="88" width="8" height="8" fill="#241206"/><rect x="8" y="96" width="8" height="8" fill="#241206"/><rect x="16" y="96" width="16" height="8" fill="#c0392b"/><rect x="32" y="96" width="16" height="8" fill="#f2c94c"/><rect x="48" y="96" width="16" height="8" fill="#8a2416"/><rect x="64" y="96" width="8" height="8" fill="#241206"/><rect x="72" y="96" width="40" height="8" fill="#c0392b"/><rect x="112" y="96" width="16" height="8" fill="#8a2416"/><rect x="128" y="96" width="64" height="8" fill="#c0392b"/><rect x="192" y="96" width="8" height="8" fill="#241206"/><rect x="16" y="104" width="32" height="8" fill="#241206"/><rect x="48" y="104" width="16" height="8" fill="#8a2416"/><rect x="64" y="104" width="8" height="8" fill="#241206"/><rect x="72" y="104" width="16" height="8" fill="#c0392b"/><rect x="88" y="104" width="64" height="8" fill="#8a2416"/><rect x="152" y="104" width="16" height="8" fill="#c0392b"/><rect x="168" y="104" width="24" height="8" fill="#241206"/><rect x="48" y="112" width="24" height="8" fill="#241206"/><rect x="72" y="112" width="16" height="8" fill="#c0392b"/><rect x="88" y="112" width="64" height="8" fill="#8a2416"/><rect x="152" y="112" width="16" height="8" fill="#c0392b"/><rect x="168" y="112" width="8" height="8" fill="#241206"/><rect x="72" y="120" width="8" height="8" fill="#241206"/><rect x="80" y="120" width="8" height="8" fill="#c0392b"/><rect x="88" y="120" width="64" height="8" fill="#8a2416"/><rect x="152" y="120" width="8" height="8" fill="#c0392b"/><rect x="160" y="120" width="8" height="8" fill="#241206"/><rect x="80" y="128" width="8" height="8" fill="#241206"/><rect x="88" y="128" width="64" height="8" fill="#8a2416"/><rect x="152" y="128" width="8" height="8" fill="#241206"/><rect x="88" y="136" width="24" height="8" fill="#241206"/><rect x="112" y="136" width="16" height="8" fill="#8a2416"/><rect x="128" y="136" width="24" height="8" fill="#241206"/><rect x="112" y="144" width="16" height="8" fill="#241206"/><g transform="rotate(0 160 136)">
    <rect x="151" y="136" width="18" height="43" fill="#c0392b"/>
    <rect x="151" y="179" width="18" height="13" fill="#241206"/>
    <animateTransform attributeName="transform" type="rotate" calcMode="discrete" values="-18.0 160 136;-5.9 160 136;5.9 160 136;18.0 160 136;5.9 160 136;-5.9 160 136" keyTimes="0.0000;0.1667;0.3333;0.5000;0.6667;0.8333" dur="1.2000000000000002s" repeatCount="indefinite" />
  </g>
</svg>