<svg xmlns="http://www.w3.org/2000/svg" width="256" height="208" viewBox="0 0 256 208">
  <title>Tiger - 3DPixelZodiac</title>
  <g transform="rotate(0 72 136)">
    <rect x="63" y="136" width="18" height="43" fill="#ea7c1e"/>
    <rect x="63" y="179" width="18" height="13" fill="#241206"/>
    <animateTransform attributeName="transform" type="rotate" calcMode="discrete" values="18.0 72 136;5.9 72 136;-5.9 72 136;-18.0 72 136;-5.9 72 136;5.9 72 136" keyTimes="0.0000;0.1667;0.3333;0.5000;0.6667;0.8333" dur="1.2000000000000002s" repeatCount="indefinite" />
  </g><rect x="160" y="8" width="8" height="8" fill="#241206"/><rect x="216" y="8" width="8" height="8" fill="#241206"/><rect x="152" y="16" width="8" height="8" fill="#241206"/><rect x="160" y="16" width="8" height="8" fill="#ea7c1e"/><rect x="168" y="16" width="8" height="8" fill="#241206"/><rect x="208" y="16" width="8" height="8" fill="#241206"/><rect x="216" y="16" width="8" height="8" fill="#ea7c1e"/><rect x="224" y="16" width="8" height="8" fill="#241206"/><rect x="152" y="24" width="8" height="8" fill="#241206"/><rect x="160" y="24" width="8" height="8" fill="#ea7c1e"/><rect x="168" y="24" width="16" height="8" fill="#241206"/><rect x="208" y="24" width="8" height="8" fill="#241206"/><rect x="216" y="24" width="8" height="8" fill="#ea7c1e"/><rect x="224" y="24" width="8" height="8" fill="#241206"/><rect x="152" y="32" width="8" height="8" fill="#241206"/><rect x="160" y="32" width="16" height="8" fill="#ea7c1e"/><rect x="176" y="32" width="8" height="8" fill="#221008"/><rect x="184" y="32" width="24" height="8" fill="#241206"/><rect x="208" y="32" width="16" height="8" fill="#ea7c1e"/><rect x="224" y="32" width="8" height="8" fill="#241206"/><rect x="152" y="40" width="8" height="8" fill="#241206"/><rect x="160" y="40" width="16" height="8" fill="#ea7c1e"/><rect x="176" y="40" width="8" height="8" fill="#221008"/><rect x="184" y="40" width="40" height="8" fill="#ea7c1e"/><rect x="224" y="40" width="8" height="8" fill="#241206"/><rect x="96" y="48" width="8" height="8" fill="#241206"/><rect x="152" y="48" width="8" height="8" fill="#241206"/><rect x="160" y="48" width="48" height="8" fill="#ea7c1e"/><rect x="208" y="48" width="16" height="8" fill="#241206"/><rect x="72" y="56" width="24" height="8" fill="#241206"/><rect x="96" y="56" width="8" height="8" fill="#221008"/><rect x="104" y="56" width="48" height="8" fill="#241206"/><rect x="152" y="56" width="64" height="8" fill="#ea7c1e"/><rect x="216" y="56" width="8" height="8" fill="#241206"/><rect x="56" y="64" width="16" height="8" fill="#241206"/><rect x="72" y="64" width="8" height="8" fill="#221008"/><rect x="80" y="64" width="16" height="8" fill="#ea7c1e"/><rect x="96" y="64" width="8" height="8" fill="#221008"/><rect x="104" y="64" width="24" height="8" fill="#ea7c1e"/><rect x="128" y="64" width="8" height="8" fill="#221008"/><rect x="136" y="64" width="56" height="8" fill="#ea7c1e"/><rect x="192" y="64" width="8" height="8" fill="#141116"/><rect x="200" y="64" width="24" height="8" fill="#ea7c1e"/><rect x="224" y="64" width="8" height="8" fill="#241206"/><rect x="8" y="72" width="8" height="8" fill="#241206"/><rect x="48" y="72" width="8" height="8" fill="#241206"/><rect x="56" y="72" width="16" height="8" fill="#ea7c1e"/><rect x="72" y="72" width="8" height="8" fill="#221008"/><rect x="80" y="72" width="48" height="8" fill="#ea7c1e"/><rect x="128" y="72" width="8" height="8" fill="#221008"/><rect x="136" y="72" width="16" height="8" fill="#ea7c1e"/><rect x="152" y="72" width="8" height="8" fill="#221008"/><rect x="160" y="72" width="72" height="8" fill="#ea7c1e"/><rect x="232" y="72" width="8" height="8" fill="#241206"/><rect x="0" y="80" width="8" height="8" fill="#241206"/><rect x="8" y="80" width="8" height="8" fill="#221008"/><rect x="16" y="80" width="32" height="8" fill="#241206"/><rect x="48" y="80" width="80" height="8" fill="#ea7c1e"/><rect x="128" y="80" width="8" height="8" fill="#221008"/><rect x="136" y="80" width="16" height="8" fill="#ea7c1e"/><rect x="152" y="80" width="8" height="8" fill="#221008"/><rect x="160" y="80" width="72" height="8" fill="#ea7c1e"/><rect x="232" y="80" width="8" height="8" fill="#241206"/><rect x="0" y="88" width="8" height="8" fill="#241206"/><rect x="8" y="88" width="8" height="8" fill="#221008"/><rect x="16" y="88" width="8" height="8" fill="#241206"/><rect x="24" y="88" width="184" height="8" fill="#ea7c1e"/><rect x="208" y="88" width="8" height="8" fill="#241206"/><rect x="216" y="88" width="8" height="8" fill="#ea7c1e"/><rect x="224" y="88" width="8" height="8" fill="#241206"/><rect x="8" y="96" width="8" height="8" fill="#241206"/><rect x="24" y="96" width="24" height="8" fill="#241206"/><rect x="48" y="96" width="24" height="8" fill="#ea7c1e"/><rect x="72" y="96" width="72" height="8" fill="#fff3df"/><rect x="144" y="96" width="56" height="8" fill="#ea7c1e"/><rect x="200" y="96" width="8" height="8" fill="#241206"/><rect x="216" y="96" width="8" height="8" fill="#241206"/><rect x="40" y="104" width="8" height="8" fill="#241206"/><rect x="48" y="104" width="16" height="8" fill="#ea7c1e"/><rect x="64" y="104" width="88" height="8" fill="#fff3df"/><rect x="152" y="104" width="24" height="8" fill="#ea7c1e"/><rect x="176" y="104" width="24" height="8" fill="#241206"/><rect x="48" y="112" width="8" height="8" fill="#241206"/><rect x="56" y="112" width="8" height="8" fill="#ea7c1e"/><rect x="64" y="112" width="88" height="8" fill="#fff3df"/><rect x="152" y="112" width="16" height="8" fill="#ea7c1e"/><rect x="168" y="112" width="8" height="8" fill="#241206"/><rect x="56" y="120" width="16" height="8" fill="#241206"/><rect x="72" y="120" width="72" height="8" fill="#fff3df"/><rect x="144" y="120" width="8" height="8" fill="#ea7c1e"/><rect x="152" y="120" width="16" height="8" fill="#241206"/><rect x="72" y="128" width="16" height="8" fill="#241206"/><rect x="88" y="128" width="40" height="8" fill="#fff3df"/><rect x="128" y="128" width="24" height="8" fill="#241206"/><rect x="88" y="136" width="40" height="8" fill="#241206"/><g transform="rotate(0 160 136)">
    <rect x="151" y="136" width="18" height="43" fill="#ea7c1e"/>
    <rect x="151" y="179" width="18" height="13" fill="#241206"/>
    <animateTransform attributeName="transform" type="rotate" calcMode="discrete" values="-18.0 160 136;-5.9 160 136;5.9 160 136;18.0 160 136;5.9 160 136;-5.9 160 136" keyTimes="0.0000;0.1667;0.3333;0.5000;0.6667;0.8333" dur="1.2000000000000002s" repeatCount="indefinite" />
  </g>
</svg>