<svg xmlns="http://www.w3.org/2000/svg" width="256" height="216" viewBox="0 0 256 216">
  <title>Monkey - 3DPixelZodiac</title>
  <g transform="rotate(0 152 170)">
    <rect x="144" y="170" width="16" height="11" fill="#8a5a3c"/>
    
    <rect x="144" y="181" width="16" height="9" fill="#241a10"/>
    <animateTransform attributeName="transform" type="rotate" calcMode="discrete" values="18.0 152 170;5.9 152 170;-5.9 152 170;-18.0 152 170;-5.9 152 170;5.9 152 170" keyTimes="0.0000;0.1667;0.3333;0.5000;0.6667;0.8333" dur="1.2000000000000002s" repeatCount="indefinite" />
  </g><rect x="116" y="20" width="24" height="4" fill="#241a10"/><rect x="108" y="24" width="8" height="4" fill="#241a10"/><rect x="116" y="24" width="24" height="4" fill="#8a5a3c"/><rect x="140" y="24" width="32" height="4" fill="#241a10"/><rect x="104" y="28" width="4" height="4" fill="#241a10"/><rect x="108" y="28" width="64" height="4" fill="#8a5a3c"/><rect x="172" y="28" width="4" height="4" fill="#241a10"/><rect x="76" y="32" width="16" height="4" fill="#241a10"/><rect x="100" y="32" width="4" height="4" fill="#241a10"/><rect x="104" y="32" width="72" height="4" fill="#8a5a3c"/><rect x="176" y="32" width="4" height="4" fill="#241a10"/><rect x="72" y="36" width="4" height="4" fill="#241a10"/><rect x="76" y="36" width="16" height="4" fill="#8a5a3c"/><rect x="92" y="36" width="8" height="4" fill="#241a10"/><rect x="100" y="36" width="80" height="4" fill="#8a5a3c"/><rect x="180" y="36" width="4" height="4" fill="#241a10"/><rect x="68" y="40" width="4" height="4" fill="#241a10"/><rect x="72" y="40" width="112" height="4" fill="#8a5a3c"/><rect x="184" y="40" width="4" height="4" fill="#241a10"/><rect x="64" y="44" width="4" height="4" fill="#241a10"/><rect x="68" y="44" width="16" height="4" fill="#8a5a3c"/><rect x="84" y="44" width="4" height="4" fill="#e8c9a0"/><rect x="88" y="44" width="80" height="4" fill="#8a5a3c"/><rect x="168" y="44" width="4" height="4" fill="#e8c9a0"/><rect x="172" y="44" width="16" height="4" fill="#8a5a3c"/><rect x="188" y="44" width="4" height="4" fill="#241a10"/><rect x="64" y="48" width="4" height="4" fill="#241a10"/><rect x="68" y="48" width="12" height="4" fill="#8a5a3c"/><rect x="80" y="48" width="12" height="4" fill="#e8c9a0"/><rect x="92" y="48" width="24" height="4" fill="#8a5a3c"/><rect x="116" y="48" width="24" height="4" fill="#e8c9a0"/><rect x="140" y="48" width="24" height="4" fill="#8a5a3c"/><rect x="164" y="48" width="12" height="4" fill="#e8c9a0"/><rect x="176" y="48" width="16" height="4" fill="#8a5a3c"/><rect x="192" y="48" width="4" height="4" fill="#241a10"/><rect x="64" y="52" width="4" height="4" fill="#241a10"/><rect x="68" y="52" width="8" height="4" fill="#8a5a3c"/><rect x="76" y="52" width="20" height="4" fill="#e8c9a0"/><rect x="96" y="52" width="16" height="4" fill="#8a5a3c"/><rect x="112" y="52" width="32" height="4" fill="#e8c9a0"/><rect x="144" y="52" width="16" height="4" fill="#8a5a3c"/><rect x="160" y="52" width="20" height="4" fill="#e8c9a0"/><rect x="180" y="52" width="12" height="4" fill="#8a5a3c"/><rect x="192" y="52" width="4" height="4" fill="#241a10"/><rect x="64" y="56" width="4" height="4" fill="#241a10"/><rect x="68" y="56" width="8" height="4" fill="#8a5a3c"/><rect x="76" y="56" width="20" height="4" fill="#e8c9a0"/><rect x="96" y="56" width="12" height="4" fill="#8a5a3c"/><rect x="108" y="56" width="8" height="4" fill="#e8c9a0"/><rect x="116" y="56" width="8" height="4" fill="#141116"/><rect x="124" y="56" width="16" height="4" fill="#e8c9a0"/><rect x="140" y="56" width="8" height="4" fill="#141116"/><rect x="148" y="56" width="12" height="4" fill="#8a5a3c"/><rect x="160" y="56" width="20" height="4" fill="#e8c9a0"/><rect x="180" y="56" width="12" height="4" fill="#8a5a3c"/><rect x="192" y="56" width="4" height="4" fill="#241a10"/><rect x="64" y="60" width="4" height="4" fill="#241a10"/><rect x="68" y="60" width="12" height="4" fill="#8a5a3c"/><rect x="80" y="60" width="12" height="4" fill="#e8c9a0"/><rect x="92" y="60" width="16" height="4" fill="#8a5a3c"/><rect x="108" y="60" width="8" height="4" fill="#e8c9a0"/><rect x="116" y="60" width="8" height="4" fill="#141116"/><rect x="124" y="60" width="16" height="4" fill="#e8c9a0"/><rect x="140" y="60" width="8" height="4" fill="#141116"/><rect x="148" y="60" width="16" height="4" fill="#8a5a3c"/><rect x="164" y="60" width="12" height="4" fill="#e8c9a0"/><rect x="176" y="60" width="16" height="4" fill="#8a5a3c"/><rect x="192" y="60" width="4" height="4" fill="#241a10"/><rect x="68" y="64" width="4" height="4" fill="#241a10"/><rect x="72" y="64" width="12" height="4" fill="#8a5a3c"/><rect x="84" y="64" width="4" height="4" fill="#e8c9a0"/><rect x="88" y="64" width="20" height="4" fill="#8a5a3c"/><rect x="108" y="64" width="40" height="4" fill="#e8c9a0"/><rect x="148" y="64" width="20" height="4" fill="#8a5a3c"/><rect x="168" y="64" width="4" height="4" fill="#e8c9a0"/><rect x="172" y="64" width="20" height="4" fill="#8a5a3c"/><rect x="192" y="64" width="4" height="4" fill="#241a10"/><rect x="72" y="68" width="4" height="4" fill="#241a10"/><rect x="76" y="68" width="32" height="4" fill="#8a5a3c"/><rect x="108" y="68" width="40" height="4" fill="#e8c9a0"/><rect x="148" y="68" width="44" height="4" fill="#8a5a3c"/><rect x="192" y="68" width="4" height="4" fill="#241a10"/><rect x="76" y="72" width="24" height="4" fill="#241a10"/><rect x="100" y="72" width="12" height="4" fill="#8a5a3c"/><rect x="112" y="72" width="32" height="4" fill="#e8c9a0"/><rect x="144" y="72" width="12" height="4" fill="#8a5a3c"/><rect x="156" y="72" width="16" height="4" fill="#241a10"/><rect x="172" y="72" width="20" height="4" fill="#8a5a3c"/><rect x="192" y="72" width="4" height="4" fill="#241a10"/><rect x="96" y="76" width="4" height="4" fill="#241a10"/><rect x="100" y="76" width="12" height="4" fill="#8a5a3c"/><rect x="112" y="76" width="32" height="4" fill="#e8c9a0"/><rect x="144" y="76" width="12" height="4" fill="#8a5a3c"/><rect x="156" y="76" width="4" height="4" fill="#241a10"/><rect x="168" y="76" width="4" height="4" fill="#241a10"/><rect x="172" y="76" width="20" height="4" fill="#8a5a3c"/><rect x="192" y="76" width="4" height="4" fill="#241a10"/><rect x="100" y="80" width="4" height="4" fill="#241a10"/><rect x="104" y="80" width="16" height="4" fill="#8a5a3c"/><rect x="120" y="80" width="16" height="4" fill="#e8c9a0"/><rect x="136" y="80" width="16" height="4" fill="#8a5a3c"/><rect x="152" y="80" width="4" height="4" fill="#241a10"/><rect x="164" y="80" width="4" height="4" fill="#241a10"/><rect x="168" y="80" width="20" height="4" fill="#8a5a3c"/><rect x="188" y="80" width="4" height="4" fill="#241a10"/><rect x="80" y="84" width="16" height="4" fill="#241a10"/><rect x="104" y="84" width="4" height="4" fill="#241a10"/><rect x="108" y="84" width="40" height="4" fill="#8a5a3c"/><rect x="148" y="84" width="4" height="4" fill="#241a10"/><rect x="160" y="84" width="4" height="4" fill="#241a10"/><rect x="164" y="84" width="24" height="4" fill="#8a5a3c"/><rect x="188" y="84" width="4" height="4" fill="#241a10"/><rect x="76" y="88" width="4" height="4" fill="#241a10"/><rect x="80" y="88" width="16" height="4" fill="#8a5a3c"/><rect x="96" y="88" width="8" height="4" fill="#241a10"/><rect x="104" y="88" width="48" height="4" fill="#8a5a3c"/><rect x="152" y="88" width="8" height="4" fill="#241a10"/><rect x="160" y="88" width="28" height="4" fill="#8a5a3c"/><rect x="188" y="88" width="4" height="4" fill="#241a10"/><rect x="76" y="92" width="4" height="4" fill="#241a10"/><rect x="80" y="92" width="16" height="4" fill="#8a5a3c"/><rect x="96" y="92" width="4" height="4" fill="#241a10"/><rect x="100" y="92" width="56" height="4" fill="#8a5a3c"/><rect x="156" y="92" width="4" height="4" fill="#241a10"/><rect x="160" y="92" width="24" height="4" fill="#8a5a3c"/><rect x="184" y="92" width="4" height="4" fill="#241a10"/><rect x="76" y="96" width="4" height="4" fill="#241a10"/><rect x="80" y="96" width="100" height="4" fill="#8a5a3c"/><rect x="180" y="96" width="4" height="4" fill="#241a10"/><rect x="76" y="100" width="4" height="4" fill="#241a10"/><rect x="80" y="100" width="100" height="4" fill="#8a5a3c"/><rect x="180" y="100" width="4" height="4" fill="#241a10"/><rect x="76" y="104" width="4" height="4" fill="#241a10"/><rect x="80" y="104" width="96" height="4" fill="#8a5a3c"/><rect x="176" y="104" width="4" height="4" fill="#241a10"/><rect x="76" y="108" width="4" height="4" fill="#241a10"/><rect x="80" y="108" width="96" height="4" fill="#8a5a3c"/><rect x="176" y="108" width="4" height="4" fill="#241a10"/><rect x="76" y="112" width="4" height="4" fill="#241a10"/><rect x="80" y="112" width="96" height="4" fill="#8a5a3c"/><rect x="176" y="112" width="4" height="4" fill="#241a10"/><rect x="76" y="116" width="4" height="4" fill="#241a10"/><rect x="80" y="116" width="40" height="4" fill="#8a5a3c"/><rect x="120" y="116" width="16" height="4" fill="#e8c9a0"/><rect x="136" y="116" width="40" height="4" fill="#8a5a3c"/><rect x="176" y="116" width="4" height="4" fill="#241a10"/><rect x="76" y="120" width="4" height="4" fill="#241a10"/><rect x="80" y="120" width="32" height="4" fill="#8a5a3c"/><rect x="112" y="120" width="32" height="4" fill="#e8c9a0"/><rect x="144" y="120" width="32" height="4" fill="#8a5a3c"/><rect x="176" y="120" width="4" height="4" fill="#241a10"/><rect x="76" y="124" width="4" height="4" fill="#241a10"/><rect x="80" y="124" width="28" height="4" fill="#8a5a3c"/><rect x="108" y="124" width="40" height="4" fill="#e8c9a0"/><rect x="148" y="124" width="28" height="4" fill="#8a5a3c"/><rect x="176" y="124" width="4" height="4" fill="#241a10"/><rect x="76" y="128" width="4" height="4" fill="#241a10"/><rect x="80" y="128" width="28" height="4" fill="#8a5a3c"/><rect x="108" y="128" width="40" height="4" fill="#e8c9a0"/><rect x="148" y="128" width="28" height="4" fill="#8a5a3c"/><rect x="176" y="128" width="4" height="4" fill="#241a10"/><rect x="76" y="132" width="4" height="4" fill="#241a10"/><rect x="80" y="132" width="24" height="4" fill="#8a5a3c"/><rect x="104" y="132" width="48" height="4" fill="#e8c9a0"/><rect x="152" y="132" width="24" height="4" fill="#8a5a3c"/><rect x="176" y="132" width="4" height="4" fill="#241a10"/><rect x="76" y="136" width="4" height="4" fill="#241a10"/><rect x="80" y="136" width="24" height="4" fill="#8a5a3c"/><rect x="104" y="136" width="48" height="4" fill="#e8c9a0"/><rect x="152" y="136" width="24" height="4" fill="#8a5a3c"/><rect x="176" y="136" width="4" height="4" fill="#241a10"/><rect x="76" y="140" width="4" height="4" fill="#241a10"/><rect x="80" y="140" width="24" height="4" fill="#8a5a3c"/><rect x="104" y="140" width="48" height="4" fill="#e8c9a0"/><rect x="152" y="140" width="24" height="4" fill="#8a5a3c"/><rect x="176" y="140" width="4" height="4" fill="#241a10"/><rect x="76" y="144" width="4" height="4" fill="#241a10"/><rect x="80" y="144" width="16" height="4" fill="#e8c9a0"/><rect x="96" y="144" width="8" height="4" fill="#8a5a3c"/><rect x="104" y="144" width="48" height="4" fill="#e8c9a0"/><rect x="152" y="144" width="8" height="4" fill="#8a5a3c"/><rect x="160" y="144" width="16" height="4" fill="#e8c9a0"/><rect x="176" y="144" width="4" height="4" fill="#241a10"/><rect x="72" y="148" width="4" height="4" fill="#241a10"/><rect x="76" y="148" width="20" height="4" fill="#e8c9a0"/><rect x="96" y="148" width="8" height="4" fill="#8a5a3c"/><rect x="104" y="148" width="48" height="4" fill="#e8c9a0"/><rect x="152" y="148" width="4" height="4" fill="#8a5a3c"/><rect x="156" y="148" width="24" height="4" fill="#e8c9a0"/><rect x="180" y="148" width="4" height="4" fill="#241a10"/><rect x="72" y="152" width="4" height="4" fill="#241a10"/><rect x="76" y="152" width="20" height="4" fill="#e8c9a0"/><rect x="96" y="152" width="8" height="4" fill="#8a5a3c"/><rect x="104" y="152" width="48" height="4" fill="#e8c9a0"/><rect x="152" y="152" width="4" height="4" fill="#8a5a3c"/><rect x="156" y="152" width="24" height="4" fill="#e8c9a0"/><rect x="180" y="152" width="4" height="4" fill="#241a10"/><rect x="72" y="156" width="4" height="4" fill="#241a10"/><rect x="76" y="156" width="20" height="4" fill="#e8c9a0"/><rect x="96" y="156" width="12" height="4" fill="#8a5a3c"/><rect x="108" y="156" width="40" height="4" fill="#e8c9a0"/><rect x="148" y="156" width="8" height="4" fill="#8a5a3c"/><rect x="156" y="156" width="24" height="4" fill="#e8c9a0"/><rect x="180" y="156" width="4" height="4" fill="#241a10"/><rect x="76" y="160" width="4" height="4" fill="#241a10"/><rect x="80" y="160" width="12" height="4" fill="#e8c9a0"/><rect x="92" y="160" width="8" height="4" fill="#241a10"/><rect x="100" y="160" width="8" height="4" fill="#8a5a3c"/><rect x="108" y="160" width="40" height="4" fill="#e8c9a0"/><rect x="148" y="160" width="8" height="4" fill="#8a5a3c"/><rect x="156" y="160" width="4" height="4" fill="#241a10"/><rect x="160" y="160" width="16" height="4" fill="#e8c9a0"/><rect x="176" y="160" width="4" height="4" fill="#241a10"/><rect x="80" y="164" width="12" height="4" fill="#241a10"/><rect x="100" y="164" width="4" height="4" fill="#241a10"/><rect x="104" y="164" width="8" height="4" fill="#8a5a3c"/><rect x="112" y="164" width="32" height="4" fill="#e8c9a0"/><rect x="144" y="164" width="8" height="4" fill="#8a5a3c"/><rect x="152" y="164" width="4" height="4" fill="#241a10"/><rect x="160" y="164" width="16" height="4" fill="#241a10"/><rect x="104" y="168" width="4" height="4" fill="#241a10"/><rect x="108" y="168" width="12" height="4" fill="#8a5a3c"/><rect x="120" y="168" width="16" height="4" fill="#e8c9a0"/><rect x="136" y="168" width="12" height="4" fill="#8a5a3c"/><rect x="148" y="168" width="4" height="4" fill="#241a10"/><rect x="108" y="172" width="8" height="4" fill="#241a10"/><rect x="116" y="172" width="24" height="4" fill="#8a5a3c"/><rect x="140" y="172" width="8" height="4" fill="#241a10"/><rect x="116" y="176" width="24" height="4" fill="#241a10"/><g transform="rotate(0 104 170)">
    <rect x="96" y="170" width="16" height="11" fill="#8a5a3c"/>
    
    <rect x="96" y="181" width="16" height="9" fill="#241a10"/>
    <animateTransform attributeName="transform" type="rotate" calcMode="discrete" values="-18.0 104 170;-5.9 104 170;5.9 104 170;18.0 104 170;5.9 104 170;-5.9 104 170" keyTimes="0.0000;0.1667;0.3333;0.5000;0.6667;0.8333" dur="1.2000000000000002s" repeatCount="indefinite" />
  </g>
</svg>