<svg xmlns="http://www.w3.org/2000/svg" width="304" height="176" viewBox="0 0 304 176">
  <title>Dragon - 3DPixelZodiac</title>
  <g>
    <rect x="176" y="4" width="16" height="4" fill="#2a1408"/><rect x="172" y="8" width="4" height="4" fill="#2a1408"/><rect x="176" y="8" width="16" height="4" fill="#fff6e3"/><rect x="192" y="8" width="4" height="4" fill="#2a1408"/><rect x="96" y="12" width="16" height="4" fill="#2a1408"/><rect x="172" y="12" width="4" height="4" fill="#2a1408"/><rect x="176" y="12" width="16" height="4" fill="#fff6e3"/><rect x="192" y="12" width="4" height="4" fill="#2a1408"/><rect x="92" y="16" width="4" height="4" fill="#2a1408"/><rect x="96" y="16" width="16" height="4" fill="#7b2f1d"/><rect x="112" y="16" width="4" height="4" fill="#2a1408"/><rect x="172" y="16" width="4" height="4" fill="#2a1408"/><rect x="176" y="16" width="16" height="4" fill="#fff6e3"/><rect x="192" y="16" width="4" height="4" fill="#2a1408"/><rect x="88" y="20" width="8" height="4" fill="#2a1408"/><rect x="96" y="20" width="16" height="4" fill="#7b2f1d"/><rect x="112" y="20" width="8" height="4" fill="#2a1408"/><rect x="168" y="20" width="8" height="4" fill="#2a1408"/><rect x="176" y="20" width="16" height="4" fill="#fff6e3"/><rect x="192" y="20" width="4" height="4" fill="#2a1408"/><rect x="84" y="24" width="4" height="4" fill="#2a1408"/><rect x="88" y="24" width="32" height="4" fill="#7b2f1d"/><rect x="120" y="24" width="4" height="4" fill="#2a1408"/><rect x="164" y="24" width="4" height="4" fill="#2a1408"/><rect x="168" y="24" width="24" height="4" fill="#f06b1b"/><rect x="192" y="24" width="4" height="4" fill="#2a1408"/><rect x="80" y="28" width="8" height="4" fill="#2a1408"/><rect x="88" y="28" width="32" height="4" fill="#7b2f1d"/><rect x="120" y="28" width="8" height="4" fill="#2a1408"/><rect x="160" y="28" width="8" height="4" fill="#2a1408"/><rect x="168" y="28" width="24" height="4" fill="#f06b1b"/><rect x="192" y="28" width="8" height="4" fill="#2a1408"/><rect x="76" y="32" width="4" height="4" fill="#2a1408"/><rect x="80" y="32" width="48" height="4" fill="#7b2f1d"/><rect x="128" y="32" width="4" height="4" fill="#2a1408"/><rect x="156" y="32" width="4" height="4" fill="#2a1408"/><rect x="160" y="32" width="40" height="4" fill="#f06b1b"/><rect x="200" y="32" width="4" height="4" fill="#2a1408"/><rect x="76" y="36" width="4" height="4" fill="#2a1408"/><rect x="80" y="36" width="48" height="4" fill="#7b2f1d"/><rect x="128" y="36" width="8" height="4" fill="#2a1408"/><rect x="152" y="36" width="8" height="4" fill="#2a1408"/><rect x="160" y="36" width="40" height="4" fill="#f06b1b"/><rect x="200" y="36" width="8" height="4" fill="#2a1408"/><rect x="76" y="40" width="4" height="4" fill="#2a1408"/><rect x="80" y="40" width="56" height="4" fill="#7b2f1d"/><rect x="136" y="40" width="4" height="4" fill="#2a1408"/><rect x="148" y="40" width="4" height="4" fill="#2a1408"/><rect x="152" y="40" width="32" height="4" fill="#f06b1b"/><rect x="184" y="40" width="8" height="4" fill="#141116"/><rect x="192" y="40" width="16" height="4" fill="#f06b1b"/><rect x="208" y="40" width="4" height="4" fill="#2a1408"/><rect x="76" y="44" width="4" height="4" fill="#2a1408"/><rect x="80" y="44" width="56" height="4" fill="#7b2f1d"/><rect x="136" y="44" width="4" height="4" fill="#2a1408"/><rect x="148" y="44" width="4" height="4" fill="#2a1408"/><rect x="152" y="44" width="32" height="4" fill="#f06b1b"/><rect x="184" y="44" width="8" height="4" fill="#141116"/><rect x="192" y="44" width="16" height="4" fill="#f06b1b"/><rect x="208" y="44" width="4" height="4" fill="#2a1408"/><rect x="76" y="48" width="4" height="4" fill="#2a1408"/><rect x="80" y="48" width="24" height="4" fill="#7b2f1d"/><rect x="104" y="48" width="16" height="4" fill="#ffd7a6"/><rect x="120" y="48" width="16" height="4" fill="#7b2f1d"/><rect x="136" y="48" width="4" height="4" fill="#2a1408"/><rect x="148" y="48" width="4" height="4" fill="#2a1408"/><rect x="152" y="48" width="56" height="4" fill="#f06b1b"/><rect x="208" y="48" width="4" height="4" fill="#2a1408"/><rect x="76" y="52" width="4" height="4" fill="#2a1408"/><rect x="80" y="52" width="24" height="4" fill="#7b2f1d"/><rect x="104" y="52" width="16" height="4" fill="#ffd7a6"/><rect x="120" y="52" width="16" height="4" fill="#7b2f1d"/><rect x="136" y="52" width="4" height="4" fill="#2a1408"/><rect x="144" y="52" width="8" height="4" fill="#2a1408"/><rect x="152" y="52" width="56" height="4" fill="#f06b1b"/><rect x="208" y="52" width="4" height="4" fill="#2a1408"/><rect x="76" y="56" width="4" height="4" fill="#2a1408"/><rect x="80" y="56" width="16" height="4" fill="#7b2f1d"/><rect x="96" y="56" width="24" height="4" fill="#ffd7a6"/><rect x="120" y="56" width="16" height="4" fill="#7b2f1d"/><rect x="136" y="56" width="8" height="4" fill="#2a1408"/><rect x="144" y="56" width="56" height="4" fill="#f06b1b"/><rect x="200" y="56" width="8" height="4" fill="#2a1408"/><rect x="76" y="60" width="4" height="4" fill="#2a1408"/><rect x="80" y="60" width="16" height="4" fill="#7b2f1d"/><rect x="96" y="60" width="24" height="4" fill="#ffd7a6"/><rect x="120" y="60" width="16" height="4" fill="#7b2f1d"/><rect x="136" y="60" width="8" height="4" fill="#2a1408"/><rect x="144" y="60" width="56" height="4" fill="#f06b1b"/><rect x="200" y="60" width="4" height="4" fill="#2a1408"/><rect x="80" y="64" width="8" height="4" fill="#2a1408"/><rect x="88" y="64" width="16" height="4" fill="#7b2f1d"/><rect x="104" y="64" width="16" height="4" fill="#ffd7a6"/><rect x="120" y="64" width="16" height="4" fill="#7b2f1d"/><rect x="136" y="64" width="8" height="4" fill="#2a1408"/><rect x="144" y="64" width="48" height="4" fill="#f06b1b"/><rect x="192" y="64" width="8" height="4" fill="#2a1408"/><rect x="84" y="68" width="4" height="4" fill="#2a1408"/><rect x="88" y="68" width="16" height="4" fill="#7b2f1d"/><rect x="104" y="68" width="16" height="4" fill="#ffd7a6"/><rect x="120" y="68" width="16" height="4" fill="#7b2f1d"/><rect x="136" y="68" width="8" height="4" fill="#2a1408"/><rect x="144" y="68" width="48" height="4" fill="#f06b1b"/><rect x="192" y="68" width="8" height="4" fill="#2a1408"/><rect x="88" y="72" width="8" height="4" fill="#2a1408"/><rect x="96" y="72" width="32" height="4" fill="#7b2f1d"/><rect x="128" y="72" width="8" height="4" fill="#2a1408"/><rect x="136" y="72" width="56" height="4" fill="#f06b1b"/><rect x="192" y="72" width="8" height="4" fill="#ffd7a6"/><rect x="200" y="72" width="4" height="4" fill="#2a1408"/><rect x="92" y="76" width="4" height="4" fill="#2a1408"/><rect x="96" y="76" width="32" height="4" fill="#7b2f1d"/><rect x="128" y="76" width="8" height="4" fill="#2a1408"/><rect x="136" y="76" width="56" height="4" fill="#f06b1b"/><rect x="192" y="76" width="8" height="4" fill="#ffd7a6"/><rect x="200" y="76" width="8" height="4" fill="#2a1408"/><rect x="96" y="80" width="16" height="4" fill="#2a1408"/><rect x="112" y="80" width="16" height="4" fill="#7b2f1d"/><rect x="128" y="80" width="64" height="4" fill="#f06b1b"/><rect x="192" y="80" width="16" height="4" fill="#ffd7a6"/><rect x="208" y="80" width="4" height="4" fill="#2a1408"/><rect x="108" y="84" width="4" height="4" fill="#2a1408"/><rect x="112" y="84" width="16" height="4" fill="#7b2f1d"/><rect x="128" y="84" width="64" height="4" fill="#f06b1b"/><rect x="192" y="84" width="16" height="4" fill="#ffd7a6"/><rect x="208" y="84" width="4" height="4" fill="#2a1408"/><rect x="112" y="88" width="8" height="4" fill="#2a1408"/><rect x="120" y="88" width="64" height="4" fill="#f06b1b"/><rect x="184" y="88" width="24" height="4" fill="#ffd7a6"/><rect x="208" y="88" width="4" height="4" fill="#2a1408"/><rect x="116" y="92" width="4" height="4" fill="#2a1408"/><rect x="120" y="92" width="64" height="4" fill="#f06b1b"/><rect x="184" y="92" width="24" height="4" fill="#ffd7a6"/><rect x="208" y="92" width="4" height="4" fill="#2a1408"/><rect x="116" y="96" width="4" height="4" fill="#2a1408"/><rect x="120" y="96" width="64" height="4" fill="#f06b1b"/><rect x="184" y="96" width="24" height="4" fill="#ffd7a6"/><rect x="208" y="96" width="4" height="4" fill="#2a1408"/><rect x="116" y="100" width="4" height="4" fill="#2a1408"/><rect x="120" y="100" width="64" height="4" fill="#f06b1b"/><rect x="184" y="100" width="24" height="4" fill="#ffd7a6"/><rect x="208" y="100" width="4" height="4" fill="#2a1408"/><rect x="116" y="104" width="4" height="4" fill="#2a1408"/><rect x="120" y="104" width="64" height="4" fill="#f06b1b"/><rect x="184" y="104" width="24" height="4" fill="#ffd7a6"/><rect x="208" y="104" width="4" height="4" fill="#2a1408"/><rect x="116" y="108" width="4" height="4" fill="#2a1408"/><rect x="120" y="108" width="64" height="4" fill="#f06b1b"/><rect x="184" y="108" width="24" height="4" fill="#ffd7a6"/><rect x="208" y="108" width="4" height="4" fill="#2a1408"/><rect x="116" y="112" width="4" height="4" fill="#2a1408"/><rect x="120" y="112" width="64" height="4" fill="#f06b1b"/><rect x="184" y="112" width="24" height="4" fill="#ffd7a6"/><rect x="208" y="112" width="4" height="4" fill="#2a1408"/><rect x="112" y="116" width="8" height="4" fill="#2a1408"/><rect x="120" y="116" width="64" height="4" fill="#f06b1b"/><rect x="184" y="116" width="24" height="4" fill="#ffd7a6"/><rect x="208" y="116" width="4" height="4" fill="#2a1408"/><rect x="108" y="120" width="4" height="4" fill="#2a1408"/><rect x="112" y="120" width="80" height="4" fill="#f06b1b"/><rect x="192" y="120" width="16" height="4" fill="#ffd7a6"/><rect x="208" y="120" width="4" height="4" fill="#2a1408"/><rect x="108" y="124" width="4" height="4" fill="#2a1408"/><rect x="112" y="124" width="80" height="4" fill="#f06b1b"/><rect x="192" y="124" width="16" height="4" fill="#ffd7a6"/><rect x="208" y="124" width="4" height="4" fill="#2a1408"/><rect x="108" y="128" width="4" height="4" fill="#2a1408"/><rect x="112" y="128" width="80" height="4" fill="#f06b1b"/><rect x="192" y="128" width="16" height="4" fill="#ffd7a6"/><rect x="208" y="128" width="4" height="4" fill="#2a1408"/><rect x="104" y="132" width="8" height="4" fill="#2a1408"/><rect x="112" y="132" width="80" height="4" fill="#f06b1b"/><rect x="192" y="132" width="16" height="4" fill="#ffd7a6"/><rect x="208" y="132" width="4" height="4" fill="#2a1408"/><rect x="100" y="136" width="4" height="4" fill="#2a1408"/><rect x="104" y="136" width="56" height="4" fill="#f06b1b"/><rect x="160" y="136" width="16" height="4" fill="#2a1408"/><rect x="176" y="136" width="32" height="4" fill="#f06b1b"/><rect x="208" y="136" width="4" height="4" fill="#2a1408"/><rect x="64" y="140" width="40" height="4" fill="#2a1408"/><rect x="104" y="140" width="56" height="4" fill="#f06b1b"/><rect x="160" y="140" width="4" height="4" fill="#2a1408"/><rect x="172" y="140" width="4" height="4" fill="#2a1408"/><rect x="176" y="140" width="32" height="4" fill="#f06b1b"/><rect x="208" y="140" width="4" height="4" fill="#2a1408"/><rect x="60" y="144" width="4" height="4" fill="#2a1408"/><rect x="64" y="144" width="80" height="4" fill="#f06b1b"/><rect x="144" y="144" width="16" height="4" fill="#2a1408"/><rect x="172" y="144" width="4" height="4" fill="#2a1408"/><rect x="176" y="144" width="32" height="4" fill="#f06b1b"/><rect x="208" y="144" width="4" height="4" fill="#2a1408"/><rect x="60" y="148" width="4" height="4" fill="#2a1408"/><rect x="64" y="148" width="80" height="4" fill="#f06b1b"/><rect x="144" y="148" width="4" height="4" fill="#2a1408"/><rect x="172" y="148" width="4" height="4" fill="#2a1408"/><rect x="176" y="148" width="32" height="4" fill="#f06b1b"/><rect x="208" y="148" width="4" height="4" fill="#2a1408"/><rect x="64" y="152" width="8" height="4" fill="#2a1408"/><rect x="72" y="152" width="48" height="4" fill="#f06b1b"/><rect x="120" y="152" width="24" height="4" fill="#2a1408"/><rect x="172" y="152" width="4" height="4" fill="#2a1408"/><rect x="176" y="152" width="24" height="4" fill="#f06b1b"/><rect x="200" y="152" width="8" height="4" fill="#2a1408"/><rect x="68" y="156" width="4" height="4" fill="#2a1408"/><rect x="72" y="156" width="48" height="4" fill="#f06b1b"/><rect x="120" y="156" width="4" height="4" fill="#2a1408"/><rect x="172" y="156" width="4" height="4" fill="#2a1408"/><rect x="176" y="156" width="24" height="4" fill="#f06b1b"/><rect x="200" y="156" width="4" height="4" fill="#2a1408"/><rect x="72" y="160" width="48" height="4" fill="#2a1408"/><rect x="176" y="160" width="24" height="4" fill="#2a1408"/>
    <animateTransform attributeName="transform" type="translate" calcMode="discrete" values="0 -6;0 -3;0 0;0 3;0 0;0 -3" keyTimes="0;0.1667;0.3333;0.5000;0.6667;0.8333" dur="1.2000000000000002s" repeatCount="indefinite"/>
  </g>
</svg>