<svg xmlns="http://www.w3.org/2000/svg" width="256" height="216" viewBox="0 0 256 216">
  <title>Dog - 3DPixelZodiac</title>
  <g transform="rotate(0 72 154)">
    <rect x="62" y="154" width="20" height="21" fill="#f1e8d8"/>
    
    <rect x="62" y="175" width="20" height="11" fill="#2a1a0c"/>
    <animateTransform attributeName="transform" type="rotate" calcMode="discrete" values="18.0 72 154;5.9 72 154;-5.9 72 154;-18.0 72 154;-5.9 72 154;5.9 72 154" keyTimes="0.0000;0.1667;0.3333;0.5000;0.6667;0.8333" dur="1.2000000000000002s" repeatCount="indefinite" />
  </g><rect x="32" y="52" width="12" height="4" fill="#2a1a0c"/><rect x="28" y="56" width="4" height="4" fill="#2a1a0c"/><rect x="32" y="56" width="12" height="4" fill="#ffffff"/><rect x="44" y="56" width="4" height="4" fill="#2a1a0c"/><rect x="168" y="56" width="32" height="4" fill="#2a1a0c"/><rect x="24" y="60" width="4" height="4" fill="#2a1a0c"/><rect x="28" y="60" width="16" height="4" fill="#ffffff"/><rect x="44" y="60" width="4" height="4" fill="#2a1a0c"/><rect x="164" y="60" width="4" height="4" fill="#2a1a0c"/><rect x="168" y="60" width="32" height="4" fill="#b5763d"/><rect x="200" y="60" width="4" height="4" fill="#2a1a0c"/><rect x="24" y="64" width="4" height="4" fill="#2a1a0c"/><rect x="28" y="64" width="4" height="4" fill="#b5763d"/><rect x="32" y="64" width="12" height="4" fill="#ffffff"/><rect x="44" y="64" width="4" height="4" fill="#2a1a0c"/><rect x="156" y="64" width="8" height="4" fill="#2a1a0c"/><rect x="164" y="64" width="40" height="4" fill="#b5763d"/><rect x="204" y="64" width="8" height="4" fill="#2a1a0c"/><rect x="20" y="68" width="4" height="4" fill="#2a1a0c"/><rect x="24" y="68" width="8" height="4" fill="#b5763d"/><rect x="32" y="68" width="12" height="4" fill="#ffffff"/><rect x="44" y="68" width="4" height="4" fill="#2a1a0c"/><rect x="152" y="68" width="4" height="4" fill="#2a1a0c"/><rect x="156" y="68" width="4" height="4" fill="#b5763d"/><rect x="160" y="68" width="12" height="4" fill="#7a4a24"/><rect x="172" y="68" width="40" height="4" fill="#b5763d"/><rect x="212" y="68" width="4" height="4" fill="#2a1a0c"/><rect x="20" y="72" width="4" height="4" fill="#2a1a0c"/><rect x="24" y="72" width="16" height="4" fill="#b5763d"/><rect x="40" y="72" width="4" height="4" fill="#2a1a0c"/><rect x="152" y="72" width="4" height="4" fill="#2a1a0c"/><rect x="156" y="72" width="20" height="4" fill="#7a4a24"/><rect x="176" y="72" width="36" height="4" fill="#b5763d"/><rect x="212" y="72" width="4" height="4" fill="#2a1a0c"/><rect x="20" y="76" width="4" height="4" fill="#2a1a0c"/><rect x="24" y="76" width="16" height="4" fill="#b5763d"/><rect x="40" y="76" width="4" height="4" fill="#2a1a0c"/><rect x="80" y="76" width="52" height="4" fill="#2a1a0c"/><rect x="148" y="76" width="4" height="4" fill="#2a1a0c"/><rect x="152" y="76" width="4" height="4" fill="#b5763d"/><rect x="156" y="76" width="12" height="4" fill="#7a4a24"/><rect x="168" y="76" width="4" height="4" fill="#9a6032"/><rect x="172" y="76" width="8" height="4" fill="#7a4a24"/><rect x="180" y="76" width="36" height="4" fill="#b5763d"/><rect x="216" y="76" width="4" height="4" fill="#2a1a0c"/><rect x="16" y="80" width="4" height="4" fill="#2a1a0c"/><rect x="20" y="80" width="20" height="4" fill="#b5763d"/><rect x="40" y="80" width="4" height="4" fill="#2a1a0c"/><rect x="68" y="80" width="12" height="4" fill="#2a1a0c"/><rect x="80" y="80" width="40" height="4" fill="#2a2018"/><rect x="120" y="80" width="12" height="4" fill="#f1e8d8"/><rect x="132" y="80" width="16" height="4" fill="#2a1a0c"/><rect x="148" y="80" width="4" height="4" fill="#b5763d"/><rect x="152" y="80" width="12" height="4" fill="#7a4a24"/><rect x="164" y="80" width="8" height="4" fill="#9a6032"/><rect x="172" y="80" width="8" height="4" fill="#7a4a24"/><rect x="180" y="80" width="40" height="4" fill="#b5763d"/><rect x="220" y="80" width="4" height="4" fill="#2a1a0c"/><rect x="16" y="84" width="4" height="4" fill="#2a1a0c"/><rect x="20" y="84" width="20" height="4" fill="#b5763d"/><rect x="40" y="84" width="4" height="4" fill="#2a1a0c"/><rect x="60" y="84" width="8" height="4" fill="#2a1a0c"/><rect x="68" y="84" width="64" height="4" fill="#2a2018"/><rect x="132" y="84" width="16" height="4" fill="#f1e8d8"/><rect x="148" y="84" width="4" height="4" fill="#b5763d"/><rect x="152" y="84" width="12" height="4" fill="#7a4a24"/><rect x="164" y="84" width="12" height="4" fill="#9a6032"/><rect x="176" y="84" width="4" height="4" fill="#7a4a24"/><rect x="180" y="84" width="40" height="4" fill="#b5763d"/><rect x="220" y="84" width="4" height="4" fill="#2a1a0c"/><rect x="16" y="88" width="4" height="4" fill="#2a1a0c"/><rect x="20" y="88" width="20" height="4" fill="#b5763d"/><rect x="40" y="88" width="4" height="4" fill="#2a1a0c"/><rect x="56" y="88" width="4" height="4" fill="#2a1a0c"/><rect x="60" y="88" width="80" height="4" fill="#2a2018"/><rect x="140" y="88" width="8" height="4" fill="#f1e8d8"/><rect x="148" y="88" width="4" height="4" fill="#b5763d"/><rect x="152" y="88" width="12" height="4" fill="#7a4a24"/><rect x="164" y="88" width="12" height="4" fill="#9a6032"/><rect x="176" y="88" width="4" height="4" fill="#7a4a24"/><rect x="180" y="88" width="40" height="4" fill="#b5763d"/><rect x="220" y="88" width="8" height="4" fill="#2a1a0c"/><rect x="16" y="92" width="4" height="4" fill="#2a1a0c"/><rect x="20" y="92" width="20" height="4" fill="#b5763d"/><rect x="40" y="92" width="4" height="4" fill="#2a1a0c"/><rect x="52" y="92" width="4" height="4" fill="#2a1a0c"/><rect x="56" y="92" width="88" height="4" fill="#2a2018"/><rect x="144" y="92" width="4" height="4" fill="#f1e8d8"/><rect x="148" y="92" width="4" height="4" fill="#b5763d"/><rect x="152" y="92" width="8" height="4" fill="#7a4a24"/><rect x="160" y="92" width="16" height="4" fill="#9a6032"/><rect x="176" y="92" width="8" height="4" fill="#7a4a24"/><rect x="184" y="92" width="8" height="4" fill="#b5763d"/><rect x="192" y="92" width="8" height="4" fill="#141116"/><rect x="200" y="92" width="12" height="4" fill="#b5763d"/><rect x="212" y="92" width="16" height="4" fill="#f1e8d8"/><rect x="228" y="92" width="8" height="4" fill="#2a1a0c"/><rect x="16" y="96" width="4" height="4" fill="#2a1a0c"/><rect x="20" y="96" width="24" height="4" fill="#b5763d"/><rect x="44" y="96" width="8" height="4" fill="#2a1a0c"/><rect x="52" y="96" width="96" height="4" fill="#2a2018"/><rect x="148" y="96" width="4" height="4" fill="#b5763d"/><rect x="152" y="96" width="8" height="4" fill="#7a4a24"/><rect x="160" y="96" width="16" height="4" fill="#9a6032"/><rect x="176" y="96" width="8" height="4" fill="#7a4a24"/><rect x="184" y="96" width="8" height="4" fill="#b5763d"/><rect x="192" y="96" width="8" height="4" fill="#141116"/><rect x="200" y="96" width="8" height="4" fill="#b5763d"/><rect x="208" y="96" width="20" height="4" fill="#f1e8d8"/><rect x="228" y="96" width="8" height="4" fill="#141116"/><rect x="236" y="96" width="4" height="4" fill="#2a1a0c"/><rect x="20" y="100" width="4" height="4" fill="#2a1a0c"/><rect x="24" y="100" width="20" height="4" fill="#b5763d"/><rect x="44" y="100" width="8" height="4" fill="#2a1a0c"/><rect x="52" y="100" width="96" height="4" fill="#2a2018"/><rect x="148" y="100" width="4" height="4" fill="#b5763d"/><rect x="152" y="100" width="8" height="4" fill="#7a4a24"/><rect x="160" y="100" width="16" height="4" fill="#9a6032"/><rect x="176" y="100" width="8" height="4" fill="#7a4a24"/><rect x="184" y="100" width="20" height="4" fill="#b5763d"/><rect x="204" y="100" width="20" height="4" fill="#f1e8d8"/><rect x="224" y="100" width="16" height="4" fill="#141116"/><rect x="240" y="100" width="4" height="4" fill="#2a1a0c"/><rect x="20" y="104" width="4" height="4" fill="#2a1a0c"/><rect x="24" y="104" width="24" height="4" fill="#b5763d"/><rect x="48" y="104" width="4" height="4" fill="#f1e8d8"/><rect x="52" y="104" width="96" height="4" fill="#2a2018"/><rect x="148" y="104" width="4" height="4" fill="#b5763d"/><rect x="152" y="104" width="12" height="4" fill="#7a4a24"/><rect x="164" y="104" width="12" height="4" fill="#9a6032"/><rect x="176" y="104" width="8" height="4" fill="#7a4a24"/><rect x="184" y="104" width="20" height="4" fill="#b5763d"/><rect x="204" y="104" width="20" height="4" fill="#f1e8d8"/><rect x="224" y="104" width="16" height="4" fill="#141116"/><rect x="240" y="104" width="4" height="4" fill="#2a1a0c"/><rect x="20" y="108" width="4" height="4" fill="#2a1a0c"/><rect x="24" y="108" width="24" height="4" fill="#b5763d"/><rect x="48" y="108" width="8" height="4" fill="#f1e8d8"/><rect x="56" y="108" width="88" height="4" fill="#2a2018"/><rect x="144" y="108" width="4" height="4" fill="#f1e8d8"/><rect x="148" y="108" width="4" height="4" fill="#b5763d"/><rect x="152" y="108" width="12" height="4" fill="#7a4a24"/><rect x="164" y="108" width="12" height="4" fill="#9a6032"/><rect x="176" y="108" width="4" height="4" fill="#7a4a24"/><rect x="180" y="108" width="28" height="4" fill="#b5763d"/><rect x="208" y="108" width="20" height="4" fill="#f1e8d8"/><rect x="228" y="108" width="8" height="4" fill="#141116"/><rect x="236" y="108" width="4" height="4" fill="#2a1a0c"/><rect x="20" y="112" width="4" height="4" fill="#2a1a0c"/><rect x="24" y="112" width="24" height="4" fill="#b5763d"/><rect x="48" y="112" width="16" height="4" fill="#f1e8d8"/><rect x="64" y="112" width="72" height="4" fill="#2a2018"/><rect x="136" y="112" width="16" height="4" fill="#f1e8d8"/><rect x="152" y="112" width="12" height="4" fill="#7a4a24"/><rect x="164" y="112" width="8" height="4" fill="#9a6032"/><rect x="172" y="112" width="8" height="4" fill="#7a4a24"/><rect x="180" y="112" width="32" height="4" fill="#b5763d"/><rect x="212" y="112" width="16" height="4" fill="#f1e8d8"/><rect x="228" y="112" width="8" height="4" fill="#2a1a0c"/><rect x="24" y="116" width="4" height="4" fill="#2a1a0c"/><rect x="28" y="116" width="20" height="4" fill="#b5763d"/><rect x="48" y="116" width="24" height="4" fill="#f1e8d8"/><rect x="72" y="116" width="56" height="4" fill="#2a2018"/><rect x="128" y="116" width="4" height="4" fill="#ffffff"/><rect x="132" y="116" width="20" height="4" fill="#f1e8d8"/><rect x="152" y="116" width="16" height="4" fill="#7a4a24"/><rect x="168" y="116" width="4" height="4" fill="#9a6032"/><rect x="172" y="116" width="8" height="4" fill="#7a4a24"/><rect x="180" y="116" width="32" height="4" fill="#b5763d"/><rect x="212" y="116" width="16" height="4" fill="#2a1a0c"/><rect x="28" y="120" width="4" height="4" fill="#2a1a0c"/><rect x="32" y="120" width="8" height="4" fill="#b5763d"/><rect x="40" y="120" width="4" height="4" fill="#2a1a0c"/><rect x="44" y="120" width="32" height="4" fill="#f1e8d8"/><rect x="76" y="120" width="64" height="4" fill="#ffffff"/><rect x="140" y="120" width="16" height="4" fill="#f1e8d8"/><rect x="156" y="120" width="20" height="4" fill="#7a4a24"/><rect x="176" y="120" width="36" height="4" fill="#b5763d"/><rect x="212" y="120" width="4" height="4" fill="#2a1a0c"/><rect x="32" y="124" width="12" height="4" fill="#2a1a0c"/><rect x="44" y="124" width="24" height="4" fill="#f1e8d8"/><rect x="68" y="124" width="80" height="4" fill="#ffffff"/><rect x="148" y="124" width="8" height="4" fill="#f1e8d8"/><rect x="156" y="124" width="20" height="4" fill="#7a4a24"/><rect x="176" y="124" width="28" height="4" fill="#b5763d"/><rect x="204" y="124" width="8" height="4" fill="#2a1a0c"/><rect x="44" y="128" width="4" height="4" fill="#2a1a0c"/><rect x="48" y="128" width="16" height="4" fill="#f1e8d8"/><rect x="64" y="128" width="88" height="4" fill="#ffffff"/><rect x="152" y="128" width="12" height="4" fill="#f1e8d8"/><rect x="164" y="128" width="8" height="4" fill="#7a4a24"/><rect x="172" y="128" width="28" height="4" fill="#b5763d"/><rect x="200" y="128" width="4" height="4" fill="#2a1a0c"/><rect x="44" y="132" width="4" height="4" fill="#2a1a0c"/><rect x="48" y="132" width="12" height="4" fill="#f1e8d8"/><rect x="60" y="132" width="96" height="4" fill="#ffffff"/><rect x="156" y="132" width="20" height="4" fill="#f1e8d8"/><rect x="176" y="132" width="24" height="4" fill="#2a1a0c"/><rect x="48" y="136" width="4" height="4" fill="#2a1a0c"/><rect x="52" y="136" width="8" height="4" fill="#f1e8d8"/><rect x="60" y="136" width="96" height="4" fill="#ffffff"/><rect x="156" y="136" width="16" height="4" fill="#f1e8d8"/><rect x="172" y="136" width="4" height="4" fill="#2a1a0c"/><rect x="52" y="140" width="4" height="4" fill="#2a1a0c"/><rect x="56" y="140" width="4" height="4" fill="#f1e8d8"/><rect x="60" y="140" width="96" height="4" fill="#ffffff"/><rect x="156" y="140" width="12" height="4" fill="#f1e8d8"/><rect x="168" y="140" width="4" height="4" fill="#2a1a0c"/><rect x="56" y="144" width="4" height="4" fill="#2a1a0c"/><rect x="60" y="144" width="96" height="4" fill="#ffffff"/><rect x="156" y="144" width="8" height="4" fill="#f1e8d8"/><rect x="164" y="144" width="4" height="4" fill="#2a1a0c"/><rect x="60" y="148" width="4" height="4" fill="#2a1a0c"/><rect x="64" y="148" width="88" height="4" fill="#ffffff"/><rect x="152" y="148" width="4" height="4" fill="#f1e8d8"/><rect x="156" y="148" width="8" height="4" fill="#2a1a0c"/><rect x="64" y="152" width="8" height="4" fill="#2a1a0c"/><rect x="72" y="152" width="72" height="4" fill="#ffffff"/><rect x="144" y="152" width="4" height="4" fill="#f1e8d8"/><rect x="148" y="152" width="8" height="4" fill="#2a1a0c"/><rect x="72" y="156" width="8" height="4" fill="#2a1a0c"/><rect x="80" y="156" width="56" height="4" fill="#ffffff"/><rect x="136" y="156" width="12" height="4" fill="#2a1a0c"/><rect x="80" y="160" width="12" height="4" fill="#2a1a0c"/><rect x="92" y="160" width="32" height="4" fill="#ffffff"/><rect x="124" y="160" width="12" height="4" fill="#2a1a0c"/><rect x="92" y="164" width="32" height="4" fill="#2a1a0c"/><g transform="rotate(0 160 154)">
    <rect x="150" y="154" width="20" height="21" fill="#f1e8d8"/>
    
    <rect x="150" y="175" width="20" height="11" fill="#2a1a0c"/>
    <animateTransform attributeName="transform" type="rotate" calcMode="discrete" values="-18.0 160 154;-5.9 160 154;5.9 160 154;18.0 160 154;5.9 160 154;-5.9 160 154" keyTimes="0.0000;0.1667;0.3333;0.5000;0.6667;0.8333" dur="1.2000000000000002s" repeatCount="indefinite" />
  </g>
</svg>