<svg xmlns="http://www.w3.org/2000/svg" width="256" height="216" viewBox="0 0 256 216">
  <title>Tiger - 3DPixelZodiac</title>
  <g transform="rotate(0 72 154)">
    <rect x="65" y="154" width="14" height="2" fill="#f0821e"/>
    <rect x="65" y="156" width="14" height="6" fill="#fff3df"/>
    <rect x="65" y="162" width="14" height="8" fill="#241206"/>
    <animateTransform attributeName="transform" type="rotate" calcMode="discrete" values="18.0 72 154;5.9 72 154;-5.9 72 154;-18.0 72 154;-5.9 72 154;5.9 72 154" keyTimes="0.0000;0.1667;0.3333;0.5000;0.6667;0.8333" dur="1.2000000000000002s" repeatCount="indefinite" />
  </g><rect x="200" y="40" width="8" height="4" fill="#241206"/><rect x="168" y="44" width="12" height="4" fill="#241206"/><rect x="196" y="44" width="4" height="4" fill="#241206"/><rect x="200" y="44" width="8" height="4" fill="#000000"/><rect x="208" y="44" width="4" height="4" fill="#241206"/><rect x="164" y="48" width="4" height="4" fill="#241206"/><rect x="168" y="48" width="4" height="4" fill="#f0821e"/><rect x="172" y="48" width="8" height="4" fill="#000000"/><rect x="180" y="48" width="4" height="4" fill="#241206"/><rect x="192" y="48" width="4" height="4" fill="#241206"/><rect x="196" y="48" width="12" height="4" fill="#f0821e"/><rect x="208" y="48" width="4" height="4" fill="#241206"/><rect x="164" y="52" width="4" height="4" fill="#241206"/><rect x="168" y="52" width="4" height="4" fill="#f0821e"/><rect x="172" y="52" width="8" height="4" fill="#fff3df"/><rect x="180" y="52" width="12" height="4" fill="#241206"/><rect x="192" y="52" width="4" height="4" fill="#000000"/><rect x="196" y="52" width="4" height="4" fill="#f0821e"/><rect x="200" y="52" width="8" height="4" fill="#fff3df"/><rect x="208" y="52" width="4" height="4" fill="#241206"/><rect x="164" y="56" width="4" height="4" fill="#241206"/><rect x="168" y="56" width="4" height="4" fill="#f0821e"/><rect x="172" y="56" width="8" height="4" fill="#fff3df"/><rect x="180" y="56" width="32" height="4" fill="#000000"/><rect x="212" y="56" width="4" height="4" fill="#241206"/><rect x="28" y="60" width="24" height="4" fill="#241206"/><rect x="168" y="60" width="8" height="4" fill="#241206"/><rect x="176" y="60" width="16" height="4" fill="#f0821e"/><rect x="192" y="60" width="4" height="4" fill="#000000"/><rect x="196" y="60" width="12" height="4" fill="#f0821e"/><rect x="208" y="60" width="8" height="4" fill="#241206"/><rect x="24" y="64" width="4" height="4" fill="#241206"/><rect x="28" y="64" width="12" height="4" fill="#f0821e"/><rect x="40" y="64" width="12" height="4" fill="#000000"/><rect x="52" y="64" width="4" height="4" fill="#241206"/><rect x="164" y="64" width="4" height="4" fill="#241206"/><rect x="168" y="64" width="12" height="4" fill="#f0821e"/><rect x="180" y="64" width="24" height="4" fill="#000000"/><rect x="204" y="64" width="12" height="4" fill="#f0821e"/><rect x="216" y="64" width="8" height="4" fill="#241206"/><rect x="20" y="68" width="4" height="4" fill="#241206"/><rect x="24" y="68" width="16" height="4" fill="#f0821e"/><rect x="40" y="68" width="12" height="4" fill="#000000"/><rect x="52" y="68" width="4" height="4" fill="#241206"/><rect x="160" y="68" width="4" height="4" fill="#241206"/><rect x="164" y="68" width="28" height="4" fill="#f0821e"/><rect x="192" y="68" width="4" height="4" fill="#000000"/><rect x="196" y="68" width="28" height="4" fill="#f0821e"/><rect x="224" y="68" width="4" height="4" fill="#241206"/><rect x="16" y="72" width="4" height="4" fill="#241206"/><rect x="20" y="72" width="20" height="4" fill="#f0821e"/><rect x="40" y="72" width="12" height="4" fill="#000000"/><rect x="52" y="72" width="4" height="4" fill="#241206"/><rect x="104" y="72" width="20" height="4" fill="#241206"/><rect x="156" y="72" width="4" height="4" fill="#241206"/><rect x="160" y="72" width="24" height="4" fill="#f0821e"/><rect x="184" y="72" width="20" height="4" fill="#000000"/><rect x="204" y="72" width="20" height="4" fill="#f0821e"/><rect x="224" y="72" width="4" height="4" fill="#241206"/><rect x="12" y="76" width="4" height="4" fill="#241206"/><rect x="16" y="76" width="28" height="4" fill="#f0821e"/><rect x="44" y="76" width="8" height="4" fill="#241206"/><rect x="84" y="76" width="20" height="4" fill="#241206"/><rect x="104" y="76" width="20" height="4" fill="#f0821e"/><rect x="124" y="76" width="20" height="4" fill="#241206"/><rect x="152" y="76" width="4" height="4" fill="#241206"/><rect x="156" y="76" width="36" height="4" fill="#f0821e"/><rect x="192" y="76" width="12" height="4" fill="#000000"/><rect x="204" y="76" width="24" height="4" fill="#f0821e"/><rect x="228" y="76" width="4" height="4" fill="#241206"/><rect x="12" y="80" width="4" height="4" fill="#241206"/><rect x="16" y="80" width="8" height="4" fill="#f0821e"/><rect x="24" y="80" width="8" height="4" fill="#000000"/><rect x="32" y="80" width="4" height="4" fill="#f0821e"/><rect x="36" y="80" width="8" height="4" fill="#241206"/><rect x="72" y="80" width="12" height="4" fill="#241206"/><rect x="84" y="80" width="60" height="4" fill="#f0821e"/><rect x="144" y="80" width="12" height="4" fill="#241206"/><rect x="156" y="80" width="76" height="4" fill="#f0821e"/><rect x="232" y="80" width="4" height="4" fill="#241206"/><rect x="12" y="84" width="4" height="4" fill="#241206"/><rect x="16" y="84" width="8" height="4" fill="#f0821e"/><rect x="24" y="84" width="8" height="4" fill="#000000"/><rect x="32" y="84" width="4" height="4" fill="#241206"/><rect x="64" y="84" width="8" height="4" fill="#241206"/><rect x="72" y="84" width="24" height="4" fill="#f0821e"/><rect x="96" y="84" width="12" height="4" fill="#000000"/><rect x="108" y="84" width="84" height="4" fill="#f0821e"/><rect x="192" y="84" width="8" height="4" fill="#fff3df"/><rect x="200" y="84" width="8" height="4" fill="#141116"/><rect x="208" y="84" width="24" height="4" fill="#f0821e"/><rect x="232" y="84" width="4" height="4" fill="#241206"/><rect x="12" y="88" width="4" height="4" fill="#241206"/><rect x="16" y="88" width="16" height="4" fill="#f0821e"/><rect x="32" y="88" width="4" height="4" fill="#241206"/><rect x="60" y="88" width="4" height="4" fill="#241206"/><rect x="64" y="88" width="8" height="4" fill="#f0821e"/><rect x="72" y="88" width="12" height="4" fill="#000000"/><rect x="84" y="88" width="12" height="4" fill="#f0821e"/><rect x="96" y="88" width="12" height="4" fill="#000000"/><rect x="108" y="88" width="12" height="4" fill="#f0821e"/><rect x="120" y="88" width="12" height="4" fill="#000000"/><rect x="132" y="88" width="60" height="4" fill="#f0821e"/><rect x="192" y="88" width="8" height="4" fill="#fff3df"/><rect x="200" y="88" width="8" height="4" fill="#141116"/><rect x="208" y="88" width="24" height="4" fill="#fff3df"/><rect x="232" y="88" width="4" height="4" fill="#241206"/><rect x="12" y="92" width="4" height="4" fill="#241206"/><rect x="16" y="92" width="20" height="4" fill="#f0821e"/><rect x="36" y="92" width="4" height="4" fill="#241206"/><rect x="52" y="92" width="8" height="4" fill="#241206"/><rect x="60" y="92" width="12" height="4" fill="#f0821e"/><rect x="72" y="92" width="12" height="4" fill="#000000"/><rect x="84" y="92" width="16" height="4" fill="#f0821e"/><rect x="100" y="92" width="12" height="4" fill="#000000"/><rect x="112" y="92" width="8" height="4" fill="#f0821e"/><rect x="120" y="92" width="12" height="4" fill="#000000"/><rect x="132" y="92" width="12" height="4" fill="#f0821e"/><rect x="144" y="92" width="12" height="4" fill="#000000"/><rect x="156" y="92" width="48" height="4" fill="#f0821e"/><rect x="204" y="92" width="32" height="4" fill="#fff3df"/><rect x="236" y="92" width="4" height="4" fill="#241206"/><rect x="12" y="96" width="4" height="4" fill="#241206"/><rect x="16" y="96" width="8" height="4" fill="#f0821e"/><rect x="24" y="96" width="8" height="4" fill="#000000"/><rect x="32" y="96" width="8" height="4" fill="#f0821e"/><rect x="40" y="96" width="4" height="4" fill="#241206"/><rect x="48" y="96" width="4" height="4" fill="#241206"/><rect x="52" y="96" width="24" height="4" fill="#f0821e"/><rect x="76" y="96" width="12" height="4" fill="#000000"/><rect x="88" y="96" width="12" height="4" fill="#f0821e"/><rect x="100" y="96" width="12" height="4" fill="#000000"/><rect x="112" y="96" width="16" height="4" fill="#f0821e"/><rect x="128" y="96" width="12" height="4" fill="#000000"/><rect x="140" y="96" width="4" height="4" fill="#f0821e"/><rect x="144" y="96" width="12" height="4" fill="#000000"/><rect x="156" y="96" width="44" height="4" fill="#f0821e"/><rect x="200" y="96" width="28" height="4" fill="#fff3df"/><rect x="228" y="96" width="8" height="4" fill="#000000"/><rect x="236" y="96" width="4" height="4" fill="#241206"/><rect x="16" y="100" width="4" height="4" fill="#241206"/><rect x="20" y="100" width="4" height="4" fill="#f0821e"/><rect x="24" y="100" width="8" height="4" fill="#000000"/><rect x="32" y="100" width="12" height="4" fill="#f0821e"/><rect x="44" y="100" width="8" height="4" fill="#241206"/><rect x="52" y="100" width="24" height="4" fill="#f0821e"/><rect x="76" y="100" width="12" height="4" fill="#000000"/><rect x="88" y="100" width="20" height="4" fill="#f0821e"/><rect x="108" y="100" width="8" height="4" fill="#000000"/><rect x="116" y="100" width="12" height="4" fill="#f0821e"/><rect x="128" y="100" width="12" height="4" fill="#000000"/><rect x="140" y="100" width="8" height="4" fill="#f0821e"/><rect x="148" y="100" width="8" height="4" fill="#000000"/><rect x="156" y="100" width="36" height="4" fill="#f0821e"/><rect x="192" y="100" width="36" height="4" fill="#fff3df"/><rect x="228" y="100" width="8" height="4" fill="#000000"/><rect x="236" y="100" width="4" height="4" fill="#241206"/><rect x="16" y="104" width="4" height="4" fill="#241206"/><rect x="20" y="104" width="60" height="4" fill="#f0821e"/><rect x="80" y="104" width="8" height="4" fill="#000000"/><rect x="88" y="104" width="20" height="4" fill="#f0821e"/><rect x="108" y="104" width="8" height="4" fill="#000000"/><rect x="116" y="104" width="16" height="4" fill="#f0821e"/><rect x="132" y="104" width="8" height="4" fill="#000000"/><rect x="140" y="104" width="8" height="4" fill="#f0821e"/><rect x="148" y="104" width="12" height="4" fill="#000000"/><rect x="160" y="104" width="28" height="4" fill="#f0821e"/><rect x="188" y="104" width="44" height="4" fill="#fff3df"/><rect x="232" y="104" width="8" height="4" fill="#000000"/><rect x="240" y="104" width="4" height="4" fill="#241206"/><rect x="20" y="108" width="4" height="4" fill="#241206"/><rect x="24" y="108" width="56" height="4" fill="#f0821e"/><rect x="80" y="108" width="8" height="4" fill="#000000"/><rect x="88" y="108" width="24" height="4" fill="#f0821e"/><rect x="112" y="108" width="8" height="4" fill="#000000"/><rect x="120" y="108" width="12" height="4" fill="#f0821e"/><rect x="132" y="108" width="8" height="4" fill="#000000"/><rect x="140" y="108" width="12" height="4" fill="#f0821e"/><rect x="152" y="108" width="8" height="4" fill="#000000"/><rect x="160" y="108" width="28" height="4" fill="#f0821e"/><rect x="188" y="108" width="44" height="4" fill="#fff3df"/><rect x="232" y="108" width="8" height="4" fill="#000000"/><rect x="240" y="108" width="4" height="4" fill="#241206"/><rect x="24" y="112" width="4" height="4" fill="#241206"/><rect x="28" y="112" width="60" height="4" fill="#f0821e"/><rect x="88" y="112" width="8" height="4" fill="#000000"/><rect x="96" y="112" width="16" height="4" fill="#f0821e"/><rect x="112" y="112" width="8" height="4" fill="#000000"/><rect x="120" y="112" width="16" height="4" fill="#f0821e"/><rect x="136" y="112" width="8" height="4" fill="#000000"/><rect x="144" y="112" width="44" height="4" fill="#f0821e"/><rect x="188" y="112" width="36" height="4" fill="#fff3df"/><rect x="224" y="112" width="16" height="4" fill="#241206"/><rect x="28" y="116" width="4" height="4" fill="#241206"/><rect x="32" y="116" width="56" height="4" fill="#f0821e"/><rect x="88" y="116" width="8" height="4" fill="#000000"/><rect x="96" y="116" width="40" height="4" fill="#f0821e"/><rect x="136" y="116" width="8" height="4" fill="#000000"/><rect x="144" y="116" width="48" height="4" fill="#f0821e"/><rect x="192" y="116" width="28" height="4" fill="#fff3df"/><rect x="220" y="116" width="4" height="4" fill="#241206"/><rect x="32" y="120" width="12" height="4" fill="#241206"/><rect x="44" y="120" width="156" height="4" fill="#f0821e"/><rect x="200" y="120" width="12" height="4" fill="#fff3df"/><rect x="212" y="120" width="8" height="4" fill="#241206"/><rect x="40" y="124" width="4" height="4" fill="#241206"/><rect x="44" y="124" width="40" height="4" fill="#f0821e"/><rect x="84" y="124" width="48" height="4" fill="#fff3df"/><rect x="132" y="124" width="52" height="4" fill="#f0821e"/><rect x="184" y="124" width="28" height="4" fill="#241206"/><rect x="44" y="128" width="4" height="4" fill="#241206"/><rect x="48" y="128" width="28" height="4" fill="#f0821e"/><rect x="76" y="128" width="64" height="4" fill="#fff3df"/><rect x="140" y="128" width="44" height="4" fill="#f0821e"/><rect x="184" y="128" width="4" height="4" fill="#241206"/><rect x="44" y="132" width="4" height="4" fill="#241206"/><rect x="48" y="132" width="24" height="4" fill="#f0821e"/><rect x="72" y="132" width="72" height="4" fill="#fff3df"/><rect x="144" y="132" width="36" height="4" fill="#f0821e"/><rect x="180" y="132" width="4" height="4" fill="#241206"/><rect x="48" y="136" width="4" height="4" fill="#241206"/><rect x="52" y="136" width="16" height="4" fill="#f0821e"/><rect x="68" y="136" width="76" height="4" fill="#fff3df"/><rect x="144" y="136" width="32" height="4" fill="#f0821e"/><rect x="176" y="136" width="4" height="4" fill="#241206"/><rect x="52" y="140" width="4" height="4" fill="#241206"/><rect x="56" y="140" width="12" height="4" fill="#f0821e"/><rect x="68" y="140" width="80" height="4" fill="#fff3df"/><rect x="148" y="140" width="24" height="4" fill="#f0821e"/><rect x="172" y="140" width="4" height="4" fill="#241206"/><rect x="56" y="144" width="4" height="4" fill="#241206"/><rect x="60" y="144" width="8" height="4" fill="#f0821e"/><rect x="68" y="144" width="76" height="4" fill="#fff3df"/><rect x="144" y="144" width="24" height="4" fill="#f0821e"/><rect x="168" y="144" width="4" height="4" fill="#241206"/><rect x="60" y="148" width="8" height="4" fill="#241206"/><rect x="68" y="148" width="4" height="4" fill="#f0821e"/><rect x="72" y="148" width="72" height="4" fill="#fff3df"/><rect x="144" y="148" width="16" height="4" fill="#f0821e"/><rect x="160" y="148" width="8" height="4" fill="#241206"/><rect x="68" y="152" width="8" height="4" fill="#241206"/><rect x="76" y="152" width="60" height="4" fill="#fff3df"/><rect x="136" y="152" width="16" height="4" fill="#f0821e"/><rect x="152" y="152" width="8" height="4" fill="#241206"/><rect x="76" y="156" width="12" height="4" fill="#241206"/><rect x="88" y="156" width="40" height="4" fill="#fff3df"/><rect x="128" y="156" width="12" height="4" fill="#f0821e"/><rect x="140" y="156" width="12" height="4" fill="#241206"/><rect x="88" y="160" width="52" height="4" fill="#241206"/><g transform="rotate(0 160 154)">
    <rect x="153" y="154" width="14" height="2" fill="#f0821e"/>
    <rect x="153" y="156" width="14" height="6" fill="#fff3df"/>
    <rect x="153" y="162" width="14" height="8" fill="#241206"/>
    <animateTransform attributeName="transform" type="rotate" calcMode="discrete" values="-18.0 160 154;-5.9 160 154;5.9 160 154;18.0 160 154;5.9 160 154;-5.9 160 154" keyTimes="0.0000;0.1667;0.3333;0.5000;0.6667;0.8333" dur="1.2000000000000002s" repeatCount="indefinite" />
  </g>
</svg>