<svg xmlns="http://www.w3.org/2000/svg" width="256" height="216" viewBox="0 0 256 216">
  <title>Ox - 3DPixelZodiac</title>
  <g transform="rotate(0 72 154)">
    <rect x="62" y="154" width="20" height="12" fill="#b86a31"/>
    <rect x="62" y="166" width="20" height="9" fill="#f1ece3"/>
    <rect x="62" y="175" width="20" height="11" fill="#241608"/>
    <animateTransform attributeName="transform" type="rotate" calcMode="discrete" values="18.0 72 154;5.9 72 154;-5.9 72 154;-18.0 72 154;-5.9 72 154;5.9 72 154" keyTimes="0.0000;0.1667;0.3333;0.5000;0.6667;0.8333" dur="1.2000000000000002s" repeatCount="indefinite" />
  </g><rect x="164" y="48" width="8" height="4" fill="#241608"/><rect x="216" y="48" width="8" height="4" fill="#241608"/><rect x="160" y="52" width="4" height="4" fill="#241608"/><rect x="164" y="52" width="8" height="4" fill="#e8e1d4"/><rect x="172" y="52" width="8" height="4" fill="#241608"/><rect x="204" y="52" width="12" height="4" fill="#241608"/><rect x="216" y="52" width="8" height="4" fill="#e8e1d4"/><rect x="224" y="52" width="4" height="4" fill="#241608"/><rect x="160" y="56" width="4" height="4" fill="#241608"/><rect x="164" y="56" width="16" height="4" fill="#e8e1d4"/><rect x="180" y="56" width="4" height="4" fill="#241608"/><rect x="200" y="56" width="4" height="4" fill="#241608"/><rect x="204" y="56" width="20" height="4" fill="#e8e1d4"/><rect x="224" y="56" width="4" height="4" fill="#241608"/><rect x="164" y="60" width="4" height="4" fill="#241608"/><rect x="168" y="60" width="12" height="4" fill="#e8e1d4"/><rect x="180" y="60" width="4" height="4" fill="#241608"/><rect x="196" y="60" width="8" height="4" fill="#241608"/><rect x="204" y="60" width="12" height="4" fill="#e8e1d4"/><rect x="216" y="60" width="8" height="4" fill="#241608"/><rect x="168" y="64" width="4" height="4" fill="#241608"/><rect x="172" y="64" width="12" height="4" fill="#e8e1d4"/><rect x="184" y="64" width="12" height="4" fill="#241608"/><rect x="196" y="64" width="12" height="4" fill="#e8e1d4"/><rect x="208" y="64" width="8" height="4" fill="#241608"/><rect x="168" y="68" width="4" height="4" fill="#241608"/><rect x="172" y="68" width="12" height="4" fill="#e8e1d4"/><rect x="184" y="68" width="4" height="4" fill="#241608"/><rect x="188" y="68" width="8" height="4" fill="#b86a31"/><rect x="196" y="68" width="12" height="4" fill="#e8e1d4"/><rect x="208" y="68" width="4" height="4" fill="#241608"/><rect x="84" y="72" width="52" height="4" fill="#241608"/><rect x="168" y="72" width="4" height="4" fill="#241608"/><rect x="172" y="72" width="12" height="4" fill="#b86a31"/><rect x="184" y="72" width="12" height="4" fill="#8a3e1f"/><rect x="196" y="72" width="16" height="4" fill="#b86a31"/><rect x="212" y="72" width="4" height="4" fill="#241608"/><rect x="80" y="76" width="4" height="4" fill="#241608"/><rect x="84" y="76" width="52" height="4" fill="#d58436"/><rect x="136" y="76" width="20" height="4" fill="#241608"/><rect x="164" y="76" width="4" height="4" fill="#241608"/><rect x="168" y="76" width="16" height="4" fill="#b86a31"/><rect x="184" y="76" width="12" height="4" fill="#8a3e1f"/><rect x="196" y="76" width="20" height="4" fill="#b86a31"/><rect x="216" y="76" width="4" height="4" fill="#241608"/><rect x="52" y="80" width="32" height="4" fill="#241608"/><rect x="84" y="80" width="72" height="4" fill="#d58436"/><rect x="156" y="80" width="8" height="4" fill="#241608"/><rect x="164" y="80" width="56" height="4" fill="#b86a31"/><rect x="220" y="80" width="4" height="4" fill="#241608"/><rect x="48" y="84" width="4" height="4" fill="#241608"/><rect x="52" y="84" width="84" height="4" fill="#b86a31"/><rect x="136" y="84" width="20" height="4" fill="#d58436"/><rect x="156" y="84" width="68" height="4" fill="#b86a31"/><rect x="224" y="84" width="4" height="4" fill="#241608"/><rect x="44" y="88" width="4" height="4" fill="#241608"/><rect x="48" y="88" width="176" height="4" fill="#b86a31"/><rect x="224" y="88" width="4" height="4" fill="#241608"/><rect x="40" y="92" width="4" height="4" fill="#241608"/><rect x="44" y="92" width="156" height="4" fill="#b86a31"/><rect x="200" y="92" width="8" height="4" fill="#141116"/><rect x="208" y="92" width="20" height="4" fill="#b86a31"/><rect x="228" y="92" width="4" height="4" fill="#241608"/><rect x="40" y="96" width="4" height="4" fill="#241608"/><rect x="44" y="96" width="156" height="4" fill="#b86a31"/><rect x="200" y="96" width="8" height="4" fill="#141116"/><rect x="208" y="96" width="20" height="4" fill="#b86a31"/><rect x="228" y="96" width="4" height="4" fill="#241608"/><rect x="16" y="100" width="8" height="4" fill="#241608"/><rect x="36" y="100" width="4" height="4" fill="#241608"/><rect x="40" y="100" width="188" height="4" fill="#b86a31"/><rect x="228" y="100" width="16" height="4" fill="#241608"/><rect x="12" y="104" width="4" height="4" fill="#241608"/><rect x="16" y="104" width="8" height="4" fill="#b86a31"/><rect x="24" y="104" width="4" height="4" fill="#241608"/><rect x="36" y="104" width="4" height="4" fill="#241608"/><rect x="40" y="104" width="176" height="4" fill="#b86a31"/><rect x="216" y="104" width="28" height="4" fill="#d8cec0"/><rect x="244" y="104" width="4" height="4" fill="#241608"/><rect x="12" y="108" width="4" height="4" fill="#241608"/><rect x="16" y="108" width="8" height="4" fill="#b86a31"/><rect x="24" y="108" width="4" height="4" fill="#241608"/><rect x="36" y="108" width="4" height="4" fill="#241608"/><rect x="40" y="108" width="176" height="4" fill="#b86a31"/><rect x="216" y="108" width="28" height="4" fill="#d8cec0"/><rect x="244" y="108" width="4" height="4" fill="#241608"/><rect x="12" y="112" width="4" height="4" fill="#241608"/><rect x="16" y="112" width="8" height="4" fill="#b86a31"/><rect x="24" y="112" width="4" height="4" fill="#241608"/><rect x="36" y="112" width="4" height="4" fill="#241608"/><rect x="40" y="112" width="116" height="4" fill="#b86a31"/><rect x="156" y="112" width="4" height="4" fill="#8a3e1f"/><rect x="160" y="112" width="56" height="4" fill="#b86a31"/><rect x="216" y="112" width="8" height="4" fill="#d8cec0"/><rect x="224" y="112" width="8" height="4" fill="#4b433c"/><rect x="232" y="112" width="4" height="4" fill="#d8cec0"/><rect x="236" y="112" width="8" height="4" fill="#4b433c"/><rect x="244" y="112" width="4" height="4" fill="#241608"/><rect x="12" y="116" width="4" height="4" fill="#241608"/><rect x="16" y="116" width="8" height="4" fill="#b86a31"/><rect x="24" y="116" width="4" height="4" fill="#241608"/><rect x="36" y="116" width="4" height="4" fill="#241608"/><rect x="40" y="116" width="116" height="4" fill="#b86a31"/><rect x="156" y="116" width="4" height="4" fill="#8a3e1f"/><rect x="160" y="116" width="56" height="4" fill="#b86a31"/><rect x="216" y="116" width="8" height="4" fill="#d8cec0"/><rect x="224" y="116" width="8" height="4" fill="#4b433c"/><rect x="232" y="116" width="4" height="4" fill="#d8cec0"/><rect x="236" y="116" width="8" height="4" fill="#4b433c"/><rect x="244" y="116" width="4" height="4" fill="#241608"/><rect x="12" y="120" width="4" height="4" fill="#241608"/><rect x="16" y="120" width="8" height="4" fill="#b86a31"/><rect x="24" y="120" width="4" height="4" fill="#241608"/><rect x="36" y="120" width="4" height="4" fill="#241608"/><rect x="40" y="120" width="116" height="4" fill="#b86a31"/><rect x="156" y="120" width="8" height="4" fill="#8a3e1f"/><rect x="164" y="120" width="52" height="4" fill="#b86a31"/><rect x="216" y="120" width="28" height="4" fill="#d8cec0"/><rect x="244" y="120" width="4" height="4" fill="#241608"/><rect x="12" y="124" width="4" height="4" fill="#241608"/><rect x="16" y="124" width="8" height="4" fill="#b86a31"/><rect x="24" y="124" width="4" height="4" fill="#241608"/><rect x="36" y="124" width="4" height="4" fill="#241608"/><rect x="40" y="124" width="116" height="4" fill="#b86a31"/><rect x="156" y="124" width="12" height="4" fill="#8a3e1f"/><rect x="168" y="124" width="48" height="4" fill="#b86a31"/><rect x="216" y="124" width="28" height="4" fill="#d8cec0"/><rect x="244" y="124" width="4" height="4" fill="#241608"/><rect x="12" y="128" width="4" height="4" fill="#241608"/><rect x="16" y="128" width="8" height="4" fill="#b86a31"/><rect x="24" y="128" width="4" height="4" fill="#241608"/><rect x="36" y="128" width="4" height="4" fill="#241608"/><rect x="40" y="128" width="116" height="4" fill="#b86a31"/><rect x="156" y="128" width="16" height="4" fill="#8a3e1f"/><rect x="172" y="128" width="40" height="4" fill="#b86a31"/><rect x="212" y="128" width="32" height="4" fill="#241608"/><rect x="12" y="132" width="4" height="4" fill="#241608"/><rect x="16" y="132" width="8" height="4" fill="#b86a31"/><rect x="24" y="132" width="4" height="4" fill="#241608"/><rect x="36" y="132" width="4" height="4" fill="#241608"/><rect x="40" y="132" width="116" height="4" fill="#b86a31"/><rect x="156" y="132" width="24" height="4" fill="#8a3e1f"/><rect x="180" y="132" width="28" height="4" fill="#b86a31"/><rect x="208" y="132" width="4" height="4" fill="#241608"/><rect x="12" y="136" width="4" height="4" fill="#241608"/><rect x="16" y="136" width="12" height="4" fill="#f2efe8"/><rect x="28" y="136" width="4" height="4" fill="#241608"/><rect x="40" y="136" width="4" height="4" fill="#241608"/><rect x="44" y="136" width="112" height="4" fill="#b86a31"/><rect x="156" y="136" width="24" height="4" fill="#8a3e1f"/><rect x="180" y="136" width="24" height="4" fill="#b86a31"/><rect x="204" y="136" width="4" height="4" fill="#241608"/><rect x="12" y="140" width="4" height="4" fill="#241608"/><rect x="16" y="140" width="12" height="4" fill="#f2efe8"/><rect x="28" y="140" width="4" height="4" fill="#241608"/><rect x="40" y="140" width="4" height="4" fill="#241608"/><rect x="44" y="140" width="64" height="4" fill="#b86a31"/><rect x="108" y="140" width="40" height="4" fill="#8a3e1f"/><rect x="148" y="140" width="8" height="4" fill="#b86a31"/><rect x="156" y="140" width="24" height="4" fill="#8a3e1f"/><rect x="180" y="140" width="24" height="4" fill="#b86a31"/><rect x="204" y="140" width="4" height="4" fill="#241608"/><rect x="12" y="144" width="4" height="4" fill="#241608"/><rect x="16" y="144" width="12" height="4" fill="#f2efe8"/><rect x="28" y="144" width="4" height="4" fill="#241608"/><rect x="44" y="144" width="4" height="4" fill="#241608"/><rect x="48" y="144" width="52" height="4" fill="#b86a31"/><rect x="100" y="144" width="80" height="4" fill="#8a3e1f"/><rect x="180" y="144" width="20" height="4" fill="#b86a31"/><rect x="200" y="144" width="4" height="4" fill="#241608"/><rect x="16" y="148" width="12" height="4" fill="#241608"/><rect x="48" y="148" width="4" height="4" fill="#241608"/><rect x="52" y="148" width="12" height="4" fill="#b86a31"/><rect x="64" y="148" width="32" height="4" fill="#241608"/><rect x="96" y="148" width="84" height="4" fill="#8a3e1f"/><rect x="180" y="148" width="16" height="4" fill="#b86a31"/><rect x="196" y="148" width="4" height="4" fill="#241608"/><rect x="52" y="152" width="12" height="4" fill="#241608"/><rect x="92" y="152" width="4" height="4" fill="#241608"/><rect x="96" y="152" width="68" height="4" fill="#8a3e1f"/><rect x="164" y="152" width="4" height="4" fill="#241608"/><rect x="168" y="152" width="12" height="4" fill="#8a3e1f"/><rect x="180" y="152" width="16" height="4" fill="#241608"/><rect x="92" y="156" width="4" height="4" fill="#241608"/><rect x="96" y="156" width="64" height="4" fill="#8a3e1f"/><rect x="160" y="156" width="8" height="4" fill="#241608"/><rect x="168" y="156" width="12" height="4" fill="#8a3e1f"/><rect x="180" y="156" width="4" height="4" fill="#241608"/><rect x="96" y="160" width="8" height="4" fill="#241608"/><rect x="104" y="160" width="48" height="4" fill="#8a3e1f"/><rect x="152" y="160" width="8" height="4" fill="#241608"/><rect x="164" y="160" width="4" height="4" fill="#241608"/><rect x="168" y="160" width="12" height="4" fill="#8a3e1f"/><rect x="180" y="160" width="4" height="4" fill="#241608"/><rect x="104" y="164" width="16" height="4" fill="#241608"/><rect x="120" y="164" width="16" height="4" fill="#8a3e1f"/><rect x="136" y="164" width="16" height="4" fill="#241608"/><rect x="168" y="164" width="12" height="4" fill="#241608"/><rect x="120" y="168" width="16" height="4" fill="#241608"/><g transform="rotate(0 160 154)">
    <rect x="150" y="154" width="20" height="12" fill="#b86a31"/>
    <rect x="150" y="166" width="20" height="9" fill="#f1ece3"/>
    <rect x="150" y="175" width="20" height="11" fill="#241608"/>
    <animateTransform attributeName="transform" type="rotate" calcMode="discrete" values="-18.0 160 154;-5.9 160 154;5.9 160 154;18.0 160 154;5.9 160 154;-5.9 160 154" keyTimes="0.0000;0.1667;0.3333;0.5000;0.6667;0.8333" dur="1.2000000000000002s" repeatCount="indefinite" />
  </g>
</svg>