<svg xmlns="http://www.w3.org/2000/svg" width="256" height="216" viewBox="0 0 256 216">
  <title>Tiger - 3DPixelZodiac</title>
  <g transform="rotate(0 72 154)">
    <rect x="62" y="154" width="20" height="12" fill="#f0821e"/>
    <rect x="62" y="166" width="20" height="9" fill="#fff3df"/>
    <rect x="62" y="175" width="20" height="11" fill="#241206"/>
    <animateTransform attributeName="transform" type="rotate" calcMode="discrete" values="18.0 72 154;5.9 72 154;-5.9 72 154;-18.0 72 154;-5.9 72 154;5.9 72 154" keyTimes="0.0000;0.1667;0.3333;0.5000;0.6667;0.8333" dur="1.2000000000000002s" repeatCount="indefinite" />
  </g><rect x="204" y="24" width="16" height="4" fill="#241206"/><rect x="152" y="28" width="16" height="4" fill="#241206"/><rect x="200" y="28" width="4" height="4" fill="#241206"/><rect x="204" y="28" width="16" height="4" fill="#000000"/><rect x="220" y="28" width="4" height="4" fill="#241206"/><rect x="228" y="28" width="4" height="4" fill="#241206"/><rect x="148" y="32" width="4" height="4" fill="#241206"/><rect x="152" y="32" width="16" height="4" fill="#000000"/><rect x="168" y="32" width="4" height="4" fill="#241206"/><rect x="200" y="32" width="4" height="4" fill="#241206"/><rect x="204" y="32" width="16" height="4" fill="#000000"/><rect x="220" y="32" width="8" height="4" fill="#241206"/><rect x="228" y="32" width="4" height="4" fill="#f0821e"/><rect x="232" y="32" width="4" height="4" fill="#241206"/><rect x="148" y="36" width="4" height="4" fill="#241206"/><rect x="152" y="36" width="16" height="4" fill="#000000"/><rect x="168" y="36" width="4" height="4" fill="#241206"/><rect x="200" y="36" width="4" height="4" fill="#241206"/><rect x="204" y="36" width="16" height="4" fill="#000000"/><rect x="220" y="36" width="8" height="4" fill="#241206"/><rect x="228" y="36" width="4" height="4" fill="#f0821e"/><rect x="232" y="36" width="4" height="4" fill="#241206"/><rect x="148" y="40" width="4" height="4" fill="#241206"/><rect x="152" y="40" width="16" height="4" fill="#000000"/><rect x="168" y="40" width="4" height="4" fill="#241206"/><rect x="200" y="40" width="4" height="4" fill="#241206"/><rect x="204" y="40" width="16" height="4" fill="#000000"/><rect x="220" y="40" width="8" height="4" fill="#241206"/><rect x="228" y="40" width="4" height="4" fill="#f0821e"/><rect x="232" y="40" width="4" height="4" fill="#241206"/><rect x="148" y="44" width="4" height="4" fill="#241206"/><rect x="152" y="44" width="16" height="4" fill="#000000"/><rect x="168" y="44" width="4" height="4" fill="#241206"/><rect x="204" y="44" width="20" height="4" fill="#241206"/><rect x="224" y="44" width="8" height="4" fill="#f0821e"/><rect x="232" y="44" width="4" height="4" fill="#241206"/><rect x="148" y="48" width="4" height="4" fill="#241206"/><rect x="152" y="48" width="12" height="4" fill="#f0821e"/><rect x="164" y="48" width="4" height="4" fill="#241206"/><rect x="216" y="48" width="4" height="4" fill="#241206"/><rect x="220" y="48" width="12" height="4" fill="#f0821e"/><rect x="232" y="48" width="4" height="4" fill="#241206"/><rect x="148" y="52" width="4" height="4" fill="#241206"/><rect x="152" y="52" width="12" height="4" fill="#f0821e"/><rect x="164" y="52" width="4" height="4" fill="#241206"/><rect x="216" y="52" width="4" height="4" fill="#241206"/><rect x="220" y="52" width="12" height="4" fill="#f0821e"/><rect x="232" y="52" width="4" height="4" fill="#241206"/><rect x="148" y="56" width="4" height="4" fill="#241206"/><rect x="152" y="56" width="16" height="4" fill="#f0821e"/><rect x="168" y="56" width="32" height="4" fill="#241206"/><rect x="212" y="56" width="4" height="4" fill="#241206"/><rect x="216" y="56" width="16" height="4" fill="#f0821e"/><rect x="232" y="56" width="4" height="4" fill="#241206"/><rect x="148" y="60" width="4" height="4" fill="#241206"/><rect x="152" y="60" width="48" height="4" fill="#f0821e"/><rect x="200" y="60" width="4" height="4" fill="#241206"/><rect x="212" y="60" width="4" height="4" fill="#241206"/><rect x="216" y="60" width="16" height="4" fill="#f0821e"/><rect x="232" y="60" width="4" height="4" fill="#241206"/><rect x="148" y="64" width="4" height="4" fill="#241206"/><rect x="152" y="64" width="52" height="4" fill="#f0821e"/><rect x="204" y="64" width="8" height="4" fill="#241206"/><rect x="212" y="64" width="20" height="4" fill="#f0821e"/><rect x="232" y="64" width="4" height="4" fill="#241206"/><rect x="148" y="68" width="4" height="4" fill="#241206"/><rect x="152" y="68" width="80" height="4" fill="#f0821e"/><rect x="232" y="68" width="4" height="4" fill="#241206"/><rect x="148" y="72" width="4" height="4" fill="#241206"/><rect x="152" y="72" width="24" height="4" fill="#f0821e"/><rect x="176" y="72" width="8" height="4" fill="#000000"/><rect x="184" y="72" width="16" height="4" fill="#f0821e"/><rect x="200" y="72" width="8" height="4" fill="#000000"/><rect x="208" y="72" width="24" height="4" fill="#f0821e"/><rect x="232" y="72" width="4" height="4" fill="#241206"/><rect x="88" y="76" width="44" height="4" fill="#241206"/><rect x="136" y="76" width="16" height="4" fill="#241206"/><rect x="152" y="76" width="24" height="4" fill="#f0821e"/><rect x="176" y="76" width="8" height="4" fill="#000000"/><rect x="184" y="76" width="16" height="4" fill="#f0821e"/><rect x="200" y="76" width="8" height="4" fill="#000000"/><rect x="208" y="76" width="24" height="4" fill="#f0821e"/><rect x="232" y="76" width="4" height="4" fill="#241206"/><rect x="76" y="80" width="12" height="4" fill="#241206"/><rect x="88" y="80" width="16" height="4" fill="#000000"/><rect x="104" y="80" width="28" height="4" fill="#f0821e"/><rect x="132" y="80" width="4" height="4" fill="#241206"/><rect x="136" y="80" width="16" height="4" fill="#000000"/><rect x="152" y="80" width="24" height="4" fill="#f0821e"/><rect x="176" y="80" width="8" height="4" fill="#000000"/><rect x="184" y="80" width="16" height="4" fill="#f0821e"/><rect x="200" y="80" width="8" height="4" fill="#000000"/><rect x="208" y="80" width="12" height="4" fill="#f0821e"/><rect x="220" y="80" width="12" height="4" fill="#241206"/><rect x="64" y="84" width="12" height="4" fill="#241206"/><rect x="76" y="84" width="12" height="4" fill="#f0821e"/><rect x="88" y="84" width="16" height="4" fill="#000000"/><rect x="104" y="84" width="32" height="4" fill="#f0821e"/><rect x="136" y="84" width="16" height="4" fill="#000000"/><rect x="152" y="84" width="24" height="4" fill="#f0821e"/><rect x="176" y="84" width="8" height="4" fill="#000000"/><rect x="184" y="84" width="16" height="4" fill="#f0821e"/><rect x="200" y="84" width="8" height="4" fill="#000000"/><rect x="208" y="84" width="12" height="4" fill="#f0821e"/><rect x="220" y="84" width="4" height="4" fill="#241206"/><rect x="60" y="88" width="4" height="4" fill="#241206"/><rect x="64" y="88" width="16" height="4" fill="#000000"/><rect x="80" y="88" width="8" height="4" fill="#f0821e"/><rect x="88" y="88" width="16" height="4" fill="#000000"/><rect x="104" y="88" width="8" height="4" fill="#f0821e"/><rect x="112" y="88" width="16" height="4" fill="#000000"/><rect x="128" y="88" width="8" height="4" fill="#f0821e"/><rect x="136" y="88" width="16" height="4" fill="#000000"/><rect x="152" y="88" width="8" height="4" fill="#f0821e"/><rect x="160" y="88" width="16" height="4" fill="#000000"/><rect x="176" y="88" width="48" height="4" fill="#f0821e"/><rect x="224" y="88" width="12" height="4" fill="#241206"/><rect x="8" y="92" width="12" height="4" fill="#241206"/><rect x="56" y="92" width="4" height="4" fill="#241206"/><rect x="60" y="92" width="4" height="4" fill="#f0821e"/><rect x="64" y="92" width="16" height="4" fill="#000000"/><rect x="80" y="92" width="8" height="4" fill="#f0821e"/><rect x="88" y="92" width="16" height="4" fill="#000000"/><rect x="104" y="92" width="8" height="4" fill="#f0821e"/><rect x="112" y="92" width="16" height="4" fill="#000000"/><rect x="128" y="92" width="8" height="4" fill="#f0821e"/><rect x="136" y="92" width="16" height="4" fill="#000000"/><rect x="152" y="92" width="8" height="4" fill="#f0821e"/><rect x="160" y="92" width="16" height="4" fill="#000000"/><rect x="176" y="92" width="16" height="4" fill="#f0821e"/><rect x="192" y="92" width="8" height="4" fill="#141116"/><rect x="200" y="92" width="36" height="4" fill="#f0821e"/><rect x="236" y="92" width="4" height="4" fill="#241206"/><rect x="4" y="96" width="4" height="4" fill="#241206"/><rect x="8" y="96" width="12" height="4" fill="#000000"/><rect x="20" y="96" width="4" height="4" fill="#241206"/><rect x="52" y="96" width="4" height="4" fill="#241206"/><rect x="56" y="96" width="8" height="4" fill="#f0821e"/><rect x="64" y="96" width="16" height="4" fill="#000000"/><rect x="80" y="96" width="8" height="4" fill="#f0821e"/><rect x="88" y="96" width="16" height="4" fill="#000000"/><rect x="104" y="96" width="8" height="4" fill="#f0821e"/><rect x="112" y="96" width="16" height="4" fill="#000000"/><rect x="128" y="96" width="8" height="4" fill="#f0821e"/><rect x="136" y="96" width="16" height="4" fill="#000000"/><rect x="152" y="96" width="8" height="4" fill="#f0821e"/><rect x="160" y="96" width="16" height="4" fill="#000000"/><rect x="176" y="96" width="16" height="4" fill="#f0821e"/><rect x="192" y="96" width="8" height="4" fill="#141116"/><rect x="200" y="96" width="36" height="4" fill="#f0821e"/><rect x="236" y="96" width="4" height="4" fill="#241206"/><rect x="4" y="100" width="4" height="4" fill="#241206"/><rect x="8" y="100" width="12" height="4" fill="#000000"/><rect x="20" y="100" width="32" height="4" fill="#241206"/><rect x="52" y="100" width="12" height="4" fill="#f0821e"/><rect x="64" y="100" width="16" height="4" fill="#000000"/><rect x="80" y="100" width="8" height="4" fill="#f0821e"/><rect x="88" y="100" width="16" height="4" fill="#000000"/><rect x="104" y="100" width="8" height="4" fill="#f0821e"/><rect x="112" y="100" width="16" height="4" fill="#000000"/><rect x="128" y="100" width="8" height="4" fill="#f0821e"/><rect x="136" y="100" width="16" height="4" fill="#000000"/><rect x="152" y="100" width="8" height="4" fill="#f0821e"/><rect x="160" y="100" width="16" height="4" fill="#000000"/><rect x="176" y="100" width="64" height="4" fill="#f0821e"/><rect x="240" y="100" width="4" height="4" fill="#241206"/><rect x="4" y="104" width="4" height="4" fill="#241206"/><rect x="8" y="104" width="12" height="4" fill="#000000"/><rect x="20" y="104" width="44" height="4" fill="#f0821e"/><rect x="64" y="104" width="16" height="4" fill="#000000"/><rect x="80" y="104" width="8" height="4" fill="#f0821e"/><rect x="88" y="104" width="16" height="4" fill="#000000"/><rect x="104" y="104" width="8" height="4" fill="#f0821e"/><rect x="112" y="104" width="16" height="4" fill="#000000"/><rect x="128" y="104" width="8" height="4" fill="#f0821e"/><rect x="136" y="104" width="16" height="4" fill="#000000"/><rect x="152" y="104" width="8" height="4" fill="#f0821e"/><rect x="160" y="104" width="16" height="4" fill="#000000"/><rect x="176" y="104" width="64" height="4" fill="#f0821e"/><rect x="240" y="104" width="4" height="4" fill="#241206"/><rect x="4" y="108" width="4" height="4" fill="#241206"/><rect x="8" y="108" width="12" height="4" fill="#000000"/><rect x="20" y="108" width="44" height="4" fill="#f0821e"/><rect x="64" y="108" width="16" height="4" fill="#000000"/><rect x="80" y="108" width="8" height="4" fill="#f0821e"/><rect x="88" y="108" width="16" height="4" fill="#000000"/><rect x="104" y="108" width="8" height="4" fill="#f0821e"/><rect x="112" y="108" width="16" height="4" fill="#000000"/><rect x="128" y="108" width="8" height="4" fill="#f0821e"/><rect x="136" y="108" width="16" height="4" fill="#000000"/><rect x="152" y="108" width="8" height="4" fill="#f0821e"/><rect x="160" y="108" width="16" height="4" fill="#000000"/><rect x="176" y="108" width="60" height="4" fill="#f0821e"/><rect x="236" y="108" width="4" height="4" fill="#241206"/><rect x="8" y="112" width="8" height="4" fill="#241206"/><rect x="16" y="112" width="96" height="4" fill="#f0821e"/><rect x="112" y="112" width="16" height="4" fill="#000000"/><rect x="128" y="112" width="108" height="4" fill="#f0821e"/><rect x="236" y="112" width="4" height="4" fill="#241206"/><rect x="16" y="116" width="28" height="4" fill="#241206"/><rect x="44" y="116" width="40" height="4" fill="#f0821e"/><rect x="84" y="116" width="28" height="4" fill="#fff3df"/><rect x="112" y="116" width="16" height="4" fill="#000000"/><rect x="128" y="116" width="4" height="4" fill="#fff3df"/><rect x="132" y="116" width="80" height="4" fill="#f0821e"/><rect x="212" y="116" width="4" height="4" fill="#241206"/><rect x="216" y="116" width="8" height="4" fill="#f0821e"/><rect x="224" y="116" width="12" height="4" fill="#241206"/><rect x="40" y="120" width="4" height="4" fill="#241206"/><rect x="44" y="120" width="32" height="4" fill="#f0821e"/><rect x="76" y="120" width="64" height="4" fill="#fff3df"/><rect x="140" y="120" width="72" height="4" fill="#f0821e"/><rect x="212" y="120" width="12" height="4" fill="#241206"/><rect x="40" y="124" width="4" height="4" fill="#241206"/><rect x="44" y="124" width="24" height="4" fill="#f0821e"/><rect x="68" y="124" width="80" height="4" fill="#fff3df"/><rect x="148" y="124" width="56" height="4" fill="#f0821e"/><rect x="204" y="124" width="8" height="4" fill="#241206"/><rect x="44" y="128" width="4" height="4" fill="#241206"/><rect x="48" y="128" width="16" height="4" fill="#f0821e"/><rect x="64" y="128" width="88" height="4" fill="#fff3df"/><rect x="152" y="128" width="48" height="4" fill="#f0821e"/><rect x="200" y="128" width="4" height="4" fill="#241206"/><rect x="44" y="132" width="4" height="4" fill="#241206"/><rect x="48" y="132" width="12" height="4" fill="#f0821e"/><rect x="60" y="132" width="96" height="4" fill="#fff3df"/><rect x="156" y="132" width="20" height="4" fill="#f0821e"/><rect x="176" y="132" width="24" height="4" fill="#241206"/><rect x="48" y="136" width="4" height="4" fill="#241206"/><rect x="52" y="136" width="8" height="4" fill="#f0821e"/><rect x="60" y="136" width="96" height="4" fill="#fff3df"/><rect x="156" y="136" width="16" height="4" fill="#f0821e"/><rect x="172" y="136" width="4" height="4" fill="#241206"/><rect x="52" y="140" width="4" height="4" fill="#241206"/><rect x="56" y="140" width="4" height="4" fill="#f0821e"/><rect x="60" y="140" width="96" height="4" fill="#fff3df"/><rect x="156" y="140" width="12" height="4" fill="#f0821e"/><rect x="168" y="140" width="4" height="4" fill="#241206"/><rect x="56" y="144" width="4" height="4" fill="#241206"/><rect x="60" y="144" width="96" height="4" fill="#fff3df"/><rect x="156" y="144" width="8" height="4" fill="#f0821e"/><rect x="164" y="144" width="4" height="4" fill="#241206"/><rect x="60" y="148" width="4" height="4" fill="#241206"/><rect x="64" y="148" width="88" height="4" fill="#fff3df"/><rect x="152" y="148" width="4" height="4" fill="#f0821e"/><rect x="156" y="148" width="8" height="4" fill="#241206"/><rect x="64" y="152" width="8" height="4" fill="#241206"/><rect x="72" y="152" width="72" height="4" fill="#fff3df"/><rect x="144" y="152" width="4" height="4" fill="#f0821e"/><rect x="148" y="152" width="8" height="4" fill="#241206"/><rect x="72" y="156" width="8" height="4" fill="#241206"/><rect x="80" y="156" width="56" height="4" fill="#fff3df"/><rect x="136" y="156" width="12" height="4" fill="#241206"/><rect x="80" y="160" width="12" height="4" fill="#241206"/><rect x="92" y="160" width="32" height="4" fill="#fff3df"/><rect x="124" y="160" width="12" height="4" fill="#241206"/><rect x="92" y="164" width="32" height="4" fill="#241206"/><g transform="rotate(0 160 154)">
    <rect x="150" y="154" width="20" height="12" fill="#f0821e"/>
    <rect x="150" y="166" width="20" height="9" fill="#fff3df"/>
    <rect x="150" y="175" width="20" height="11" fill="#241206"/>
    <animateTransform attributeName="transform" type="rotate" calcMode="discrete" values="-18.0 160 154;-5.9 160 154;5.9 160 154;18.0 160 154;5.9 160 154;-5.9 160 154" keyTimes="0.0000;0.1667;0.3333;0.5000;0.6667;0.8333" dur="1.2000000000000002s" repeatCount="indefinite" />
  </g>
</svg>