<svg xmlns="http://www.w3.org/2000/svg" width="256" height="216" viewBox="0 0 256 216">
  <title>Horse - 3DPixelZodiac</title>
  <g transform="rotate(0 72 162)">
    <rect x="66" y="162" width="12" height="18" fill="#b06a35"/>
    <rect x="66" y="180" width="12" height="5" fill="#241608"/>
    <rect x="66" y="185" width="12" height="7" fill="#241608"/>
    <animateTransform attributeName="transform" type="rotate" calcMode="discrete" values="18.0 72 162;5.9 72 162;-5.9 72 162;-18.0 72 162;-5.9 72 162;5.9 72 162" keyTimes="0.0000;0.1667;0.3333;0.5000;0.6667;0.8333" dur="1.2000000000000002s" repeatCount="indefinite" />
  </g><rect x="172" y="40" width="12" height="4" fill="#241608"/><rect x="200" y="40" width="12" height="4" fill="#241608"/><rect x="168" y="44" width="4" height="4" fill="#241608"/><rect x="172" y="44" width="12" height="4" fill="#b06a35"/><rect x="184" y="44" width="4" height="4" fill="#241608"/><rect x="196" y="44" width="4" height="4" fill="#241608"/><rect x="200" y="44" width="12" height="4" fill="#b06a35"/><rect x="212" y="44" width="4" height="4" fill="#241608"/><rect x="168" y="48" width="4" height="4" fill="#241608"/><rect x="172" y="48" width="12" height="4" fill="#b06a35"/><rect x="184" y="48" width="4" height="4" fill="#241608"/><rect x="196" y="48" width="4" height="4" fill="#241608"/><rect x="200" y="48" width="12" height="4" fill="#b06a35"/><rect x="212" y="48" width="4" height="4" fill="#241608"/><rect x="160" y="52" width="12" height="4" fill="#241608"/><rect x="172" y="52" width="12" height="4" fill="#b06a35"/><rect x="184" y="52" width="4" height="4" fill="#241608"/><rect x="196" y="52" width="4" height="4" fill="#241608"/><rect x="200" y="52" width="12" height="4" fill="#b06a35"/><rect x="212" y="52" width="4" height="4" fill="#241608"/><rect x="156" y="56" width="4" height="4" fill="#241608"/><rect x="160" y="56" width="20" height="4" fill="#3b2412"/><rect x="180" y="56" width="4" height="4" fill="#b06a35"/><rect x="184" y="56" width="16" height="4" fill="#241608"/><rect x="200" y="56" width="12" height="4" fill="#b06a35"/><rect x="212" y="56" width="4" height="4" fill="#241608"/><rect x="156" y="60" width="4" height="4" fill="#241608"/><rect x="160" y="60" width="20" height="4" fill="#3b2412"/><rect x="180" y="60" width="32" height="4" fill="#b06a35"/><rect x="212" y="60" width="4" height="4" fill="#241608"/><rect x="148" y="64" width="20" height="4" fill="#241608"/><rect x="168" y="64" width="48" height="4" fill="#b06a35"/><rect x="216" y="64" width="4" height="4" fill="#241608"/><rect x="144" y="68" width="4" height="4" fill="#241608"/><rect x="148" y="68" width="12" height="4" fill="#3b2412"/><rect x="160" y="68" width="4" height="4" fill="#241608"/><rect x="164" y="68" width="56" height="4" fill="#b06a35"/><rect x="220" y="68" width="4" height="4" fill="#241608"/><rect x="144" y="72" width="4" height="4" fill="#241608"/><rect x="148" y="72" width="12" height="4" fill="#3b2412"/><rect x="160" y="72" width="64" height="4" fill="#b06a35"/><rect x="224" y="72" width="4" height="4" fill="#241608"/><rect x="104" y="76" width="20" height="4" fill="#241608"/><rect x="144" y="76" width="4" height="4" fill="#241608"/><rect x="148" y="76" width="12" height="4" fill="#3b2412"/><rect x="160" y="76" width="68" height="4" fill="#b06a35"/><rect x="228" y="76" width="4" height="4" fill="#241608"/><rect x="80" y="80" width="24" height="4" fill="#241608"/><rect x="104" y="80" width="20" height="4" fill="#b06a35"/><rect x="124" y="80" width="24" height="4" fill="#241608"/><rect x="148" y="80" width="12" height="4" fill="#3b2412"/><rect x="160" y="80" width="68" height="4" fill="#b06a35"/><rect x="228" y="80" width="4" height="4" fill="#241608"/><rect x="72" y="84" width="8" height="4" fill="#241608"/><rect x="80" y="84" width="68" height="4" fill="#b06a35"/><rect x="148" y="84" width="12" height="4" fill="#3b2412"/><rect x="160" y="84" width="40" height="4" fill="#b06a35"/><rect x="200" y="84" width="8" height="4" fill="#141116"/><rect x="208" y="84" width="20" height="4" fill="#b06a35"/><rect x="228" y="84" width="4" height="4" fill="#241608"/><rect x="60" y="88" width="12" height="4" fill="#241608"/><rect x="72" y="88" width="76" height="4" fill="#b06a35"/><rect x="148" y="88" width="12" height="4" fill="#3b2412"/><rect x="160" y="88" width="40" height="4" fill="#b06a35"/><rect x="200" y="88" width="8" height="4" fill="#141116"/><rect x="208" y="88" width="20" height="4" fill="#b06a35"/><rect x="228" y="88" width="20" height="4" fill="#241608"/><rect x="56" y="92" width="4" height="4" fill="#241608"/><rect x="60" y="92" width="88" height="4" fill="#b06a35"/><rect x="148" y="92" width="12" height="4" fill="#3b2412"/><rect x="160" y="92" width="88" height="4" fill="#b06a35"/><rect x="248" y="92" width="4" height="4" fill="#241608"/><rect x="24" y="96" width="12" height="4" fill="#241608"/><rect x="52" y="96" width="4" height="4" fill="#241608"/><rect x="56" y="96" width="92" height="4" fill="#b06a35"/><rect x="148" y="96" width="12" height="4" fill="#3b2412"/><rect x="160" y="96" width="88" height="4" fill="#b06a35"/><rect x="248" y="96" width="4" height="4" fill="#241608"/><rect x="20" y="100" width="4" height="4" fill="#241608"/><rect x="24" y="100" width="12" height="4" fill="#3b2412"/><rect x="36" y="100" width="4" height="4" fill="#241608"/><rect x="48" y="100" width="4" height="4" fill="#241608"/><rect x="52" y="100" width="96" height="4" fill="#b06a35"/><rect x="148" y="100" width="12" height="4" fill="#3b2412"/><rect x="160" y="100" width="88" height="4" fill="#b06a35"/><rect x="248" y="100" width="4" height="4" fill="#241608"/><rect x="20" y="104" width="4" height="4" fill="#241608"/><rect x="24" y="104" width="12" height="4" fill="#3b2412"/><rect x="36" y="104" width="4" height="4" fill="#241608"/><rect x="44" y="104" width="4" height="4" fill="#241608"/><rect x="48" y="104" width="100" height="4" fill="#b06a35"/><rect x="148" y="104" width="12" height="4" fill="#3b2412"/><rect x="160" y="104" width="88" height="4" fill="#b06a35"/><rect x="248" y="104" width="4" height="4" fill="#241608"/><rect x="20" y="108" width="4" height="4" fill="#241608"/><rect x="24" y="108" width="12" height="4" fill="#3b2412"/><rect x="36" y="108" width="8" height="4" fill="#241608"/><rect x="44" y="108" width="104" height="4" fill="#b06a35"/><rect x="148" y="108" width="12" height="4" fill="#3b2412"/><rect x="160" y="108" width="72" height="4" fill="#b06a35"/><rect x="232" y="108" width="20" height="4" fill="#e8c79a"/><rect x="252" y="108" width="4" height="4" fill="#241608"/><rect x="20" y="112" width="4" height="4" fill="#241608"/><rect x="24" y="112" width="12" height="4" fill="#3b2412"/><rect x="36" y="112" width="8" height="4" fill="#241608"/><rect x="44" y="112" width="104" height="4" fill="#b06a35"/><rect x="148" y="112" width="12" height="4" fill="#3b2412"/><rect x="160" y="112" width="60" height="4" fill="#b06a35"/><rect x="220" y="112" width="12" height="4" fill="#241608"/><rect x="232" y="112" width="12" height="4" fill="#e8c79a"/><rect x="244" y="112" width="8" height="4" fill="#3b2412"/><rect x="252" y="112" width="4" height="4" fill="#241608"/><rect x="20" y="116" width="4" height="4" fill="#241608"/><rect x="24" y="116" width="12" height="4" fill="#3b2412"/><rect x="36" y="116" width="4" height="4" fill="#241608"/><rect x="40" y="116" width="172" height="4" fill="#b06a35"/><rect x="212" y="116" width="8" height="4" fill="#241608"/><rect x="232" y="116" width="12" height="4" fill="#241608"/><rect x="244" y="116" width="8" height="4" fill="#3b2412"/><rect x="252" y="116" width="4" height="4" fill="#241608"/><rect x="20" y="120" width="4" height="4" fill="#241608"/><rect x="24" y="120" width="12" height="4" fill="#3b2412"/><rect x="36" y="120" width="4" height="4" fill="#241608"/><rect x="40" y="120" width="164" height="4" fill="#b06a35"/><rect x="204" y="120" width="8" height="4" fill="#241608"/><rect x="244" y="120" width="8" height="4" fill="#241608"/><rect x="20" y="124" width="4" height="4" fill="#241608"/><rect x="24" y="124" width="12" height="4" fill="#3b2412"/><rect x="36" y="124" width="4" height="4" fill="#241608"/><rect x="40" y="124" width="56" height="4" fill="#b06a35"/><rect x="96" y="124" width="44" height="4" fill="#e8c79a"/><rect x="140" y="124" width="48" height="4" fill="#b06a35"/><rect x="188" y="124" width="16" height="4" fill="#241608"/><rect x="20" y="128" width="4" height="4" fill="#241608"/><rect x="24" y="128" width="12" height="4" fill="#3b2412"/><rect x="36" y="128" width="4" height="4" fill="#241608"/><rect x="40" y="128" width="48" height="4" fill="#b06a35"/><rect x="88" y="128" width="60" height="4" fill="#e8c79a"/><rect x="148" y="128" width="40" height="4" fill="#b06a35"/><rect x="188" y="128" width="4" height="4" fill="#241608"/><rect x="20" y="132" width="4" height="4" fill="#241608"/><rect x="24" y="132" width="12" height="4" fill="#3b2412"/><rect x="36" y="132" width="8" height="4" fill="#241608"/><rect x="44" y="132" width="36" height="4" fill="#b06a35"/><rect x="80" y="132" width="76" height="4" fill="#e8c79a"/><rect x="156" y="132" width="28" height="4" fill="#b06a35"/><rect x="184" y="132" width="4" height="4" fill="#241608"/><rect x="16" y="136" width="4" height="4" fill="#241608"/><rect x="20" y="136" width="16" height="4" fill="#3b2412"/><rect x="36" y="136" width="8" height="4" fill="#241608"/><rect x="44" y="136" width="32" height="4" fill="#b06a35"/><rect x="76" y="136" width="84" height="4" fill="#e8c79a"/><rect x="160" y="136" width="24" height="4" fill="#b06a35"/><rect x="184" y="136" width="4" height="4" fill="#241608"/><rect x="12" y="140" width="4" height="4" fill="#241608"/><rect x="16" y="140" width="20" height="4" fill="#3b2412"/><rect x="36" y="140" width="4" height="4" fill="#241608"/><rect x="44" y="140" width="4" height="4" fill="#241608"/><rect x="48" y="140" width="28" height="4" fill="#b06a35"/><rect x="76" y="140" width="84" height="4" fill="#e8c79a"/><rect x="160" y="140" width="20" height="4" fill="#b06a35"/><rect x="180" y="140" width="4" height="4" fill="#241608"/><rect x="12" y="144" width="4" height="4" fill="#241608"/><rect x="16" y="144" width="20" height="4" fill="#3b2412"/><rect x="36" y="144" width="4" height="4" fill="#241608"/><rect x="48" y="144" width="4" height="4" fill="#241608"/><rect x="52" y="144" width="24" height="4" fill="#b06a35"/><rect x="76" y="144" width="84" height="4" fill="#e8c79a"/><rect x="160" y="144" width="16" height="4" fill="#b06a35"/><rect x="176" y="144" width="4" height="4" fill="#241608"/><rect x="12" y="148" width="4" height="4" fill="#241608"/><rect x="16" y="148" width="20" height="4" fill="#3b2412"/><rect x="36" y="148" width="4" height="4" fill="#241608"/><rect x="52" y="148" width="8" height="4" fill="#241608"/><rect x="60" y="148" width="16" height="4" fill="#b06a35"/><rect x="76" y="148" width="84" height="4" fill="#e8c79a"/><rect x="160" y="148" width="12" height="4" fill="#b06a35"/><rect x="172" y="148" width="4" height="4" fill="#241608"/><rect x="12" y="152" width="4" height="4" fill="#241608"/><rect x="16" y="152" width="20" height="4" fill="#3b2412"/><rect x="36" y="152" width="4" height="4" fill="#241608"/><rect x="60" y="152" width="4" height="4" fill="#241608"/><rect x="64" y="152" width="16" height="4" fill="#b06a35"/><rect x="80" y="152" width="80" height="4" fill="#e8c79a"/><rect x="160" y="152" width="4" height="4" fill="#b06a35"/><rect x="164" y="152" width="8" height="4" fill="#241608"/><rect x="16" y="156" width="4" height="4" fill="#241608"/><rect x="20" y="156" width="16" height="4" fill="#3b2412"/><rect x="36" y="156" width="4" height="4" fill="#241608"/><rect x="64" y="156" width="12" height="4" fill="#241608"/><rect x="76" y="156" width="8" height="4" fill="#b06a35"/><rect x="84" y="156" width="72" height="4" fill="#e8c79a"/><rect x="156" y="156" width="8" height="4" fill="#241608"/><rect x="20" y="160" width="4" height="4" fill="#241608"/><rect x="24" y="160" width="8" height="4" fill="#3b2412"/><rect x="32" y="160" width="4" height="4" fill="#241608"/><rect x="76" y="160" width="12" height="4" fill="#241608"/><rect x="88" y="160" width="60" height="4" fill="#e8c79a"/><rect x="148" y="160" width="8" height="4" fill="#241608"/><rect x="24" y="164" width="8" height="4" fill="#241608"/><rect x="88" y="164" width="12" height="4" fill="#241608"/><rect x="100" y="164" width="36" height="4" fill="#e8c79a"/><rect x="136" y="164" width="12" height="4" fill="#241608"/><rect x="100" y="168" width="36" height="4" fill="#241608"/><g transform="rotate(0 168 162)">
    <rect x="162" y="162" width="12" height="18" fill="#b06a35"/>
    <rect x="162" y="180" width="12" height="5" fill="#241608"/>
    <rect x="162" y="185" width="12" height="7" fill="#241608"/>
    <animateTransform attributeName="transform" type="rotate" calcMode="discrete" values="-18.0 168 162;-5.9 168 162;5.9 168 162;18.0 168 162;5.9 168 162;-5.9 168 162" keyTimes="0.0000;0.1667;0.3333;0.5000;0.6667;0.8333" dur="1.2000000000000002s" repeatCount="indefinite" />
  </g>
</svg>