<svg xmlns="http://www.w3.org/2000/svg" width="256" height="216" viewBox="0 0 256 216">
  <title>Horse - 3DPixelZodiac</title>
  <g transform="rotate(0 72 154)">
    <rect x="64" y="154" width="16" height="33" fill="#b06a35"/>
    
    <rect x="64" y="187" width="16" height="9" fill="#241608"/>
    <animateTransform attributeName="transform" type="rotate" calcMode="discrete" values="18.0 72 154;5.9 72 154;-5.9 72 154;-18.0 72 154;-5.9 72 154;5.9 72 154" keyTimes="0.0000;0.1667;0.3333;0.5000;0.6667;0.8333" dur="1.2000000000000002s" repeatCount="indefinite" />
  </g><rect x="172" y="28" width="4" height="4" fill="#241608"/><rect x="192" y="28" width="4" height="4" fill="#241608"/><rect x="168" y="32" width="4" height="4" fill="#241608"/><rect x="172" y="32" width="4" height="4" fill="#b06a35"/><rect x="176" y="32" width="4" height="4" fill="#241608"/><rect x="188" y="32" width="4" height="4" fill="#241608"/><rect x="192" y="32" width="4" height="4" fill="#b06a35"/><rect x="196" y="32" width="4" height="4" fill="#241608"/><rect x="168" y="36" width="4" height="4" fill="#241608"/><rect x="172" y="36" width="4" height="4" fill="#b06a35"/><rect x="176" y="36" width="4" height="4" fill="#241608"/><rect x="188" y="36" width="4" height="4" fill="#241608"/><rect x="192" y="36" width="4" height="4" fill="#b06a35"/><rect x="196" y="36" width="4" height="4" fill="#241608"/><rect x="140" y="40" width="32" height="4" fill="#241608"/><rect x="172" y="40" width="4" height="4" fill="#b06a35"/><rect x="176" y="40" width="8" height="4" fill="#241608"/><rect x="188" y="40" width="4" height="4" fill="#241608"/><rect x="192" y="40" width="4" height="4" fill="#b06a35"/><rect x="196" y="40" width="8" height="4" fill="#241608"/><rect x="136" y="44" width="4" height="4" fill="#241608"/><rect x="140" y="44" width="44" height="4" fill="#3b2412"/><rect x="184" y="44" width="8" height="4" fill="#241608"/><rect x="192" y="44" width="12" height="4" fill="#b06a35"/><rect x="204" y="44" width="4" height="4" fill="#241608"/><rect x="136" y="48" width="4" height="4" fill="#241608"/><rect x="140" y="48" width="44" height="4" fill="#3b2412"/><rect x="184" y="48" width="8" height="4" fill="#241608"/><rect x="192" y="48" width="12" height="4" fill="#b06a35"/><rect x="204" y="48" width="4" height="4" fill="#241608"/><rect x="128" y="52" width="12" height="4" fill="#241608"/><rect x="140" y="52" width="44" height="4" fill="#3b2412"/><rect x="184" y="52" width="8" height="4" fill="#241608"/><rect x="192" y="52" width="12" height="4" fill="#b06a35"/><rect x="204" y="52" width="8" height="4" fill="#241608"/><rect x="124" y="56" width="4" height="4" fill="#241608"/><rect x="128" y="56" width="16" height="4" fill="#3b2412"/><rect x="144" y="56" width="16" height="4" fill="#241608"/><rect x="160" y="56" width="12" height="4" fill="#b06a35"/><rect x="172" y="56" width="12" height="4" fill="#3b2412"/><rect x="184" y="56" width="8" height="4" fill="#241608"/><rect x="192" y="56" width="20" height="4" fill="#b06a35"/><rect x="212" y="56" width="4" height="4" fill="#241608"/><rect x="124" y="60" width="4" height="4" fill="#241608"/><rect x="128" y="60" width="16" height="4" fill="#3b2412"/><rect x="144" y="60" width="4" height="4" fill="#241608"/><rect x="156" y="60" width="4" height="4" fill="#241608"/><rect x="160" y="60" width="12" height="4" fill="#b06a35"/><rect x="172" y="60" width="12" height="4" fill="#3b2412"/><rect x="184" y="60" width="28" height="4" fill="#b06a35"/><rect x="212" y="60" width="4" height="4" fill="#241608"/><rect x="124" y="64" width="4" height="4" fill="#241608"/><rect x="128" y="64" width="16" height="4" fill="#3b2412"/><rect x="144" y="64" width="4" height="4" fill="#241608"/><rect x="152" y="64" width="8" height="4" fill="#241608"/><rect x="160" y="64" width="12" height="4" fill="#b06a35"/><rect x="172" y="64" width="12" height="4" fill="#3b2412"/><rect x="184" y="64" width="28" height="4" fill="#b06a35"/><rect x="212" y="64" width="8" height="4" fill="#241608"/><rect x="124" y="68" width="4" height="4" fill="#241608"/><rect x="128" y="68" width="16" height="4" fill="#3b2412"/><rect x="144" y="68" width="8" height="4" fill="#241608"/><rect x="152" y="68" width="68" height="4" fill="#b06a35"/><rect x="220" y="68" width="4" height="4" fill="#241608"/><rect x="124" y="72" width="4" height="4" fill="#241608"/><rect x="128" y="72" width="16" height="4" fill="#3b2412"/><rect x="144" y="72" width="8" height="4" fill="#241608"/><rect x="152" y="72" width="68" height="4" fill="#b06a35"/><rect x="220" y="72" width="4" height="4" fill="#241608"/><rect x="92" y="76" width="36" height="4" fill="#241608"/><rect x="128" y="76" width="16" height="4" fill="#3b2412"/><rect x="144" y="76" width="8" height="4" fill="#241608"/><rect x="152" y="76" width="68" height="4" fill="#b06a35"/><rect x="220" y="76" width="4" height="4" fill="#241608"/><rect x="76" y="80" width="16" height="4" fill="#241608"/><rect x="92" y="80" width="36" height="4" fill="#b06a35"/><rect x="128" y="80" width="16" height="4" fill="#3b2412"/><rect x="144" y="80" width="4" height="4" fill="#241608"/><rect x="148" y="80" width="72" height="4" fill="#b06a35"/><rect x="220" y="80" width="4" height="4" fill="#241608"/><rect x="68" y="84" width="8" height="4" fill="#241608"/><rect x="76" y="84" width="52" height="4" fill="#b06a35"/><rect x="128" y="84" width="16" height="4" fill="#3b2412"/><rect x="144" y="84" width="76" height="4" fill="#b06a35"/><rect x="220" y="84" width="4" height="4" fill="#241608"/><rect x="60" y="88" width="8" height="4" fill="#241608"/><rect x="68" y="88" width="60" height="4" fill="#b06a35"/><rect x="128" y="88" width="16" height="4" fill="#3b2412"/><rect x="144" y="88" width="80" height="4" fill="#b06a35"/><rect x="224" y="88" width="12" height="4" fill="#241608"/><rect x="12" y="92" width="20" height="4" fill="#241608"/><rect x="56" y="92" width="4" height="4" fill="#241608"/><rect x="60" y="92" width="132" height="4" fill="#b06a35"/><rect x="192" y="92" width="8" height="4" fill="#141116"/><rect x="200" y="92" width="36" height="4" fill="#b06a35"/><rect x="236" y="92" width="4" height="4" fill="#241608"/><rect x="8" y="96" width="4" height="4" fill="#241608"/><rect x="12" y="96" width="20" height="4" fill="#3b2412"/><rect x="32" y="96" width="4" height="4" fill="#241608"/><rect x="52" y="96" width="4" height="4" fill="#241608"/><rect x="56" y="96" width="136" height="4" fill="#b06a35"/><rect x="192" y="96" width="8" height="4" fill="#141116"/><rect x="200" y="96" width="36" height="4" fill="#b06a35"/><rect x="236" y="96" width="16" height="4" fill="#241608"/><rect x="8" y="100" width="4" height="4" fill="#241608"/><rect x="12" y="100" width="20" height="4" fill="#3b2412"/><rect x="32" y="100" width="4" height="4" fill="#241608"/><rect x="48" y="100" width="4" height="4" fill="#241608"/><rect x="52" y="100" width="200" height="4" fill="#b06a35"/><rect x="252" y="100" width="4" height="4" fill="#241608"/><rect x="8" y="104" width="4" height="4" fill="#241608"/><rect x="12" y="104" width="20" height="4" fill="#3b2412"/><rect x="32" y="104" width="4" height="4" fill="#241608"/><rect x="44" y="104" width="4" height="4" fill="#241608"/><rect x="48" y="104" width="196" height="4" fill="#b06a35"/><rect x="244" y="104" width="8" height="4" fill="#3b2412"/><rect x="252" y="104" width="4" height="4" fill="#241608"/><rect x="8" y="108" width="4" height="4" fill="#241608"/><rect x="12" y="108" width="20" height="4" fill="#3b2412"/><rect x="32" y="108" width="4" height="4" fill="#241608"/><rect x="44" y="108" width="4" height="4" fill="#241608"/><rect x="48" y="108" width="196" height="4" fill="#b06a35"/><rect x="244" y="108" width="8" height="4" fill="#3b2412"/><rect x="252" y="108" width="4" height="4" fill="#241608"/><rect x="8" y="112" width="4" height="4" fill="#241608"/><rect x="12" y="112" width="20" height="4" fill="#3b2412"/><rect x="32" y="112" width="4" height="4" fill="#241608"/><rect x="40" y="112" width="4" height="4" fill="#241608"/><rect x="44" y="112" width="192" height="4" fill="#b06a35"/><rect x="236" y="112" width="16" height="4" fill="#241608"/><rect x="8" y="116" width="4" height="4" fill="#241608"/><rect x="12" y="116" width="20" height="4" fill="#3b2412"/><rect x="32" y="116" width="4" height="4" fill="#241608"/><rect x="40" y="116" width="4" height="4" fill="#241608"/><rect x="44" y="116" width="40" height="4" fill="#b06a35"/><rect x="84" y="116" width="48" height="4" fill="#e8c79a"/><rect x="132" y="116" width="80" height="4" fill="#b06a35"/><rect x="212" y="116" width="4" height="4" fill="#241608"/><rect x="216" y="116" width="8" height="4" fill="#b06a35"/><rect x="224" y="116" width="12" height="4" fill="#241608"/><rect x="8" y="120" width="4" height="4" fill="#241608"/><rect x="12" y="120" width="20" height="4" fill="#3b2412"/><rect x="32" y="120" width="4" height="4" fill="#241608"/><rect x="40" y="120" width="4" height="4" fill="#241608"/><rect x="44" y="120" width="32" height="4" fill="#b06a35"/><rect x="76" y="120" width="64" height="4" fill="#e8c79a"/><rect x="140" y="120" width="72" height="4" fill="#b06a35"/><rect x="212" y="120" width="12" height="4" fill="#241608"/><rect x="8" y="124" width="4" height="4" fill="#241608"/><rect x="12" y="124" width="20" height="4" fill="#3b2412"/><rect x="32" y="124" width="4" height="4" fill="#241608"/><rect x="40" y="124" width="4" height="4" fill="#241608"/><rect x="44" y="124" width="24" height="4" fill="#b06a35"/><rect x="68" y="124" width="80" height="4" fill="#e8c79a"/><rect x="148" y="124" width="56" height="4" fill="#b06a35"/><rect x="204" y="124" width="8" height="4" fill="#241608"/><rect x="8" y="128" width="4" height="4" fill="#241608"/><rect x="12" y="128" width="20" height="4" fill="#3b2412"/><rect x="32" y="128" width="4" height="4" fill="#241608"/><rect x="44" y="128" width="4" height="4" fill="#241608"/><rect x="48" y="128" width="16" height="4" fill="#b06a35"/><rect x="64" y="128" width="88" height="4" fill="#e8c79a"/><rect x="152" y="128" width="48" height="4" fill="#b06a35"/><rect x="200" y="128" width="4" height="4" fill="#241608"/><rect x="4" y="132" width="4" height="4" fill="#241608"/><rect x="8" y="132" width="24" height="4" fill="#3b2412"/><rect x="32" y="132" width="4" height="4" fill="#241608"/><rect x="44" y="132" width="4" height="4" fill="#241608"/><rect x="48" y="132" width="12" height="4" fill="#b06a35"/><rect x="60" y="132" width="96" height="4" fill="#e8c79a"/><rect x="156" y="132" width="20" height="4" fill="#b06a35"/><rect x="176" y="132" width="24" height="4" fill="#241608"/><rect x="4" y="136" width="4" height="4" fill="#241608"/><rect x="8" y="136" width="16" height="4" fill="#3b2412"/><rect x="24" y="136" width="8" height="4" fill="#241608"/><rect x="48" y="136" width="4" height="4" fill="#241608"/><rect x="52" y="136" width="8" height="4" fill="#b06a35"/><rect x="60" y="136" width="96" height="4" fill="#e8c79a"/><rect x="156" y="136" width="16" height="4" fill="#b06a35"/><rect x="172" y="136" width="4" height="4" fill="#241608"/><rect x="4" y="140" width="4" height="4" fill="#241608"/><rect x="8" y="140" width="16" height="4" fill="#3b2412"/><rect x="24" y="140" width="4" height="4" fill="#241608"/><rect x="52" y="140" width="4" height="4" fill="#241608"/><rect x="56" y="140" width="4" height="4" fill="#b06a35"/><rect x="60" y="140" width="96" height="4" fill="#e8c79a"/><rect x="156" y="140" width="12" height="4" fill="#b06a35"/><rect x="168" y="140" width="4" height="4" fill="#241608"/><rect x="4" y="144" width="4" height="4" fill="#241608"/><rect x="8" y="144" width="16" height="4" fill="#3b2412"/><rect x="24" y="144" width="4" height="4" fill="#241608"/><rect x="56" y="144" width="4" height="4" fill="#241608"/><rect x="60" y="144" width="96" height="4" fill="#e8c79a"/><rect x="156" y="144" width="8" height="4" fill="#b06a35"/><rect x="164" y="144" width="4" height="4" fill="#241608"/><rect x="4" y="148" width="4" height="4" fill="#241608"/><rect x="8" y="148" width="16" height="4" fill="#3b2412"/><rect x="24" y="148" width="4" height="4" fill="#241608"/><rect x="60" y="148" width="4" height="4" fill="#241608"/><rect x="64" y="148" width="88" height="4" fill="#e8c79a"/><rect x="152" y="148" width="4" height="4" fill="#b06a35"/><rect x="156" y="148" width="8" height="4" fill="#241608"/><rect x="4" y="152" width="4" height="4" fill="#241608"/><rect x="8" y="152" width="16" height="4" fill="#3b2412"/><rect x="24" y="152" width="4" height="4" fill="#241608"/><rect x="64" y="152" width="8" height="4" fill="#241608"/><rect x="72" y="152" width="72" height="4" fill="#e8c79a"/><rect x="144" y="152" width="4" height="4" fill="#b06a35"/><rect x="148" y="152" width="8" height="4" fill="#241608"/><rect x="4" y="156" width="4" height="4" fill="#241608"/><rect x="8" y="156" width="16" height="4" fill="#3b2412"/><rect x="24" y="156" width="4" height="4" fill="#241608"/><rect x="72" y="156" width="8" height="4" fill="#241608"/><rect x="80" y="156" width="56" height="4" fill="#e8c79a"/><rect x="136" y="156" width="12" height="4" fill="#241608"/><rect x="4" y="160" width="4" height="4" fill="#241608"/><rect x="8" y="160" width="16" height="4" fill="#3b2412"/><rect x="24" y="160" width="4" height="4" fill="#241608"/><rect x="80" y="160" width="12" height="4" fill="#241608"/><rect x="92" y="160" width="32" height="4" fill="#e8c79a"/><rect x="124" y="160" width="12" height="4" fill="#241608"/><rect x="4" y="164" width="4" height="4" fill="#241608"/><rect x="8" y="164" width="16" height="4" fill="#3b2412"/><rect x="24" y="164" width="4" height="4" fill="#241608"/><rect x="92" y="164" width="32" height="4" fill="#241608"/><rect x="4" y="168" width="4" height="4" fill="#241608"/><rect x="8" y="168" width="16" height="4" fill="#3b2412"/><rect x="24" y="168" width="4" height="4" fill="#241608"/><rect x="8" y="172" width="16" height="4" fill="#241608"/><g transform="rotate(0 160 154)">
    <rect x="152" y="154" width="16" height="33" fill="#b06a35"/>
    
    <rect x="152" y="187" width="16" height="9" fill="#241608"/>
    <animateTransform attributeName="transform" type="rotate" calcMode="discrete" values="-18.0 160 154;-5.9 160 154;5.9 160 154;18.0 160 154;5.9 160 154;-5.9 160 154" keyTimes="0.0000;0.1667;0.3333;0.5000;0.6667;0.8333" dur="1.2000000000000002s" repeatCount="indefinite" />
  </g>
</svg>