<svg xmlns="http://www.w3.org/2000/svg" width="256" height="208" viewBox="0 0 256 208">
  <title>Rabbit - 3DPixelZodiac</title>
  <g>
      <g><rect x="152" y="0" width="8" height="8" fill="#453a2f"/><rect x="160" y="0" width="8" height="8" fill="#f6f1e9"/><rect x="168" y="0" width="8" height="8" fill="#f2a6c1"/><rect x="176" y="0" width="8" height="8" fill="#453a2f"/><rect x="192" y="0" width="8" height="8" fill="#453a2f"/><rect x="200" y="0" width="8" height="8" fill="#f2a6c1"/><rect x="208" y="0" width="16" height="8" fill="#f6f1e9"/><rect x="224" y="0" width="8" height="8" fill="#453a2f"/><rect x="152" y="8" width="8" height="8" fill="#453a2f"/><rect x="160" y="8" width="8" height="8" fill="#f6f1e9"/><rect x="168" y="8" width="8" height="8" fill="#f2a6c1"/><rect x="176" y="8" width="8" height="8" fill="#453a2f"/><rect x="192" y="8" width="8" height="8" fill="#453a2f"/><rect x="200" y="8" width="8" height="8" fill="#f2a6c1"/><rect x="208" y="8" width="16" height="8" fill="#f6f1e9"/><rect x="224" y="8" width="8" height="8" fill="#453a2f"/><rect x="152" y="16" width="8" height="8" fill="#453a2f"/><rect x="160" y="16" width="8" height="8" fill="#f6f1e9"/><rect x="168" y="16" width="8" height="8" fill="#f2a6c1"/><rect x="176" y="16" width="8" height="8" fill="#453a2f"/><rect x="192" y="16" width="8" height="8" fill="#453a2f"/><rect x="200" y="16" width="8" height="8" fill="#f2a6c1"/><rect x="208" y="16" width="16" height="8" fill="#f6f1e9"/><rect x="224" y="16" width="8" height="8" fill="#453a2f"/><rect x="152" y="24" width="8" height="8" fill="#453a2f"/><rect x="160" y="24" width="8" height="8" fill="#f6f1e9"/><rect x="168" y="24" width="8" height="8" fill="#f2a6c1"/><rect x="176" y="24" width="8" height="8" fill="#453a2f"/><rect x="192" y="24" width="8" height="8" fill="#453a2f"/><rect x="200" y="24" width="8" height="8" fill="#f2a6c1"/><rect x="208" y="24" width="16" height="8" fill="#f6f1e9"/><rect x="224" y="24" width="8" height="8" fill="#453a2f"/><rect x="152" y="32" width="8" height="8" fill="#453a2f"/><rect x="160" y="32" width="8" height="8" fill="#f6f1e9"/><rect x="168" y="32" width="8" height="8" fill="#f2a6c1"/><rect x="176" y="32" width="24" height="8" fill="#453a2f"/><rect x="200" y="32" width="8" height="8" fill="#f2a6c1"/><rect x="208" y="32" width="16" height="8" fill="#f6f1e9"/><rect x="224" y="32" width="8" height="8" fill="#453a2f"/><rect x="152" y="40" width="8" height="8" fill="#453a2f"/><rect x="160" y="40" width="40" height="8" fill="#f6f1e9"/><rect x="200" y="40" width="8" height="8" fill="#453a2f"/><rect x="208" y="40" width="16" height="8" fill="#f6f1e9"/><rect x="224" y="40" width="8" height="8" fill="#453a2f"/><rect x="152" y="48" width="8" height="8" fill="#453a2f"/><rect x="160" y="48" width="48" height="8" fill="#f6f1e9"/><rect x="208" y="48" width="16" height="8" fill="#453a2f"/><rect x="72" y="56" width="80" height="8" fill="#453a2f"/><rect x="152" y="56" width="64" height="8" fill="#f6f1e9"/><rect x="216" y="56" width="8" height="8" fill="#453a2f"/><rect x="56" y="64" width="16" height="8" fill="#453a2f"/><rect x="72" y="64" width="120" height="8" fill="#f6f1e9"/><rect x="192" y="64" width="8" height="8" fill="#141116"/><rect x="200" y="64" width="16" height="8" fill="#f6f1e9"/><rect x="216" y="64" width="8" height="8" fill="#f2a6c1"/><rect x="224" y="64" width="8" height="8" fill="#453a2f"/><rect x="48" y="72" width="8" height="8" fill="#453a2f"/><rect x="56" y="72" width="144" height="8" fill="#f6f1e9"/><rect x="200" y="72" width="32" height="8" fill="#f2a6c1"/><rect x="232" y="72" width="8" height="8" fill="#453a2f"/><rect x="32" y="80" width="16" height="8" fill="#453a2f"/><rect x="48" y="80" width="152" height="8" fill="#f6f1e9"/><rect x="200" y="80" width="32" height="8" fill="#f2a6c1"/><rect x="232" y="80" width="8" height="8" fill="#453a2f"/><rect x="24" y="88" width="8" height="8" fill="#453a2f"/><rect x="32" y="88" width="16" height="8" fill="#ffffff"/><rect x="48" y="88" width="160" height="8" fill="#f6f1e9"/><rect x="208" y="88" width="8" height="8" fill="#453a2f"/><rect x="216" y="88" width="8" height="8" fill="#f2a6c1"/><rect x="224" y="88" width="8" height="8" fill="#453a2f"/><rect x="16" y="96" width="8" height="8" fill="#453a2f"/><rect x="24" y="96" width="32" height="8" fill="#ffffff"/><rect x="56" y="96" width="16" height="8" fill="#f6f1e9"/><rect x="72" y="96" width="72" height="8" fill="#ffffff"/><rect x="144" y="96" width="56" height="8" fill="#f6f1e9"/><rect x="200" y="96" width="8" height="8" fill="#453a2f"/><rect x="216" y="96" width="8" height="8" fill="#453a2f"/><rect x="16" y="104" width="8" height="8" fill="#453a2f"/><rect x="24" y="104" width="32" height="8" fill="#ffffff"/><rect x="56" y="104" width="8" height="8" fill="#f6f1e9"/><rect x="64" y="104" width="88" height="8" fill="#ffffff"/><rect x="152" y="104" width="24" height="8" fill="#f6f1e9"/><rect x="176" y="104" width="24" height="8" fill="#453a2f"/><rect x="24" y="112" width="8" height="8" fill="#453a2f"/><rect x="32" y="112" width="16" height="8" fill="#ffffff"/><rect x="48" y="112" width="8" height="8" fill="#453a2f"/><rect x="56" y="112" width="8" height="8" fill="#f6f1e9"/><rect x="64" y="112" width="88" height="8" fill="#ffffff"/><rect x="152" y="112" width="16" height="8" fill="#f6f1e9"/><rect x="168" y="112" width="8" height="8" fill="#453a2f"/><rect x="32" y="120" width="16" height="8" fill="#453a2f"/><rect x="56" y="120" width="16" height="8" fill="#453a2f"/><rect x="72" y="120" width="72" height="8" fill="#ffffff"/><rect x="144" y="120" width="8" height="8" fill="#f6f1e9"/><rect x="152" y="120" width="16" height="8" fill="#453a2f"/><rect x="72" y="128" width="16" height="8" fill="#453a2f"/><rect x="88" y="128" width="40" height="8" fill="#ffffff"/><rect x="128" y="128" width="24" height="8" fill="#453a2f"/><rect x="88" y="136" width="40" height="8" fill="#453a2f"/><animateTransform attributeName="transform" type="translate" calcMode="discrete" values="0 0.0;0 -10.0;0 -20.0;0 -30.0;0 -20.0;0 -10.0" keyTimes="0.0000;0.1667;0.3333;0.5000;0.6667;0.8333" dur="1.2000000000000002s" repeatCount="indefinite" /></g>
      <g opacity="1"><rect x="151" y="136" width="18" height="14" fill="#f6f1e9"/><rect x="151" y="145" width="18" height="5" fill="#453a2f"/><rect x="63" y="136" width="18" height="14" fill="#f6f1e9"/><rect x="63" y="145" width="18" height="5" fill="#453a2f"/><animate attributeName="opacity" calcMode="discrete" values="1;1;0;0;0;1" keyTimes="0.0000;0.1667;0.3333;0.5000;0.6667;0.8333" dur="1.2000000000000002s" repeatCount="indefinite"/></g>
      <g opacity="0"><rect x="151" y="136" width="18" height="4" fill="#f6f1e9"/><rect x="151" y="135" width="18" height="5" fill="#453a2f"/><rect x="63" y="136" width="18" height="4" fill="#f6f1e9"/><rect x="63" y="135" width="18" height="5" fill="#453a2f"/><animate attributeName="opacity" calcMode="discrete" values="0;0;1;1;1;0" keyTimes="0.0000;0.1667;0.3333;0.5000;0.6667;0.8333" dur="1.2000000000000002s" repeatCount="indefinite"/></g>
    </g>
</svg>