<svg xmlns="http://www.w3.org/2000/svg" width="256" height="208" viewBox="0 0 256 208">
  <title>Dog - 3DPixelZodiac</title>
  <g transform="rotate(0 72 136)">
    <rect x="63" y="136" width="18" height="43" fill="#a9713f"/>
    <rect x="63" y="179" width="18" height="13" fill="#241a10"/>
    <animateTransform attributeName="transform" type="rotate" calcMode="discrete" values="18.0 72 136;5.9 72 136;-5.9 72 136;-18.0 72 136;-5.9 72 136;5.9 72 136" keyTimes="0.0000;0.1667;0.3333;0.5000;0.6667;0.8333" dur="1.2000000000000002s" repeatCount="indefinite" />
  </g><rect x="152" y="24" width="16" height="8" fill="#241a10"/><rect x="216" y="24" width="16" height="8" fill="#241a10"/><rect x="144" y="32" width="8" height="8" fill="#241a10"/><rect x="152" y="32" width="16" height="8" fill="#4a2f18"/><rect x="168" y="32" width="32" height="8" fill="#241a10"/><rect x="208" y="32" width="8" height="8" fill="#241a10"/><rect x="216" y="32" width="16" height="8" fill="#4a2f18"/><rect x="232" y="32" width="8" height="8" fill="#241a10"/><rect x="144" y="40" width="8" height="8" fill="#241a10"/><rect x="152" y="40" width="16" height="8" fill="#4a2f18"/><rect x="168" y="40" width="32" height="8" fill="#a9713f"/><rect x="200" y="40" width="16" height="8" fill="#241a10"/><rect x="216" y="40" width="16" height="8" fill="#4a2f18"/><rect x="232" y="40" width="8" height="8" fill="#241a10"/><rect x="144" y="48" width="8" height="8" fill="#241a10"/><rect x="152" y="48" width="8" height="8" fill="#4a2f18"/><rect x="160" y="48" width="48" height="8" fill="#a9713f"/><rect x="208" y="48" width="8" height="8" fill="#241a10"/><rect x="216" y="48" width="16" height="8" fill="#4a2f18"/><rect x="232" y="48" width="8" height="8" fill="#241a10"/><rect x="24" y="56" width="16" height="8" fill="#241a10"/><rect x="72" y="56" width="80" height="8" fill="#241a10"/><rect x="152" y="56" width="64" height="8" fill="#a9713f"/><rect x="216" y="56" width="16" height="8" fill="#4a2f18"/><rect x="232" y="56" width="8" height="8" fill="#241a10"/><rect x="16" y="64" width="8" height="8" fill="#241a10"/><rect x="24" y="64" width="16" height="8" fill="#a9713f"/><rect x="40" y="64" width="8" height="8" fill="#241a10"/><rect x="56" y="64" width="16" height="8" fill="#241a10"/><rect x="72" y="64" width="120" height="8" fill="#a9713f"/><rect x="192" y="64" width="8" height="8" fill="#141116"/><rect x="200" y="64" width="24" height="8" fill="#a9713f"/><rect x="224" y="64" width="8" height="8" fill="#4a2f18"/><rect x="232" y="64" width="8" height="8" fill="#241a10"/><rect x="16" y="72" width="8" height="8" fill="#241a10"/><rect x="24" y="72" width="16" height="8" fill="#a9713f"/><rect x="40" y="72" width="16" height="8" fill="#241a10"/><rect x="56" y="72" width="176" height="8" fill="#a9713f"/><rect x="232" y="72" width="8" height="8" fill="#241a10"/><rect x="16" y="80" width="8" height="8" fill="#241a10"/><rect x="24" y="80" width="16" height="8" fill="#a9713f"/><rect x="40" y="80" width="8" height="8" fill="#241a10"/><rect x="48" y="80" width="184" height="8" fill="#a9713f"/><rect x="232" y="80" width="8" height="8" fill="#241a10"/><rect x="16" y="88" width="8" height="8" fill="#241a10"/><rect x="24" y="88" width="16" height="8" fill="#a9713f"/><rect x="40" y="88" width="8" height="8" fill="#241a10"/><rect x="48" y="88" width="160" height="8" fill="#a9713f"/><rect x="208" y="88" width="8" height="8" fill="#241a10"/><rect x="216" y="88" width="8" height="8" fill="#a9713f"/><rect x="224" y="88" width="8" height="8" fill="#241a10"/><rect x="16" y="96" width="8" height="8" fill="#241a10"/><rect x="24" y="96" width="16" height="8" fill="#a9713f"/><rect x="40" y="96" width="8" height="8" fill="#241a10"/><rect x="48" y="96" width="24" height="8" fill="#a9713f"/><rect x="72" y="96" width="72" height="8" fill="#e9cfa0"/><rect x="144" y="96" width="56" height="8" fill="#a9713f"/><rect x="200" y="96" width="8" height="8" fill="#241a10"/><rect x="216" y="96" width="8" height="8" fill="#241a10"/><rect x="24" y="104" width="24" height="8" fill="#241a10"/><rect x="48" y="104" width="16" height="8" fill="#a9713f"/><rect x="64" y="104" width="88" height="8" fill="#e9cfa0"/><rect x="152" y="104" width="24" height="8" fill="#a9713f"/><rect x="176" y="104" width="24" height="8" fill="#241a10"/><rect x="48" y="112" width="8" height="8" fill="#241a10"/><rect x="56" y="112" width="8" height="8" fill="#a9713f"/><rect x="64" y="112" width="88" height="8" fill="#e9cfa0"/><rect x="152" y="112" width="16" height="8" fill="#a9713f"/><rect x="168" y="112" width="8" height="8" fill="#241a10"/><rect x="56" y="120" width="16" height="8" fill="#241a10"/><rect x="72" y="120" width="72" height="8" fill="#e9cfa0"/><rect x="144" y="120" width="8" height="8" fill="#a9713f"/><rect x="152" y="120" width="16" height="8" fill="#241a10"/><rect x="72" y="128" width="16" height="8" fill="#241a10"/><rect x="88" y="128" width="40" height="8" fill="#e9cfa0"/><rect x="128" y="128" width="24" height="8" fill="#241a10"/><rect x="88" y="136" width="40" height="8" fill="#241a10"/><g transform="rotate(0 160 136)">
    <rect x="151" y="136" width="18" height="43" fill="#a9713f"/>
    <rect x="151" y="179" width="18" height="13" fill="#241a10"/>
    <animateTransform attributeName="transform" type="rotate" calcMode="discrete" values="-18.0 160 136;-5.9 160 136;5.9 160 136;18.0 160 136;5.9 160 136;-5.9 160 136" keyTimes="0.0000;0.1667;0.3333;0.5000;0.6667;0.8333" dur="1.2000000000000002s" repeatCount="indefinite" />
  </g>
</svg>