<svg xmlns="http://www.w3.org/2000/svg" width="256" height="216" viewBox="0 0 256 216">
  <title>Rabbit - 3DPixelZodiac</title>
  <g>
      <g><rect x="156" y="12" width="16" height="4" fill="#453a2f"/><rect x="212" y="12" width="16" height="4" fill="#453a2f"/><rect x="152" y="16" width="4" height="4" fill="#453a2f"/><rect x="156" y="16" width="16" height="4" fill="#f6f1e9"/><rect x="172" y="16" width="4" height="4" fill="#453a2f"/><rect x="208" y="16" width="4" height="4" fill="#453a2f"/><rect x="212" y="16" width="16" height="4" fill="#f6f1e9"/><rect x="228" y="16" width="4" height="4" fill="#453a2f"/><rect x="152" y="20" width="4" height="4" fill="#453a2f"/><rect x="156" y="20" width="16" height="4" fill="#f6f1e9"/><rect x="172" y="20" width="4" height="4" fill="#453a2f"/><rect x="208" y="20" width="4" height="4" fill="#453a2f"/><rect x="212" y="20" width="16" height="4" fill="#f6f1e9"/><rect x="228" y="20" width="4" height="4" fill="#453a2f"/><rect x="152" y="24" width="4" height="4" fill="#453a2f"/><rect x="156" y="24" width="16" height="4" fill="#f6f1e9"/><rect x="172" y="24" width="4" height="4" fill="#453a2f"/><rect x="208" y="24" width="4" height="4" fill="#453a2f"/><rect x="212" y="24" width="16" height="4" fill="#f6f1e9"/><rect x="228" y="24" width="4" height="4" fill="#453a2f"/><rect x="152" y="28" width="4" height="4" fill="#453a2f"/><rect x="156" y="28" width="4" height="4" fill="#f6f1e9"/><rect x="160" y="28" width="12" height="4" fill="#f2a6c1"/><rect x="172" y="28" width="4" height="4" fill="#453a2f"/><rect x="208" y="28" width="4" height="4" fill="#453a2f"/><rect x="212" y="28" width="4" height="4" fill="#f6f1e9"/><rect x="216" y="28" width="12" height="4" fill="#f2a6c1"/><rect x="228" y="28" width="4" height="4" fill="#453a2f"/><rect x="152" y="32" width="4" height="4" fill="#453a2f"/><rect x="156" y="32" width="4" height="4" fill="#f6f1e9"/><rect x="160" y="32" width="12" height="4" fill="#f2a6c1"/><rect x="172" y="32" width="4" height="4" fill="#453a2f"/><rect x="208" y="32" width="4" height="4" fill="#453a2f"/><rect x="212" y="32" width="4" height="4" fill="#f6f1e9"/><rect x="216" y="32" width="12" height="4" fill="#f2a6c1"/><rect x="228" y="32" width="4" height="4" fill="#453a2f"/><rect x="152" y="36" width="4" height="4" fill="#453a2f"/><rect x="156" y="36" width="4" height="4" fill="#f6f1e9"/><rect x="160" y="36" width="12" height="4" fill="#f2a6c1"/><rect x="172" y="36" width="4" height="4" fill="#453a2f"/><rect x="208" y="36" width="4" height="4" fill="#453a2f"/><rect x="212" y="36" width="4" height="4" fill="#f6f1e9"/><rect x="216" y="36" width="12" height="4" fill="#f2a6c1"/><rect x="228" y="36" width="4" height="4" fill="#453a2f"/><rect x="152" y="40" width="4" height="4" fill="#453a2f"/><rect x="156" y="40" width="4" height="4" fill="#f6f1e9"/><rect x="160" y="40" width="12" height="4" fill="#f2a6c1"/><rect x="172" y="40" width="4" height="4" fill="#453a2f"/><rect x="208" y="40" width="4" height="4" fill="#453a2f"/><rect x="212" y="40" width="4" height="4" fill="#f6f1e9"/><rect x="216" y="40" width="12" height="4" fill="#f2a6c1"/><rect x="228" y="40" width="4" height="4" fill="#453a2f"/><rect x="152" y="44" width="4" height="4" fill="#453a2f"/><rect x="156" y="44" width="4" height="4" fill="#f6f1e9"/><rect x="160" y="44" width="12" height="4" fill="#f2a6c1"/><rect x="172" y="44" width="4" height="4" fill="#453a2f"/><rect x="208" y="44" width="4" height="4" fill="#453a2f"/><rect x="212" y="44" width="4" height="4" fill="#f6f1e9"/><rect x="216" y="44" width="12" height="4" fill="#f2a6c1"/><rect x="228" y="44" width="4" height="4" fill="#453a2f"/><rect x="152" y="48" width="4" height="4" fill="#453a2f"/><rect x="156" y="48" width="4" height="4" fill="#f6f1e9"/><rect x="160" y="48" width="12" height="4" fill="#f2a6c1"/><rect x="172" y="48" width="4" height="4" fill="#453a2f"/><rect x="208" y="48" width="4" height="4" fill="#453a2f"/><rect x="212" y="48" width="4" height="4" fill="#f6f1e9"/><rect x="216" y="48" width="12" height="4" fill="#f2a6c1"/><rect x="228" y="48" width="4" height="4" fill="#453a2f"/><rect x="152" y="52" width="4" height="4" fill="#453a2f"/><rect x="156" y="52" width="4" height="4" fill="#f6f1e9"/><rect x="160" y="52" width="12" height="4" fill="#f2a6c1"/><rect x="172" y="52" width="4" height="4" fill="#453a2f"/><rect x="208" y="52" width="4" height="4" fill="#453a2f"/><rect x="212" y="52" width="4" height="4" fill="#f6f1e9"/><rect x="216" y="52" width="12" height="4" fill="#f2a6c1"/><rect x="228" y="52" width="4" height="4" fill="#453a2f"/><rect x="152" y="56" width="4" height="4" fill="#453a2f"/><rect x="156" y="56" width="4" height="4" fill="#f6f1e9"/><rect x="160" y="56" width="12" height="4" fill="#f2a6c1"/><rect x="172" y="56" width="28" height="4" fill="#453a2f"/><rect x="208" y="56" width="4" height="4" fill="#453a2f"/><rect x="212" y="56" width="4" height="4" fill="#f6f1e9"/><rect x="216" y="56" width="12" height="4" fill="#f2a6c1"/><rect x="228" y="56" width="4" height="4" fill="#453a2f"/><rect x="152" y="60" width="4" height="4" fill="#453a2f"/><rect x="156" y="60" width="4" height="4" fill="#f6f1e9"/><rect x="160" y="60" width="8" height="4" fill="#f2a6c1"/><rect x="168" y="60" width="32" height="4" fill="#f6f1e9"/><rect x="200" y="60" width="4" height="4" fill="#453a2f"/><rect x="208" y="60" width="4" height="4" fill="#453a2f"/><rect x="212" y="60" width="4" height="4" fill="#f6f1e9"/><rect x="216" y="60" width="12" height="4" fill="#f2a6c1"/><rect x="228" y="60" width="4" height="4" fill="#453a2f"/><rect x="152" y="64" width="4" height="4" fill="#453a2f"/><rect x="156" y="64" width="4" height="4" fill="#f6f1e9"/><rect x="160" y="64" width="4" height="4" fill="#f2a6c1"/><rect x="164" y="64" width="40" height="4" fill="#f6f1e9"/><rect x="204" y="64" width="8" height="4" fill="#453a2f"/><rect x="212" y="64" width="4" height="4" fill="#f6f1e9"/><rect x="216" y="64" width="12" height="4" fill="#f2a6c1"/><rect x="228" y="64" width="4" height="4" fill="#453a2f"/><rect x="152" y="68" width="4" height="4" fill="#453a2f"/><rect x="156" y="68" width="72" height="4" fill="#f6f1e9"/><rect x="228" y="68" width="4" height="4" fill="#453a2f"/><rect x="152" y="72" width="4" height="4" fill="#453a2f"/><rect x="156" y="72" width="56" height="4" fill="#f6f1e9"/><rect x="212" y="72" width="16" height="4" fill="#453a2f"/><rect x="92" y="76" width="40" height="4" fill="#453a2f"/><rect x="148" y="76" width="4" height="4" fill="#453a2f"/><rect x="152" y="76" width="64" height="4" fill="#f6f1e9"/><rect x="216" y="76" width="4" height="4" fill="#453a2f"/><rect x="76" y="80" width="16" height="4" fill="#453a2f"/><rect x="92" y="80" width="40" height="4" fill="#f6f1e9"/><rect x="132" y="80" width="16" height="4" fill="#453a2f"/><rect x="148" y="80" width="72" height="4" fill="#f6f1e9"/><rect x="220" y="80" width="4" height="4" fill="#453a2f"/><rect x="68" y="84" width="8" height="4" fill="#453a2f"/><rect x="76" y="84" width="144" height="4" fill="#f6f1e9"/><rect x="220" y="84" width="4" height="4" fill="#453a2f"/><rect x="60" y="88" width="8" height="4" fill="#453a2f"/><rect x="68" y="88" width="148" height="4" fill="#f6f1e9"/><rect x="216" y="88" width="8" height="4" fill="#f2a6c1"/><rect x="224" y="88" width="12" height="4" fill="#453a2f"/><rect x="56" y="92" width="4" height="4" fill="#453a2f"/><rect x="60" y="92" width="132" height="4" fill="#f6f1e9"/><rect x="192" y="92" width="8" height="4" fill="#141116"/><rect x="200" y="92" width="8" height="4" fill="#f6f1e9"/><rect x="208" y="92" width="28" height="4" fill="#f2a6c1"/><rect x="236" y="92" width="4" height="4" fill="#453a2f"/><rect x="52" y="96" width="4" height="4" fill="#453a2f"/><rect x="56" y="96" width="136" height="4" fill="#f6f1e9"/><rect x="192" y="96" width="8" height="4" fill="#141116"/><rect x="200" y="96" width="4" height="4" fill="#f6f1e9"/><rect x="204" y="96" width="32" height="4" fill="#f2a6c1"/><rect x="236" y="96" width="4" height="4" fill="#453a2f"/><rect x="48" y="100" width="4" height="4" fill="#453a2f"/><rect x="52" y="100" width="152" height="4" fill="#f6f1e9"/><rect x="204" y="100" width="36" height="4" fill="#f2a6c1"/><rect x="240" y="100" width="4" height="4" fill="#453a2f"/><rect x="44" y="104" width="4" height="4" fill="#453a2f"/><rect x="48" y="104" width="156" height="4" fill="#f6f1e9"/><rect x="204" y="104" width="36" height="4" fill="#f2a6c1"/><rect x="240" y="104" width="4" height="4" fill="#453a2f"/><rect x="36" y="108" width="12" height="4" fill="#453a2f"/><rect x="48" y="108" width="156" height="4" fill="#f6f1e9"/><rect x="204" y="108" width="32" height="4" fill="#f2a6c1"/><rect x="236" y="108" width="4" height="4" fill="#453a2f"/><rect x="28" y="112" width="8" height="4" fill="#453a2f"/><rect x="36" y="112" width="8" height="4" fill="#ffffff"/><rect x="44" y="112" width="164" height="4" fill="#f6f1e9"/><rect x="208" y="112" width="28" height="4" fill="#f2a6c1"/><rect x="236" y="112" width="4" height="4" fill="#453a2f"/><rect x="24" y="116" width="4" height="4" fill="#453a2f"/><rect x="28" y="116" width="24" height="4" fill="#ffffff"/><rect x="52" y="116" width="32" height="4" fill="#f6f1e9"/><rect x="84" y="116" width="48" height="4" fill="#ffffff"/><rect x="132" y="116" width="80" height="4" fill="#f6f1e9"/><rect x="212" y="116" width="4" height="4" fill="#453a2f"/><rect x="216" y="116" width="8" height="4" fill="#f2a6c1"/><rect x="224" y="116" width="12" height="4" fill="#453a2f"/><rect x="24" y="120" width="4" height="4" fill="#453a2f"/><rect x="28" y="120" width="24" height="4" fill="#ffffff"/><rect x="52" y="120" width="24" height="4" fill="#f6f1e9"/><rect x="76" y="120" width="64" height="4" fill="#ffffff"/><rect x="140" y="120" width="72" height="4" fill="#f6f1e9"/><rect x="212" y="120" width="12" height="4" fill="#453a2f"/><rect x="20" y="124" width="4" height="4" fill="#453a2f"/><rect x="24" y="124" width="32" height="4" fill="#ffffff"/><rect x="56" y="124" width="12" height="4" fill="#f6f1e9"/><rect x="68" y="124" width="80" height="4" fill="#ffffff"/><rect x="148" y="124" width="56" height="4" fill="#f6f1e9"/><rect x="204" y="124" width="8" height="4" fill="#453a2f"/><rect x="20" y="128" width="4" height="4" fill="#453a2f"/><rect x="24" y="128" width="32" height="4" fill="#ffffff"/><rect x="56" y="128" width="8" height="4" fill="#f6f1e9"/><rect x="64" y="128" width="88" height="4" fill="#ffffff"/><rect x="152" y="128" width="48" height="4" fill="#f6f1e9"/><rect x="200" y="128" width="4" height="4" fill="#453a2f"/><rect x="24" y="132" width="4" height="4" fill="#453a2f"/><rect x="28" y="132" width="24" height="4" fill="#ffffff"/><rect x="52" y="132" width="8" height="4" fill="#f6f1e9"/><rect x="60" y="132" width="96" height="4" fill="#ffffff"/><rect x="156" y="132" width="20" height="4" fill="#f6f1e9"/><rect x="176" y="132" width="24" height="4" fill="#453a2f"/><rect x="24" y="136" width="4" height="4" fill="#453a2f"/><rect x="28" y="136" width="24" height="4" fill="#ffffff"/><rect x="52" y="136" width="8" height="4" fill="#f6f1e9"/><rect x="60" y="136" width="96" height="4" fill="#ffffff"/><rect x="156" y="136" width="16" height="4" fill="#f6f1e9"/><rect x="172" y="136" width="4" height="4" fill="#453a2f"/><rect x="28" y="140" width="8" height="4" fill="#453a2f"/><rect x="36" y="140" width="8" height="4" fill="#ffffff"/><rect x="44" y="140" width="12" height="4" fill="#453a2f"/><rect x="56" y="140" width="4" height="4" fill="#f6f1e9"/><rect x="60" y="140" width="96" height="4" fill="#ffffff"/><rect x="156" y="140" width="12" height="4" fill="#f6f1e9"/><rect x="168" y="140" width="4" height="4" fill="#453a2f"/><rect x="36" y="144" width="8" height="4" fill="#453a2f"/><rect x="56" y="144" width="4" height="4" fill="#453a2f"/><rect x="60" y="144" width="96" height="4" fill="#ffffff"/><rect x="156" y="144" width="8" height="4" fill="#f6f1e9"/><rect x="164" y="144" width="4" height="4" fill="#453a2f"/><rect x="60" y="148" width="4" height="4" fill="#453a2f"/><rect x="64" y="148" width="88" height="4" fill="#ffffff"/><rect x="152" y="148" width="4" height="4" fill="#f6f1e9"/><rect x="156" y="148" width="8" height="4" fill="#453a2f"/><rect x="64" y="152" width="8" height="4" fill="#453a2f"/><rect x="72" y="152" width="72" height="4" fill="#ffffff"/><rect x="144" y="152" width="4" height="4" fill="#f6f1e9"/><rect x="148" y="152" width="8" height="4" fill="#453a2f"/><rect x="72" y="156" width="8" height="4" fill="#453a2f"/><rect x="80" y="156" width="56" height="4" fill="#ffffff"/><rect x="136" y="156" width="12" height="4" fill="#453a2f"/><rect x="80" y="160" width="12" height="4" fill="#453a2f"/><rect x="92" y="160" width="32" height="4" fill="#ffffff"/><rect x="124" y="160" width="12" height="4" fill="#453a2f"/><rect x="92" y="164" width="32" height="4" fill="#453a2f"/><animateTransform attributeName="transform" type="translate" calcMode="discrete" values="0 0.0;0 -10.0;0 -20.0;0 -30.0;0 -20.0;0 -10.0" keyTimes="0.0000;0.1667;0.3333;0.5000;0.6667;0.8333" dur="1.2000000000000002s" repeatCount="indefinite" /></g>
      <g opacity="1"><rect x="150" y="154" width="20" height="16" fill="#f6f1e9"/><rect x="150" y="165" width="20" height="5" fill="#453a2f"/><rect x="62" y="154" width="20" height="16" fill="#f6f1e9"/><rect x="62" y="165" width="20" height="5" fill="#453a2f"/><animate attributeName="opacity" calcMode="discrete" values="1;1;0;0;0;1" keyTimes="0.0000;0.1667;0.3333;0.5000;0.6667;0.8333" dur="1.2000000000000002s" repeatCount="indefinite"/></g>
      <g opacity="0"><rect x="150" y="154" width="20" height="5" fill="#f6f1e9"/><rect x="150" y="154" width="20" height="5" fill="#453a2f"/><rect x="62" y="154" width="20" height="5" fill="#f6f1e9"/><rect x="62" y="154" width="20" height="5" fill="#453a2f"/><animate attributeName="opacity" calcMode="discrete" values="0;0;1;1;1;0" keyTimes="0.0000;0.1667;0.3333;0.5000;0.6667;0.8333" dur="1.2000000000000002s" repeatCount="indefinite"/></g>
    </g>
</svg>