<svg xmlns="http://www.w3.org/2000/svg" width="256" height="208" viewBox="0 0 256 208">
  <title>Dragon - 3DPixelZodiac</title>
  <g transform="translate(-24,-4.417509730038901)"><g><rect x="64" y="56" width="16" height="8" fill="#0d2e1c"/><rect x="56" y="64" width="8" height="8" fill="#0d2e1c"/><rect x="64" y="64" width="16" height="8" fill="#2f9e5f"/><rect x="80" y="64" width="8" height="8" fill="#0d2e1c"/><rect x="56" y="72" width="8" height="8" fill="#0d2e1c"/><rect x="64" y="72" width="16" height="8" fill="#2f9e5f"/><rect x="80" y="72" width="8" height="8" fill="#0d2e1c"/><rect x="64" y="80" width="16" height="8" fill="#0d2e1c"/><animateTransform attributeName="transform" type="translate" calcMode="discrete" values="0 -3.3;0 -10.0;0 -3.3;0 3.3;0 10.0;0 3.3" keyTimes="0.0000;0.1667;0.3333;0.5000;0.6667;0.8333" dur="1.2000000000000002s" repeatCount="indefinite" /></g></g><g transform="translate(9.599999999999994,-8.748196500455485)"><g><rect x="64" y="56" width="16" height="8" fill="#0d2e1c"/><rect x="56" y="64" width="8" height="8" fill="#0d2e1c"/><rect x="64" y="64" width="16" height="8" fill="#2f9e5f"/><rect x="80" y="64" width="8" height="8" fill="#0d2e1c"/><rect x="56" y="72" width="8" height="8" fill="#0d2e1c"/><rect x="64" y="72" width="16" height="8" fill="#2f9e5f"/><rect x="80" y="72" width="8" height="8" fill="#0d2e1c"/><rect x="64" y="80" width="16" height="8" fill="#0d2e1c"/><animateTransform attributeName="transform" type="translate" calcMode="discrete" values="0 3.3;0 -3.3;0 -10.0;0 -3.3;0 3.3;0 10.0" keyTimes="0.0000;0.1667;0.3333;0.5000;0.6667;0.8333" dur="1.2000000000000002s" repeatCount="indefinite" /></g></g><g transform="translate(43.19999999999999,5.223675783078818)"><g><rect x="64" y="56" width="16" height="8" fill="#0d2e1c"/><rect x="56" y="64" width="8" height="8" fill="#0d2e1c"/><rect x="64" y="64" width="16" height="8" fill="#2f9e5f"/><rect x="80" y="64" width="8" height="8" fill="#0d2e1c"/><rect x="56" y="72" width="8" height="8" fill="#0d2e1c"/><rect x="64" y="72" width="16" height="8" fill="#2f9e5f"/><rect x="80" y="72" width="8" height="8" fill="#0d2e1c"/><rect x="64" y="80" width="16" height="8" fill="#0d2e1c"/><animateTransform attributeName="transform" type="translate" calcMode="discrete" values="0 10.0;0 3.3;0 -3.3;0 -10.0;0 -3.3;0 3.3" keyTimes="0.0000;0.1667;0.3333;0.5000;0.6667;0.8333" dur="1.2000000000000002s" repeatCount="indefinite" /></g></g><g transform="translate(76.80000000000001,22.22953670722478)"><g><rect x="64" y="48" width="16" height="8" fill="#0d2e1c"/><rect x="56" y="56" width="8" height="8" fill="#0d2e1c"/><rect x="64" y="56" width="16" height="8" fill="#2f9e5f"/><rect x="80" y="56" width="8" height="8" fill="#0d2e1c"/><rect x="48" y="64" width="8" height="8" fill="#0d2e1c"/><rect x="56" y="64" width="32" height="8" fill="#2f9e5f"/><rect x="88" y="64" width="8" height="8" fill="#0d2e1c"/><rect x="48" y="72" width="8" height="8" fill="#0d2e1c"/><rect x="56" y="72" width="32" height="8" fill="#2f9e5f"/><rect x="88" y="72" width="8" height="8" fill="#0d2e1c"/><rect x="56" y="80" width="8" height="8" fill="#0d2e1c"/><rect x="64" y="80" width="16" height="8" fill="#2f9e5f"/><rect x="80" y="80" width="8" height="8" fill="#0d2e1c"/><rect x="64" y="88" width="16" height="8" fill="#0d2e1c"/><animateTransform attributeName="transform" type="translate" calcMode="discrete" values="0 3.3;0 10.0;0 3.3;0 -3.3;0 -10.0;0 -3.3" keyTimes="0.0000;0.1667;0.3333;0.5000;0.6667;0.8333" dur="1.2000000000000002s" repeatCount="indefinite" /></g></g><g transform="translate(110.4,23.685249537081262)"><g><rect x="56" y="48" width="32" height="8" fill="#0d2e1c"/><rect x="48" y="56" width="8" height="8" fill="#0d2e1c"/><rect x="56" y="56" width="32" height="8" fill="#2f9e5f"/><rect x="88" y="56" width="8" height="8" fill="#0d2e1c"/><rect x="40" y="64" width="8" height="8" fill="#0d2e1c"/><rect x="48" y="64" width="48" height="8" fill="#2f9e5f"/><rect x="96" y="64" width="8" height="8" fill="#0d2e1c"/><rect x="40" y="72" width="8" height="8" fill="#0d2e1c"/><rect x="48" y="72" width="48" height="8" fill="#2f9e5f"/><rect x="96" y="72" width="8" height="8" fill="#0d2e1c"/><rect x="48" y="80" width="8" height="8" fill="#0d2e1c"/><rect x="56" y="80" width="32" height="8" fill="#2f9e5f"/><rect x="88" y="80" width="8" height="8" fill="#0d2e1c"/><rect x="56" y="88" width="32" height="8" fill="#0d2e1c"/><animateTransform attributeName="transform" type="translate" calcMode="discrete" values="0 -3.3;0 3.3;0 10.0;0 3.3;0 -3.3;0 -10.0" keyTimes="0.0000;0.1667;0.3333;0.5000;0.6667;0.8333" dur="1.2000000000000002s" repeatCount="indefinite" /></g></g><g transform="translate(144,8)"><g><rect x="64" y="24" width="8" height="8" fill="#0d2e1c"/><rect x="88" y="24" width="8" height="8" fill="#0d2e1c"/><rect x="56" y="32" width="8" height="8" fill="#0d2e1c"/><rect x="64" y="32" width="8" height="8" fill="#e8c94b"/><rect x="72" y="32" width="16" height="8" fill="#0d2e1c"/><rect x="88" y="32" width="8" height="8" fill="#e8c94b"/><rect x="96" y="32" width="8" height="8" fill="#0d2e1c"/><rect x="56" y="40" width="8" height="8" fill="#0d2e1c"/><rect x="64" y="40" width="8" height="8" fill="#e8c94b"/><rect x="72" y="40" width="16" height="8" fill="#0d2e1c"/><rect x="88" y="40" width="8" height="8" fill="#e8c94b"/><rect x="96" y="40" width="8" height="8" fill="#0d2e1c"/><rect x="56" y="48" width="8" height="8" fill="#0d2e1c"/><rect x="64" y="48" width="8" height="8" fill="#e8c94b"/><rect x="72" y="48" width="16" height="8" fill="#0d2e1c"/><rect x="88" y="48" width="8" height="8" fill="#e8c94b"/><rect x="96" y="48" width="8" height="8" fill="#0d2e1c"/><rect x="48" y="56" width="8" height="8" fill="#0d2e1c"/><rect x="56" y="56" width="32" height="8" fill="#2f9e5f"/><rect x="88" y="56" width="8" height="8" fill="#0d2e1c"/><rect x="40" y="64" width="8" height="8" fill="#0d2e1c"/><rect x="48" y="64" width="40" height="8" fill="#2f9e5f"/><rect x="88" y="64" width="8" height="8" fill="#141116"/><rect x="40" y="72" width="8" height="8" fill="#0d2e1c"/><rect x="48" y="72" width="48" height="8" fill="#2f9e5f"/><rect x="96" y="72" width="16" height="8" fill="#0d2e1c"/><rect x="48" y="80" width="8" height="8" fill="#0d2e1c"/><rect x="56" y="80" width="32" height="8" fill="#2f9e5f"/><rect x="88" y="80" width="8" height="8" fill="#0d2e1c"/><rect x="96" y="80" width="16" height="8" fill="#e8c94b"/><rect x="112" y="80" width="8" height="8" fill="#0d2e1c"/><rect x="56" y="88" width="32" height="8" fill="#0d2e1c"/><rect x="96" y="88" width="16" height="8" fill="#0d2e1c"/><animateTransform attributeName="transform" type="translate" calcMode="discrete" values="0 -10.0;0 -3.3;0 3.3;0 10.0;0 3.3;0 -3.3" keyTimes="0.0000;0.1667;0.3333;0.5000;0.6667;0.8333" dur="1.2000000000000002s" repeatCount="indefinite" /></g></g>
</svg>