<svg xmlns="http://www.w3.org/2000/svg" width="256" height="232" viewBox="0 0 256 232">
  <title>Goat - 3DPixelZodiac</title>
  <g transform="rotate(0 72 160)">
    <rect x="63" y="160" width="18" height="43" fill="#efe6d6"/>
    <rect x="63" y="203" width="18" height="13" fill="#3a3226"/>
    <animateTransform attributeName="transform" type="rotate" calcMode="discrete" values="18.0 72 160;5.9 72 160;-5.9 72 160;-18.0 72 160;-5.9 72 160;5.9 72 160" keyTimes="0.0000;0.1667;0.3333;0.5000;0.6667;0.8333" dur="1.2000000000000002s" repeatCount="indefinite" />
  </g><rect x="168" y="0" width="16" height="8" fill="#3a3226"/><rect x="216" y="0" width="16" height="8" fill="#3a3226"/><rect x="160" y="8" width="8" height="8" fill="#3a3226"/><rect x="168" y="8" width="16" height="8" fill="#d8cba6"/><rect x="184" y="8" width="8" height="8" fill="#3a3226"/><rect x="208" y="8" width="8" height="8" fill="#3a3226"/><rect x="216" y="8" width="16" height="8" fill="#d8cba6"/><rect x="232" y="8" width="8" height="8" fill="#3a3226"/><rect x="160" y="16" width="8" height="8" fill="#3a3226"/><rect x="168" y="16" width="24" height="8" fill="#d8cba6"/><rect x="192" y="16" width="8" height="8" fill="#3a3226"/><rect x="208" y="16" width="8" height="8" fill="#3a3226"/><rect x="216" y="16" width="16" height="8" fill="#d8cba6"/><rect x="232" y="16" width="8" height="8" fill="#3a3226"/><rect x="160" y="24" width="8" height="8" fill="#3a3226"/><rect x="168" y="24" width="24" height="8" fill="#d8cba6"/><rect x="192" y="24" width="16" height="8" fill="#3a3226"/><rect x="208" y="24" width="24" height="8" fill="#d8cba6"/><rect x="232" y="24" width="8" height="8" fill="#3a3226"/><rect x="168" y="32" width="8" height="8" fill="#3a3226"/><rect x="176" y="32" width="16" height="8" fill="#d8cba6"/><rect x="192" y="32" width="16" height="8" fill="#3a3226"/><rect x="208" y="32" width="16" height="8" fill="#d8cba6"/><rect x="224" y="32" width="8" height="8" fill="#3a3226"/><rect x="168" y="40" width="8" height="8" fill="#3a3226"/><rect x="176" y="40" width="16" height="8" fill="#d8cba6"/><rect x="192" y="40" width="16" height="8" fill="#3a3226"/><rect x="208" y="40" width="16" height="8" fill="#d8cba6"/><rect x="224" y="40" width="8" height="8" fill="#3a3226"/><rect x="168" y="48" width="8" height="8" fill="#3a3226"/><rect x="176" y="48" width="16" height="8" fill="#d8cba6"/><rect x="192" y="48" width="16" height="8" fill="#3a3226"/><rect x="208" y="48" width="16" height="8" fill="#d8cba6"/><rect x="224" y="48" width="8" height="8" fill="#3a3226"/><rect x="152" y="56" width="24" height="8" fill="#3a3226"/><rect x="176" y="56" width="16" height="8" fill="#efe6d6"/><rect x="192" y="56" width="16" height="8" fill="#3a3226"/><rect x="208" y="56" width="16" height="8" fill="#d8cba6"/><rect x="224" y="56" width="24" height="8" fill="#3a3226"/><rect x="144" y="64" width="8" height="8" fill="#3a3226"/><rect x="152" y="64" width="56" height="8" fill="#efe6d6"/><rect x="208" y="64" width="16" height="8" fill="#d8cba6"/><rect x="224" y="64" width="8" height="8" fill="#3a3226"/><rect x="232" y="64" width="16" height="8" fill="#efe6d6"/><rect x="248" y="64" width="8" height="8" fill="#3a3226"/><rect x="80" y="72" width="72" height="8" fill="#3a3226"/><rect x="152" y="72" width="64" height="8" fill="#efe6d6"/><rect x="216" y="72" width="16" height="8" fill="#3a3226"/><rect x="232" y="72" width="16" height="8" fill="#efe6d6"/><rect x="248" y="72" width="8" height="8" fill="#3a3226"/><rect x="64" y="80" width="16" height="8" fill="#3a3226"/><rect x="80" y="80" width="64" height="8" fill="#efe6d6"/><rect x="144" y="80" width="8" height="8" fill="#3a3226"/><rect x="152" y="80" width="64" height="8" fill="#efe6d6"/><rect x="216" y="80" width="16" height="8" fill="#3a3226"/><rect x="232" y="80" width="16" height="8" fill="#efe6d6"/><rect x="248" y="80" width="8" height="8" fill="#3a3226"/><rect x="56" y="88" width="8" height="8" fill="#3a3226"/><rect x="64" y="88" width="184" height="8" fill="#efe6d6"/><rect x="248" y="88" width="8" height="8" fill="#3a3226"/><rect x="48" y="96" width="8" height="8" fill="#3a3226"/><rect x="56" y="96" width="136" height="8" fill="#efe6d6"/><rect x="192" y="96" width="8" height="8" fill="#141116"/><rect x="200" y="96" width="40" height="8" fill="#efe6d6"/><rect x="240" y="96" width="8" height="8" fill="#3a3226"/><rect x="32" y="104" width="16" height="8" fill="#3a3226"/><rect x="48" y="104" width="192" height="8" fill="#efe6d6"/><rect x="240" y="104" width="8" height="8" fill="#3a3226"/><rect x="24" y="112" width="8" height="8" fill="#3a3226"/><rect x="32" y="112" width="64" height="8" fill="#efe6d6"/><rect x="96" y="112" width="24" height="8" fill="#ffffff"/><rect x="120" y="112" width="112" height="8" fill="#efe6d6"/><rect x="232" y="112" width="8" height="8" fill="#3a3226"/><rect x="24" y="120" width="8" height="8" fill="#3a3226"/><rect x="32" y="120" width="40" height="8" fill="#efe6d6"/><rect x="72" y="120" width="72" height="8" fill="#ffffff"/><rect x="144" y="120" width="64" height="8" fill="#efe6d6"/><rect x="208" y="120" width="8" height="8" fill="#3a3226"/><rect x="216" y="120" width="16" height="8" fill="#d8cba6"/><rect x="232" y="120" width="8" height="8" fill="#3a3226"/><rect x="24" y="128" width="8" height="8" fill="#3a3226"/><rect x="32" y="128" width="32" height="8" fill="#efe6d6"/><rect x="64" y="128" width="88" height="8" fill="#ffffff"/><rect x="152" y="128" width="40" height="8" fill="#efe6d6"/><rect x="192" y="128" width="24" height="8" fill="#3a3226"/><rect x="216" y="128" width="16" height="8" fill="#d8cba6"/><rect x="232" y="128" width="8" height="8" fill="#3a3226"/><rect x="32" y="136" width="24" height="8" fill="#3a3226"/><rect x="56" y="136" width="8" height="8" fill="#efe6d6"/><rect x="64" y="136" width="88" height="8" fill="#ffffff"/><rect x="152" y="136" width="16" height="8" fill="#efe6d6"/><rect x="168" y="136" width="24" height="8" fill="#3a3226"/><rect x="208" y="136" width="8" height="8" fill="#3a3226"/><rect x="216" y="136" width="16" height="8" fill="#d8cba6"/><rect x="232" y="136" width="8" height="8" fill="#3a3226"/><rect x="56" y="144" width="8" height="8" fill="#3a3226"/><rect x="64" y="144" width="88" height="8" fill="#ffffff"/><rect x="152" y="144" width="8" height="8" fill="#efe6d6"/><rect x="160" y="144" width="8" height="8" fill="#3a3226"/><rect x="216" y="144" width="16" height="8" fill="#3a3226"/><rect x="64" y="152" width="8" height="8" fill="#3a3226"/><rect x="72" y="152" width="72" height="8" fill="#ffffff"/><rect x="144" y="152" width="16" height="8" fill="#3a3226"/><rect x="72" y="160" width="72" height="8" fill="#3a3226"/><g transform="rotate(0 160 160)">
    <rect x="151" y="160" width="18" height="43" fill="#efe6d6"/>
    <rect x="151" y="203" width="18" height="13" fill="#3a3226"/>
    <animateTransform attributeName="transform" type="rotate" calcMode="discrete" values="-18.0 160 160;-5.9 160 160;5.9 160 160;18.0 160 160;5.9 160 160;-5.9 160 160" keyTimes="0.0000;0.1667;0.3333;0.5000;0.6667;0.8333" dur="1.2000000000000002s" repeatCount="indefinite" />
  </g>
</svg>