<svg xmlns="http://www.w3.org/2000/svg" width="256" height="216" viewBox="0 0 256 216">
  <title>Monkey - 3DPixelZodiac</title>
  <g transform="rotate(0 152 170)">
    <rect x="144" y="170" width="16" height="9" fill="#e8c9a0"/>
    <rect x="144" y="179" width="16" height="11" fill="#241a10"/>
    <animateTransform attributeName="transform" type="rotate" calcMode="discrete" values="18.0 152 170;5.9 152 170;-5.9 152 170;-18.0 152 170;-5.9 152 170;5.9 152 170" keyTimes="0.0000;0.1667;0.3333;0.5000;0.6667;0.8333" dur="1.2000000000000002s" repeatCount="indefinite" />
  </g><rect x="112" y="16" width="32" height="8" fill="#241a10"/><rect x="80" y="24" width="16" height="8" fill="#241a10"/><rect x="104" y="24" width="8" height="8" fill="#241a10"/><rect x="112" y="24" width="32" height="8" fill="#8a5a3c"/><rect x="144" y="24" width="8" height="8" fill="#241a10"/><rect x="160" y="24" width="16" height="8" fill="#241a10"/><rect x="72" y="32" width="8" height="8" fill="#241a10"/><rect x="80" y="32" width="16" height="8" fill="#e8c9a0"/><rect x="96" y="32" width="8" height="8" fill="#241a10"/><rect x="104" y="32" width="48" height="8" fill="#8a5a3c"/><rect x="152" y="32" width="8" height="8" fill="#241a10"/><rect x="160" y="32" width="16" height="8" fill="#e8c9a0"/><rect x="176" y="32" width="8" height="8" fill="#241a10"/><rect x="64" y="40" width="8" height="8" fill="#241a10"/><rect x="72" y="40" width="32" height="8" fill="#e8c9a0"/><rect x="104" y="40" width="16" height="8" fill="#8a5a3c"/><rect x="120" y="40" width="16" height="8" fill="#e8c9a0"/><rect x="136" y="40" width="16" height="8" fill="#8a5a3c"/><rect x="152" y="40" width="32" height="8" fill="#e8c9a0"/><rect x="184" y="40" width="8" height="8" fill="#241a10"/><rect x="64" y="48" width="8" height="8" fill="#241a10"/><rect x="72" y="48" width="112" height="8" fill="#e8c9a0"/><rect x="184" y="48" width="8" height="8" fill="#241a10"/><rect x="64" y="56" width="8" height="8" fill="#241a10"/><rect x="72" y="56" width="40" height="8" fill="#e8c9a0"/><rect x="112" y="56" width="8" height="8" fill="#141116"/><rect x="120" y="56" width="24" height="8" fill="#e8c9a0"/><rect x="144" y="56" width="8" height="8" fill="#141116"/><rect x="152" y="56" width="32" height="8" fill="#e8c9a0"/><rect x="184" y="56" width="8" height="8" fill="#8a5a3c"/><rect x="192" y="56" width="8" height="8" fill="#241a10"/><rect x="72" y="64" width="8" height="8" fill="#241a10"/><rect x="80" y="64" width="96" height="8" fill="#e8c9a0"/><rect x="176" y="64" width="16" height="8" fill="#241a10"/><rect x="80" y="72" width="16" height="8" fill="#241a10"/><rect x="96" y="72" width="8" height="8" fill="#8a5a3c"/><rect x="104" y="72" width="48" height="8" fill="#e8c9a0"/><rect x="152" y="72" width="8" height="8" fill="#8a5a3c"/><rect x="160" y="72" width="16" height="8" fill="#241a10"/><rect x="80" y="80" width="24" height="8" fill="#241a10"/><rect x="104" y="80" width="8" height="8" fill="#8a5a3c"/><rect x="112" y="80" width="32" height="8" fill="#e8c9a0"/><rect x="144" y="80" width="8" height="8" fill="#8a5a3c"/><rect x="152" y="80" width="24" height="8" fill="#241a10"/><rect x="184" y="80" width="8" height="8" fill="#241a10"/><rect x="72" y="88" width="8" height="8" fill="#241a10"/><rect x="80" y="88" width="16" height="8" fill="#8a5a3c"/><rect x="96" y="88" width="8" height="8" fill="#241a10"/><rect x="104" y="88" width="48" height="8" fill="#8a5a3c"/><rect x="152" y="88" width="8" height="8" fill="#241a10"/><rect x="160" y="88" width="16" height="8" fill="#8a5a3c"/><rect x="176" y="88" width="8" height="8" fill="#241a10"/><rect x="184" y="88" width="8" height="8" fill="#8a5a3c"/><rect x="192" y="88" width="8" height="8" fill="#241a10"/><rect x="72" y="96" width="8" height="8" fill="#241a10"/><rect x="80" y="96" width="96" height="8" fill="#8a5a3c"/><rect x="176" y="96" width="16" height="8" fill="#241a10"/><rect x="72" y="104" width="8" height="8" fill="#241a10"/><rect x="80" y="104" width="96" height="8" fill="#8a5a3c"/><rect x="176" y="104" width="8" height="8" fill="#241a10"/><rect x="72" y="112" width="8" height="8" fill="#241a10"/><rect x="80" y="112" width="96" height="8" fill="#8a5a3c"/><rect x="176" y="112" width="8" height="8" fill="#241a10"/><rect x="72" y="120" width="8" height="8" fill="#241a10"/><rect x="80" y="120" width="32" height="8" fill="#8a5a3c"/><rect x="112" y="120" width="32" height="8" fill="#e8c9a0"/><rect x="144" y="120" width="32" height="8" fill="#8a5a3c"/><rect x="176" y="120" width="8" height="8" fill="#241a10"/><rect x="72" y="128" width="8" height="8" fill="#241a10"/><rect x="80" y="128" width="24" height="8" fill="#8a5a3c"/><rect x="104" y="128" width="48" height="8" fill="#e8c9a0"/><rect x="152" y="128" width="24" height="8" fill="#8a5a3c"/><rect x="176" y="128" width="8" height="8" fill="#241a10"/><rect x="72" y="136" width="8" height="8" fill="#241a10"/><rect x="80" y="136" width="24" height="8" fill="#8a5a3c"/><rect x="104" y="136" width="48" height="8" fill="#e8c9a0"/><rect x="152" y="136" width="24" height="8" fill="#8a5a3c"/><rect x="176" y="136" width="8" height="8" fill="#241a10"/><rect x="72" y="144" width="8" height="8" fill="#241a10"/><rect x="80" y="144" width="16" height="8" fill="#e8c9a0"/><rect x="96" y="144" width="8" height="8" fill="#8a5a3c"/><rect x="104" y="144" width="48" height="8" fill="#e8c9a0"/><rect x="152" y="144" width="8" height="8" fill="#8a5a3c"/><rect x="160" y="144" width="16" height="8" fill="#e8c9a0"/><rect x="176" y="144" width="8" height="8" fill="#241a10"/><rect x="64" y="152" width="8" height="8" fill="#241a10"/><rect x="72" y="152" width="24" height="8" fill="#e8c9a0"/><rect x="96" y="152" width="8" height="8" fill="#8a5a3c"/><rect x="104" y="152" width="48" height="8" fill="#e8c9a0"/><rect x="152" y="152" width="8" height="8" fill="#8a5a3c"/><rect x="160" y="152" width="16" height="8" fill="#e8c9a0"/><rect x="176" y="152" width="8" height="8" fill="#241a10"/><rect x="72" y="160" width="8" height="8" fill="#241a10"/><rect x="80" y="160" width="8" height="8" fill="#e8c9a0"/><rect x="88" y="160" width="16" height="8" fill="#241a10"/><rect x="104" y="160" width="8" height="8" fill="#8a5a3c"/><rect x="112" y="160" width="32" height="8" fill="#e8c9a0"/><rect x="144" y="160" width="8" height="8" fill="#8a5a3c"/><rect x="152" y="160" width="8" height="8" fill="#241a10"/><rect x="160" y="160" width="16" height="8" fill="#e8c9a0"/><rect x="176" y="160" width="8" height="8" fill="#241a10"/><rect x="80" y="168" width="8" height="8" fill="#241a10"/><rect x="104" y="168" width="8" height="8" fill="#241a10"/><rect x="112" y="168" width="32" height="8" fill="#8a5a3c"/><rect x="144" y="168" width="8" height="8" fill="#241a10"/><rect x="160" y="168" width="16" height="8" fill="#241a10"/><rect x="112" y="176" width="32" height="8" fill="#241a10"/><g transform="rotate(0 104 170)">
    <rect x="96" y="170" width="16" height="9" fill="#e8c9a0"/>
    <rect x="96" y="179" width="16" height="11" fill="#241a10"/>
    <animateTransform attributeName="transform" type="rotate" calcMode="discrete" values="-18.0 104 170;-5.9 104 170;5.9 104 170;18.0 104 170;5.9 104 170;-5.9 104 170" keyTimes="0.0000;0.1667;0.3333;0.5000;0.6667;0.8333" dur="1.2000000000000002s" repeatCount="indefinite" />
  </g>
</svg>