<svg xmlns="http://www.w3.org/2000/svg" width="256" height="216" viewBox="0 0 256 216">
  <title>Dog - 3DPixelZodiac</title>
  <g transform="rotate(0 72 154)">
    <rect x="62" y="154" width="20" height="18" fill="#d9822b"/>
    <rect x="62" y="172" width="20" height="14" fill="#2a1a0c"/>
    <animateTransform attributeName="transform" type="rotate" calcMode="discrete" values="18.0 72 154;5.9 72 154;-5.9 72 154;-18.0 72 154;-5.9 72 154;5.9 72 154" keyTimes="0.0000;0.1667;0.3333;0.5000;0.6667;0.8333" dur="1.2000000000000002s" repeatCount="indefinite" />
  </g><rect x="152" y="24" width="8" height="8" fill="#2a1a0c"/><rect x="224" y="24" width="8" height="8" fill="#2a1a0c"/><rect x="144" y="32" width="8" height="8" fill="#2a1a0c"/><rect x="152" y="32" width="8" height="8" fill="#d9822b"/><rect x="160" y="32" width="8" height="8" fill="#2a1a0c"/><rect x="216" y="32" width="8" height="8" fill="#2a1a0c"/><rect x="224" y="32" width="8" height="8" fill="#d9822b"/><rect x="232" y="32" width="8" height="8" fill="#2a1a0c"/><rect x="16" y="40" width="32" height="8" fill="#2a1a0c"/><rect x="144" y="40" width="8" height="8" fill="#2a1a0c"/><rect x="152" y="40" width="8" height="8" fill="#d9822b"/><rect x="160" y="40" width="8" height="8" fill="#2a1a0c"/><rect x="216" y="40" width="8" height="8" fill="#2a1a0c"/><rect x="224" y="40" width="8" height="8" fill="#d9822b"/><rect x="232" y="40" width="8" height="8" fill="#2a1a0c"/><rect x="8" y="48" width="8" height="8" fill="#2a1a0c"/><rect x="16" y="48" width="24" height="8" fill="#d9822b"/><rect x="40" y="48" width="8" height="8" fill="#fdf6ea"/><rect x="48" y="48" width="8" height="8" fill="#2a1a0c"/><rect x="144" y="48" width="8" height="8" fill="#2a1a0c"/><rect x="152" y="48" width="8" height="8" fill="#d9822b"/><rect x="160" y="48" width="8" height="8" fill="#2a1a0c"/><rect x="176" y="48" width="16" height="8" fill="#2a1a0c"/><rect x="216" y="48" width="8" height="8" fill="#2a1a0c"/><rect x="224" y="48" width="8" height="8" fill="#d9822b"/><rect x="232" y="48" width="8" height="8" fill="#2a1a0c"/><rect x="0" y="56" width="8" height="8" fill="#2a1a0c"/><rect x="8" y="56" width="32" height="8" fill="#d9822b"/><rect x="40" y="56" width="8" height="8" fill="#fdf6ea"/><rect x="48" y="56" width="8" height="8" fill="#2a1a0c"/><rect x="144" y="56" width="8" height="8" fill="#2a1a0c"/><rect x="152" y="56" width="16" height="8" fill="#d9822b"/><rect x="168" y="56" width="8" height="8" fill="#2a1a0c"/><rect x="176" y="56" width="16" height="8" fill="#d9822b"/><rect x="192" y="56" width="24" height="8" fill="#2a1a0c"/><rect x="216" y="56" width="16" height="8" fill="#d9822b"/><rect x="232" y="56" width="8" height="8" fill="#2a1a0c"/><rect x="0" y="64" width="24" height="8" fill="#d9822b"/><rect x="24" y="64" width="24" height="8" fill="#2a1a0c"/><rect x="144" y="64" width="8" height="8" fill="#2a1a0c"/><rect x="152" y="64" width="80" height="8" fill="#d9822b"/><rect x="232" y="64" width="8" height="8" fill="#2a1a0c"/><rect x="0" y="72" width="16" height="8" fill="#d9822b"/><rect x="16" y="72" width="8" height="8" fill="#2a1a0c"/><rect x="80" y="72" width="72" height="8" fill="#2a1a0c"/><rect x="152" y="72" width="80" height="8" fill="#d9822b"/><rect x="232" y="72" width="8" height="8" fill="#2a1a0c"/><rect x="0" y="80" width="16" height="8" fill="#d9822b"/><rect x="16" y="80" width="8" height="8" fill="#2a1a0c"/><rect x="64" y="80" width="16" height="8" fill="#2a1a0c"/><rect x="80" y="80" width="64" height="8" fill="#d9822b"/><rect x="144" y="80" width="8" height="8" fill="#2a1a0c"/><rect x="152" y="80" width="40" height="8" fill="#d9822b"/><rect x="192" y="80" width="8" height="8" fill="#fdf6ea"/><rect x="200" y="80" width="16" height="8" fill="#d9822b"/><rect x="216" y="80" width="16" height="8" fill="#2a1a0c"/><rect x="0" y="88" width="24" height="8" fill="#d9822b"/><rect x="24" y="88" width="8" height="8" fill="#2a1a0c"/><rect x="56" y="88" width="8" height="8" fill="#2a1a0c"/><rect x="64" y="88" width="144" height="8" fill="#d9822b"/><rect x="208" y="88" width="24" height="8" fill="#fdf6ea"/><rect x="232" y="88" width="8" height="8" fill="#2a1a0c"/><rect x="0" y="96" width="8" height="8" fill="#2a1a0c"/><rect x="8" y="96" width="24" height="8" fill="#d9822b"/><rect x="32" y="96" width="8" height="8" fill="#2a1a0c"/><rect x="48" y="96" width="8" height="8" fill="#2a1a0c"/><rect x="56" y="96" width="136" height="8" fill="#d9822b"/><rect x="192" y="96" width="8" height="8" fill="#141116"/><rect x="200" y="96" width="40" height="8" fill="#fdf6ea"/><rect x="240" y="96" width="8" height="8" fill="#2a1a0c"/><rect x="0" y="104" width="8" height="8" fill="#2a1a0c"/><rect x="8" y="104" width="32" height="8" fill="#d9822b"/><rect x="40" y="104" width="8" height="8" fill="#2a1a0c"/><rect x="48" y="104" width="144" height="8" fill="#d9822b"/><rect x="192" y="104" width="48" height="8" fill="#fdf6ea"/><rect x="240" y="104" width="8" height="8" fill="#2a1a0c"/><rect x="8" y="112" width="8" height="8" fill="#2a1a0c"/><rect x="16" y="112" width="16" height="8" fill="#d9822b"/><rect x="32" y="112" width="16" height="8" fill="#2a1a0c"/><rect x="48" y="112" width="48" height="8" fill="#d9822b"/><rect x="96" y="112" width="24" height="8" fill="#fdf6ea"/><rect x="120" y="112" width="72" height="8" fill="#d9822b"/><rect x="192" y="112" width="40" height="8" fill="#fdf6ea"/><rect x="232" y="112" width="8" height="8" fill="#2a1a0c"/><rect x="16" y="120" width="16" height="8" fill="#2a1a0c"/><rect x="40" y="120" width="8" height="8" fill="#2a1a0c"/><rect x="48" y="120" width="24" height="8" fill="#d9822b"/><rect x="72" y="120" width="72" height="8" fill="#fdf6ea"/><rect x="144" y="120" width="64" height="8" fill="#d9822b"/><rect x="208" y="120" width="8" height="8" fill="#fdf6ea"/><rect x="216" y="120" width="16" height="8" fill="#2a1a0c"/><rect x="40" y="128" width="8" height="8" fill="#2a1a0c"/><rect x="48" y="128" width="16" height="8" fill="#d9822b"/><rect x="64" y="128" width="88" height="8" fill="#fdf6ea"/><rect x="152" y="128" width="40" height="8" fill="#d9822b"/><rect x="192" y="128" width="24" height="8" fill="#2a1a0c"/><rect x="48" y="136" width="8" height="8" fill="#2a1a0c"/><rect x="56" y="136" width="8" height="8" fill="#d9822b"/><rect x="64" y="136" width="88" height="8" fill="#fdf6ea"/><rect x="152" y="136" width="16" height="8" fill="#d9822b"/><rect x="168" y="136" width="24" height="8" fill="#2a1a0c"/><rect x="56" y="144" width="8" height="8" fill="#2a1a0c"/><rect x="64" y="144" width="88" height="8" fill="#fdf6ea"/><rect x="152" y="144" width="8" height="8" fill="#d9822b"/><rect x="160" y="144" width="8" height="8" fill="#2a1a0c"/><rect x="64" y="152" width="8" height="8" fill="#2a1a0c"/><rect x="72" y="152" width="72" height="8" fill="#fdf6ea"/><rect x="144" y="152" width="16" height="8" fill="#2a1a0c"/><rect x="72" y="160" width="72" height="8" fill="#2a1a0c"/><g transform="rotate(0 160 154)">
    <rect x="150" y="154" width="20" height="18" fill="#d9822b"/>
    <rect x="150" y="172" width="20" height="14" fill="#2a1a0c"/>
    <animateTransform attributeName="transform" type="rotate" calcMode="discrete" values="-18.0 160 154;-5.9 160 154;5.9 160 154;18.0 160 154;5.9 160 154;-5.9 160 154" keyTimes="0.0000;0.1667;0.3333;0.5000;0.6667;0.8333" dur="1.2000000000000002s" repeatCount="indefinite" />
  </g>
</svg>