<svg xmlns="http://www.w3.org/2000/svg" width="256" height="232" viewBox="0 0 256 232">
  <title>Horse - 3DPixelZodiac</title>
  <g transform="rotate(0 72 160)">
    <rect x="63" y="160" width="18" height="43" fill="#b06a35"/>
    <rect x="63" y="203" width="18" height="13" fill="#241608"/>
    <animateTransform attributeName="transform" type="rotate" calcMode="discrete" values="18.0 72 160;5.9 72 160;-5.9 72 160;-18.0 72 160;-5.9 72 160;5.9 72 160" keyTimes="0.0000;0.1667;0.3333;0.5000;0.6667;0.8333" dur="1.2000000000000002s" repeatCount="indefinite" />
  </g><rect x="152" y="24" width="8" height="8" fill="#241608"/><rect x="224" y="24" width="8" height="8" fill="#241608"/><rect x="144" y="32" width="8" height="8" fill="#241608"/><rect x="152" y="32" width="8" height="8" fill="#b06a35"/><rect x="160" y="32" width="64" height="8" fill="#241608"/><rect x="224" y="32" width="8" height="8" fill="#b06a35"/><rect x="232" y="32" width="8" height="8" fill="#241608"/><rect x="136" y="40" width="8" height="8" fill="#241608"/><rect x="144" y="40" width="72" height="8" fill="#3b2412"/><rect x="216" y="40" width="8" height="8" fill="#241608"/><rect x="224" y="40" width="8" height="8" fill="#b06a35"/><rect x="232" y="40" width="8" height="8" fill="#241608"/><rect x="128" y="48" width="16" height="8" fill="#241608"/><rect x="144" y="48" width="72" height="8" fill="#3b2412"/><rect x="216" y="48" width="8" height="8" fill="#241608"/><rect x="224" y="48" width="8" height="8" fill="#b06a35"/><rect x="232" y="48" width="8" height="8" fill="#241608"/><rect x="120" y="56" width="8" height="8" fill="#241608"/><rect x="128" y="56" width="88" height="8" fill="#3b2412"/><rect x="216" y="56" width="16" height="8" fill="#b06a35"/><rect x="232" y="56" width="8" height="8" fill="#241608"/><rect x="120" y="64" width="8" height="8" fill="#241608"/><rect x="128" y="64" width="24" height="8" fill="#3b2412"/><rect x="152" y="64" width="80" height="8" fill="#b06a35"/><rect x="232" y="64" width="8" height="8" fill="#241608"/><rect x="80" y="72" width="48" height="8" fill="#241608"/><rect x="128" y="72" width="24" height="8" fill="#3b2412"/><rect x="152" y="72" width="80" height="8" fill="#b06a35"/><rect x="232" y="72" width="8" height="8" fill="#241608"/><rect x="64" y="80" width="16" height="8" fill="#241608"/><rect x="80" y="80" width="48" height="8" fill="#b06a35"/><rect x="128" y="80" width="24" height="8" fill="#3b2412"/><rect x="152" y="80" width="64" height="8" fill="#b06a35"/><rect x="216" y="80" width="16" height="8" fill="#241608"/><rect x="16" y="88" width="24" height="8" fill="#241608"/><rect x="56" y="88" width="8" height="8" fill="#241608"/><rect x="64" y="88" width="64" height="8" fill="#b06a35"/><rect x="128" y="88" width="24" height="8" fill="#3b2412"/><rect x="152" y="88" width="80" height="8" fill="#b06a35"/><rect x="232" y="88" width="8" height="8" fill="#241608"/><rect x="8" y="96" width="8" height="8" fill="#241608"/><rect x="16" y="96" width="24" height="8" fill="#3b2412"/><rect x="40" y="96" width="16" height="8" fill="#241608"/><rect x="56" y="96" width="72" height="8" fill="#b06a35"/><rect x="128" y="96" width="24" height="8" fill="#3b2412"/><rect x="152" y="96" width="40" height="8" fill="#b06a35"/><rect x="192" y="96" width="8" height="8" fill="#141116"/><rect x="200" y="96" width="40" height="8" fill="#b06a35"/><rect x="240" y="96" width="8" height="8" fill="#241608"/><rect x="8" y="104" width="8" height="8" fill="#241608"/><rect x="16" y="104" width="24" height="8" fill="#3b2412"/><rect x="40" y="104" width="8" height="8" fill="#241608"/><rect x="48" y="104" width="192" height="8" fill="#b06a35"/><rect x="240" y="104" width="8" height="8" fill="#241608"/><rect x="8" y="112" width="8" height="8" fill="#241608"/><rect x="16" y="112" width="24" height="8" fill="#3b2412"/><rect x="40" y="112" width="8" height="8" fill="#241608"/><rect x="48" y="112" width="48" height="8" fill="#b06a35"/><rect x="96" y="112" width="24" height="8" fill="#e8c79a"/><rect x="120" y="112" width="112" height="8" fill="#b06a35"/><rect x="232" y="112" width="8" height="8" fill="#241608"/><rect x="8" y="120" width="8" height="8" fill="#241608"/><rect x="16" y="120" width="24" height="8" fill="#3b2412"/><rect x="40" y="120" width="8" height="8" fill="#241608"/><rect x="48" y="120" width="24" height="8" fill="#b06a35"/><rect x="72" y="120" width="72" height="8" fill="#e8c79a"/><rect x="144" y="120" width="64" height="8" fill="#b06a35"/><rect x="208" y="120" width="24" height="8" fill="#241608"/><rect x="8" y="128" width="8" height="8" fill="#241608"/><rect x="16" y="128" width="24" height="8" fill="#3b2412"/><rect x="40" y="128" width="8" height="8" fill="#241608"/><rect x="48" y="128" width="16" height="8" fill="#b06a35"/><rect x="64" y="128" width="88" height="8" fill="#e8c79a"/><rect x="152" y="128" width="40" height="8" fill="#b06a35"/><rect x="192" y="128" width="16" height="8" fill="#241608"/><rect x="8" y="136" width="8" height="8" fill="#241608"/><rect x="16" y="136" width="24" height="8" fill="#3b2412"/><rect x="40" y="136" width="16" height="8" fill="#241608"/><rect x="56" y="136" width="8" height="8" fill="#b06a35"/><rect x="64" y="136" width="88" height="8" fill="#e8c79a"/><rect x="152" y="136" width="16" height="8" fill="#b06a35"/><rect x="168" y="136" width="24" height="8" fill="#241608"/><rect x="8" y="144" width="8" height="8" fill="#241608"/><rect x="16" y="144" width="24" height="8" fill="#3b2412"/><rect x="40" y="144" width="8" height="8" fill="#241608"/><rect x="56" y="144" width="8" height="8" fill="#241608"/><rect x="64" y="144" width="88" height="8" fill="#e8c79a"/><rect x="152" y="144" width="8" height="8" fill="#b06a35"/><rect x="160" y="144" width="8" height="8" fill="#241608"/><rect x="8" y="152" width="8" height="8" fill="#241608"/><rect x="16" y="152" width="24" height="8" fill="#3b2412"/><rect x="40" y="152" width="8" height="8" fill="#241608"/><rect x="64" y="152" width="8" height="8" fill="#241608"/><rect x="72" y="152" width="72" height="8" fill="#e8c79a"/><rect x="144" y="152" width="16" height="8" fill="#241608"/><rect x="8" y="160" width="8" height="8" fill="#241608"/><rect x="16" y="160" width="24" height="8" fill="#3b2412"/><rect x="40" y="160" width="8" height="8" fill="#241608"/><rect x="72" y="160" width="72" height="8" fill="#241608"/><rect x="16" y="168" width="24" height="8" fill="#241608"/><g transform="rotate(0 160 160)">
    <rect x="151" y="160" width="18" height="43" fill="#b06a35"/>
    <rect x="151" y="203" width="18" height="13" fill="#241608"/>
    <animateTransform attributeName="transform" type="rotate" calcMode="discrete" values="-18.0 160 160;-5.9 160 160;5.9 160 160;18.0 160 160;5.9 160 160;-5.9 160 160" keyTimes="0.0000;0.1667;0.3333;0.5000;0.6667;0.8333" dur="1.2000000000000002s" repeatCount="indefinite" />
  </g>
</svg>