<svg xmlns="http://www.w3.org/2000/svg" width="256" height="216" viewBox="0 0 256 216">
  <title>Dog - 3DPixelZodiac</title>
  <g transform="rotate(0 72 154)">
    <rect x="62" y="154" width="20" height="18" fill="#a9713f"/>
    <rect x="62" y="172" width="20" height="14" fill="#241a10"/>
    <animateTransform attributeName="transform" type="rotate" calcMode="discrete" values="18.0 72 154;5.9 72 154;-5.9 72 154;-18.0 72 154;-5.9 72 154;5.9 72 154" keyTimes="0.0000;0.1667;0.3333;0.5000;0.6667;0.8333" dur="1.2000000000000002s" repeatCount="indefinite" />
  </g><rect x="144" y="48" width="24" height="8" fill="#241a10"/><rect x="176" y="48" width="16" height="8" fill="#241a10"/><rect x="224" y="48" width="24" height="8" fill="#241a10"/><rect x="136" y="56" width="8" height="8" fill="#241a10"/><rect x="144" y="56" width="24" height="8" fill="#5a3a20"/><rect x="168" y="56" width="8" height="8" fill="#241a10"/><rect x="176" y="56" width="16" height="8" fill="#a9713f"/><rect x="192" y="56" width="16" height="8" fill="#241a10"/><rect x="216" y="56" width="8" height="8" fill="#241a10"/><rect x="224" y="56" width="24" height="8" fill="#5a3a20"/><rect x="248" y="56" width="8" height="8" fill="#241a10"/><rect x="16" y="64" width="24" height="8" fill="#241a10"/><rect x="136" y="64" width="8" height="8" fill="#241a10"/><rect x="144" y="64" width="16" height="8" fill="#5a3a20"/><rect x="160" y="64" width="48" height="8" fill="#a9713f"/><rect x="208" y="64" width="16" height="8" fill="#241a10"/><rect x="224" y="64" width="24" height="8" fill="#5a3a20"/><rect x="248" y="64" width="8" height="8" fill="#241a10"/><rect x="8" y="72" width="8" height="8" fill="#241a10"/><rect x="16" y="72" width="24" height="8" fill="#a9713f"/><rect x="40" y="72" width="8" height="8" fill="#241a10"/><rect x="80" y="72" width="64" height="8" fill="#241a10"/><rect x="144" y="72" width="8" height="8" fill="#5a3a20"/><rect x="152" y="72" width="64" height="8" fill="#a9713f"/><rect x="216" y="72" width="8" height="8" fill="#241a10"/><rect x="224" y="72" width="24" height="8" fill="#5a3a20"/><rect x="248" y="72" width="8" height="8" fill="#241a10"/><rect x="8" y="80" width="8" height="8" fill="#241a10"/><rect x="16" y="80" width="32" height="8" fill="#a9713f"/><rect x="48" y="80" width="8" height="8" fill="#241a10"/><rect x="64" y="80" width="16" height="8" fill="#241a10"/><rect x="80" y="80" width="64" height="8" fill="#a9713f"/><rect x="144" y="80" width="8" height="8" fill="#5a3a20"/><rect x="152" y="80" width="64" height="8" fill="#a9713f"/><rect x="216" y="80" width="8" height="8" fill="#241a10"/><rect x="224" y="80" width="24" height="8" fill="#5a3a20"/><rect x="248" y="80" width="8" height="8" fill="#241a10"/><rect x="8" y="88" width="8" height="8" fill="#241a10"/><rect x="16" y="88" width="32" height="8" fill="#a9713f"/><rect x="48" y="88" width="16" height="8" fill="#241a10"/><rect x="64" y="88" width="144" height="8" fill="#a9713f"/><rect x="208" y="88" width="40" height="8" fill="#5a3a20"/><rect x="248" y="88" width="8" height="8" fill="#241a10"/><rect x="16" y="96" width="8" height="8" fill="#241a10"/><rect x="24" y="96" width="24" height="8" fill="#a9713f"/><rect x="48" y="96" width="8" height="8" fill="#241a10"/><rect x="56" y="96" width="136" height="8" fill="#a9713f"/><rect x="192" y="96" width="8" height="8" fill="#141116"/><rect x="200" y="96" width="56" height="8" fill="#5a3a20"/><rect x="16" y="104" width="8" height="8" fill="#241a10"/><rect x="24" y="104" width="120" height="8" fill="#a9713f"/><rect x="144" y="104" width="8" height="8" fill="#5a3a20"/><rect x="152" y="104" width="48" height="8" fill="#a9713f"/><rect x="200" y="104" width="56" height="8" fill="#5a3a20"/><rect x="24" y="112" width="24" height="8" fill="#241a10"/><rect x="48" y="112" width="48" height="8" fill="#a9713f"/><rect x="96" y="112" width="24" height="8" fill="#e9cfa0"/><rect x="120" y="112" width="24" height="8" fill="#a9713f"/><rect x="144" y="112" width="8" height="8" fill="#5a3a20"/><rect x="152" y="112" width="56" height="8" fill="#a9713f"/><rect x="208" y="112" width="40" height="8" fill="#5a3a20"/><rect x="248" y="112" width="8" height="8" fill="#241a10"/><rect x="40" y="120" width="8" height="8" fill="#241a10"/><rect x="48" y="120" width="24" height="8" fill="#a9713f"/><rect x="72" y="120" width="72" height="8" fill="#e9cfa0"/><rect x="144" y="120" width="64" height="8" fill="#a9713f"/><rect x="208" y="120" width="40" height="8" fill="#241a10"/><rect x="40" y="128" width="8" height="8" fill="#241a10"/><rect x="48" y="128" width="16" height="8" fill="#a9713f"/><rect x="64" y="128" width="88" height="8" fill="#e9cfa0"/><rect x="152" y="128" width="40" height="8" fill="#a9713f"/><rect x="192" y="128" width="16" height="8" fill="#241a10"/><rect x="48" y="136" width="8" height="8" fill="#241a10"/><rect x="56" y="136" width="8" height="8" fill="#a9713f"/><rect x="64" y="136" width="80" height="8" fill="#e9cfa0"/><rect x="144" y="136" width="24" height="8" fill="#c0392b"/><rect x="168" y="136" width="24" height="8" fill="#241a10"/><rect x="56" y="144" width="8" height="8" fill="#241a10"/><rect x="64" y="144" width="80" height="8" fill="#e9cfa0"/><rect x="144" y="144" width="24" height="8" fill="#c0392b"/><rect x="168" y="144" width="8" height="8" fill="#241a10"/><rect x="64" y="152" width="8" height="8" fill="#241a10"/><rect x="72" y="152" width="72" height="8" fill="#e9cfa0"/><rect x="144" y="152" width="24" height="8" fill="#241a10"/><rect x="72" y="160" width="72" height="8" fill="#241a10"/><g transform="rotate(0 160 154)">
    <rect x="150" y="154" width="20" height="18" fill="#a9713f"/>
    <rect x="150" y="172" width="20" height="14" fill="#241a10"/>
    <animateTransform attributeName="transform" type="rotate" calcMode="discrete" values="-18.0 160 154;-5.9 160 154;5.9 160 154;18.0 160 154;5.9 160 154;-5.9 160 154" keyTimes="0.0000;0.1667;0.3333;0.5000;0.6667;0.8333" dur="1.2000000000000002s" repeatCount="indefinite" />
  </g>
</svg>