<svg xmlns="http://www.w3.org/2000/svg" width="256" height="216" viewBox="0 0 256 216">
  <title>Tiger - 3DPixelZodiac</title>
  <g transform="rotate(0 152 186)">
    <rect x="145" y="186" width="14" height="2" fill="#000000"/>
    <rect x="145" y="188" width="14" height="6" fill="#fff3df"/>
    <rect x="145" y="194" width="14" height="8" fill="#241206"/>
    <animateTransform attributeName="transform" type="rotate" calcMode="discrete" values="18.0 152 186;5.9 152 186;-5.9 152 186;-18.0 152 186;-5.9 152 186;5.9 152 186" keyTimes="0.0000;0.1667;0.3333;0.5000;0.6667;0.8333" dur="1.2000000000000002s" repeatCount="indefinite" />
  </g><rect x="60" y="4" width="8" height="4" fill="#241206"/><rect x="188" y="4" width="8" height="4" fill="#241206"/><rect x="56" y="8" width="4" height="4" fill="#241206"/><rect x="60" y="8" width="8" height="4" fill="#000000"/><rect x="68" y="8" width="4" height="4" fill="#241206"/><rect x="184" y="8" width="4" height="4" fill="#241206"/><rect x="188" y="8" width="8" height="4" fill="#000000"/><rect x="196" y="8" width="4" height="4" fill="#241206"/><rect x="52" y="12" width="4" height="4" fill="#241206"/><rect x="56" y="12" width="16" height="4" fill="#000000"/><rect x="72" y="12" width="4" height="4" fill="#241206"/><rect x="116" y="12" width="28" height="4" fill="#241206"/><rect x="180" y="12" width="4" height="4" fill="#241206"/><rect x="184" y="12" width="16" height="4" fill="#000000"/><rect x="200" y="12" width="4" height="4" fill="#241206"/><rect x="48" y="16" width="4" height="4" fill="#241206"/><rect x="52" y="16" width="4" height="4" fill="#f0821e"/><rect x="56" y="16" width="16" height="4" fill="#000000"/><rect x="72" y="16" width="4" height="4" fill="#f0821e"/><rect x="76" y="16" width="4" height="4" fill="#241206"/><rect x="92" y="16" width="8" height="4" fill="#241206"/><rect x="108" y="16" width="8" height="4" fill="#241206"/><rect x="116" y="16" width="8" height="4" fill="#000000"/><rect x="124" y="16" width="12" height="4" fill="#f0821e"/><rect x="136" y="16" width="8" height="4" fill="#000000"/><rect x="144" y="16" width="4" height="4" fill="#241206"/><rect x="160" y="16" width="8" height="4" fill="#241206"/><rect x="176" y="16" width="4" height="4" fill="#241206"/><rect x="180" y="16" width="4" height="4" fill="#f0821e"/><rect x="184" y="16" width="16" height="4" fill="#000000"/><rect x="200" y="16" width="4" height="4" fill="#f0821e"/><rect x="204" y="16" width="4" height="4" fill="#241206"/><rect x="44" y="20" width="4" height="4" fill="#241206"/><rect x="48" y="20" width="12" height="4" fill="#f0821e"/><rect x="60" y="20" width="8" height="4" fill="#000000"/><rect x="68" y="20" width="12" height="4" fill="#f0821e"/><rect x="80" y="20" width="4" height="4" fill="#241206"/><rect x="88" y="20" width="4" height="4" fill="#241206"/><rect x="92" y="20" width="8" height="4" fill="#000000"/><rect x="100" y="20" width="8" height="4" fill="#241206"/><rect x="108" y="20" width="8" height="4" fill="#f0821e"/><rect x="116" y="20" width="8" height="4" fill="#000000"/><rect x="124" y="20" width="12" height="4" fill="#f0821e"/><rect x="136" y="20" width="8" height="4" fill="#000000"/><rect x="144" y="20" width="4" height="4" fill="#f0821e"/><rect x="148" y="20" width="12" height="4" fill="#241206"/><rect x="160" y="20" width="8" height="4" fill="#000000"/><rect x="168" y="20" width="8" height="4" fill="#241206"/><rect x="176" y="20" width="12" height="4" fill="#f0821e"/><rect x="188" y="20" width="8" height="4" fill="#000000"/><rect x="196" y="20" width="12" height="4" fill="#f0821e"/><rect x="208" y="20" width="4" height="4" fill="#241206"/><rect x="40" y="24" width="4" height="4" fill="#241206"/><rect x="44" y="24" width="40" height="4" fill="#f0821e"/><rect x="84" y="24" width="8" height="4" fill="#241206"/><rect x="92" y="24" width="8" height="4" fill="#000000"/><rect x="100" y="24" width="16" height="4" fill="#f0821e"/><rect x="116" y="24" width="8" height="4" fill="#000000"/><rect x="124" y="24" width="12" height="4" fill="#f0821e"/><rect x="136" y="24" width="8" height="4" fill="#000000"/><rect x="144" y="24" width="12" height="4" fill="#f0821e"/><rect x="156" y="24" width="4" height="4" fill="#241206"/><rect x="160" y="24" width="8" height="4" fill="#000000"/><rect x="168" y="24" width="4" height="4" fill="#241206"/><rect x="172" y="24" width="40" height="4" fill="#f0821e"/><rect x="212" y="24" width="4" height="4" fill="#241206"/><rect x="40" y="28" width="4" height="4" fill="#241206"/><rect x="44" y="28" width="40" height="4" fill="#f0821e"/><rect x="84" y="28" width="8" height="4" fill="#241206"/><rect x="92" y="28" width="8" height="4" fill="#000000"/><rect x="100" y="28" width="16" height="4" fill="#f0821e"/><rect x="116" y="28" width="8" height="4" fill="#000000"/><rect x="124" y="28" width="12" height="4" fill="#f0821e"/><rect x="136" y="28" width="8" height="4" fill="#000000"/><rect x="144" y="28" width="16" height="4" fill="#f0821e"/><rect x="160" y="28" width="8" height="4" fill="#000000"/><rect x="168" y="28" width="4" height="4" fill="#241206"/><rect x="172" y="28" width="40" height="4" fill="#f0821e"/><rect x="212" y="28" width="4" height="4" fill="#241206"/><rect x="36" y="32" width="4" height="4" fill="#241206"/><rect x="40" y="32" width="48" height="4" fill="#f0821e"/><rect x="88" y="32" width="4" height="4" fill="#241206"/><rect x="92" y="32" width="8" height="4" fill="#000000"/><rect x="100" y="32" width="16" height="4" fill="#f0821e"/><rect x="116" y="32" width="8" height="4" fill="#000000"/><rect x="124" y="32" width="12" height="4" fill="#f0821e"/><rect x="136" y="32" width="8" height="4" fill="#000000"/><rect x="144" y="32" width="16" height="4" fill="#f0821e"/><rect x="160" y="32" width="8" height="4" fill="#000000"/><rect x="168" y="32" width="48" height="4" fill="#f0821e"/><rect x="216" y="32" width="4" height="4" fill="#241206"/><rect x="36" y="36" width="4" height="4" fill="#241206"/><rect x="40" y="36" width="52" height="4" fill="#f0821e"/><rect x="92" y="36" width="8" height="4" fill="#000000"/><rect x="100" y="36" width="16" height="4" fill="#f0821e"/><rect x="116" y="36" width="8" height="4" fill="#000000"/><rect x="124" y="36" width="12" height="4" fill="#f0821e"/><rect x="136" y="36" width="8" height="4" fill="#000000"/><rect x="144" y="36" width="16" height="4" fill="#f0821e"/><rect x="160" y="36" width="8" height="4" fill="#000000"/><rect x="168" y="36" width="48" height="4" fill="#f0821e"/><rect x="216" y="36" width="4" height="4" fill="#241206"/><rect x="40" y="40" width="4" height="4" fill="#241206"/><rect x="44" y="40" width="40" height="4" fill="#f0821e"/><rect x="84" y="40" width="4" height="4" fill="#241206"/><rect x="88" y="40" width="4" height="4" fill="#f0821e"/><rect x="92" y="40" width="8" height="4" fill="#000000"/><rect x="100" y="40" width="16" height="4" fill="#f0821e"/><rect x="116" y="40" width="8" height="4" fill="#000000"/><rect x="124" y="40" width="12" height="4" fill="#f0821e"/><rect x="136" y="40" width="8" height="4" fill="#000000"/><rect x="144" y="40" width="16" height="4" fill="#f0821e"/><rect x="160" y="40" width="8" height="4" fill="#000000"/><rect x="168" y="40" width="4" height="4" fill="#241206"/><rect x="172" y="40" width="40" height="4" fill="#f0821e"/><rect x="212" y="40" width="4" height="4" fill="#241206"/><rect x="40" y="44" width="4" height="4" fill="#241206"/><rect x="44" y="44" width="48" height="4" fill="#f0821e"/><rect x="92" y="44" width="8" height="4" fill="#000000"/><rect x="100" y="44" width="16" height="4" fill="#f0821e"/><rect x="116" y="44" width="8" height="4" fill="#000000"/><rect x="124" y="44" width="12" height="4" fill="#f0821e"/><rect x="136" y="44" width="8" height="4" fill="#000000"/><rect x="144" y="44" width="16" height="4" fill="#f0821e"/><rect x="160" y="44" width="8" height="4" fill="#000000"/><rect x="168" y="44" width="44" height="4" fill="#f0821e"/><rect x="212" y="44" width="4" height="4" fill="#241206"/><rect x="40" y="48" width="4" height="4" fill="#241206"/><rect x="44" y="48" width="168" height="4" fill="#f0821e"/><rect x="212" y="48" width="4" height="4" fill="#241206"/><rect x="44" y="52" width="4" height="4" fill="#241206"/><rect x="48" y="52" width="160" height="4" fill="#f0821e"/><rect x="208" y="52" width="4" height="4" fill="#241206"/><rect x="48" y="56" width="8" height="4" fill="#241206"/><rect x="56" y="56" width="16" height="4" fill="#f0821e"/><rect x="72" y="56" width="8" height="4" fill="#241206"/><rect x="80" y="56" width="96" height="4" fill="#f0821e"/><rect x="176" y="56" width="8" height="4" fill="#241206"/><rect x="184" y="56" width="16" height="4" fill="#f0821e"/><rect x="200" y="56" width="8" height="4" fill="#241206"/><rect x="56" y="60" width="16" height="4" fill="#241206"/><rect x="76" y="60" width="4" height="4" fill="#241206"/><rect x="80" y="60" width="24" height="4" fill="#f0821e"/><rect x="104" y="60" width="8" height="4" fill="#141116"/><rect x="112" y="60" width="40" height="4" fill="#f0821e"/><rect x="152" y="60" width="8" height="4" fill="#141116"/><rect x="160" y="60" width="16" height="4" fill="#f0821e"/><rect x="176" y="60" width="4" height="4" fill="#241206"/><rect x="184" y="60" width="16" height="4" fill="#241206"/><rect x="76" y="64" width="4" height="4" fill="#241206"/><rect x="80" y="64" width="24" height="4" fill="#f0821e"/><rect x="104" y="64" width="8" height="4" fill="#141116"/><rect x="112" y="64" width="32" height="4" fill="#fff3df"/><rect x="144" y="64" width="8" height="4" fill="#f0821e"/><rect x="152" y="64" width="8" height="4" fill="#141116"/><rect x="160" y="64" width="16" height="4" fill="#f0821e"/><rect x="176" y="64" width="4" height="4" fill="#241206"/><rect x="76" y="68" width="4" height="4" fill="#241206"/><rect x="80" y="68" width="24" height="4" fill="#f0821e"/><rect x="104" y="68" width="48" height="4" fill="#fff3df"/><rect x="152" y="68" width="24" height="4" fill="#f0821e"/><rect x="176" y="68" width="4" height="4" fill="#241206"/><rect x="76" y="72" width="4" height="4" fill="#241206"/><rect x="80" y="72" width="20" height="4" fill="#f0821e"/><rect x="100" y="72" width="56" height="4" fill="#fff3df"/><rect x="156" y="72" width="20" height="4" fill="#f0821e"/><rect x="176" y="72" width="4" height="4" fill="#241206"/><rect x="76" y="76" width="4" height="4" fill="#241206"/><rect x="80" y="76" width="16" height="4" fill="#f0821e"/><rect x="96" y="76" width="64" height="4" fill="#fff3df"/><rect x="160" y="76" width="16" height="4" fill="#f0821e"/><rect x="176" y="76" width="4" height="4" fill="#241206"/><rect x="80" y="80" width="4" height="4" fill="#241206"/><rect x="84" y="80" width="4" height="4" fill="#f0821e"/><rect x="88" y="80" width="8" height="4" fill="#000000"/><rect x="96" y="80" width="64" height="4" fill="#fff3df"/><rect x="160" y="80" width="8" height="4" fill="#000000"/><rect x="168" y="80" width="4" height="4" fill="#f0821e"/><rect x="172" y="80" width="4" height="4" fill="#241206"/><rect x="80" y="84" width="4" height="4" fill="#241206"/><rect x="84" y="84" width="4" height="4" fill="#f0821e"/><rect x="88" y="84" width="8" height="4" fill="#000000"/><rect x="96" y="84" width="24" height="4" fill="#fff3df"/><rect x="120" y="84" width="12" height="4" fill="#000000"/><rect x="132" y="84" width="28" height="4" fill="#fff3df"/><rect x="160" y="84" width="8" height="4" fill="#000000"/><rect x="168" y="84" width="4" height="4" fill="#f0821e"/><rect x="172" y="84" width="4" height="4" fill="#241206"/><rect x="84" y="88" width="4" height="4" fill="#241206"/><rect x="88" y="88" width="8" height="4" fill="#000000"/><rect x="96" y="88" width="24" height="4" fill="#fff3df"/><rect x="120" y="88" width="12" height="4" fill="#000000"/><rect x="132" y="88" width="28" height="4" fill="#fff3df"/><rect x="160" y="88" width="8" height="4" fill="#000000"/><rect x="168" y="88" width="4" height="4" fill="#241206"/><rect x="84" y="92" width="4" height="4" fill="#241206"/><rect x="88" y="92" width="8" height="4" fill="#000000"/><rect x="96" y="92" width="64" height="4" fill="#fff3df"/><rect x="160" y="92" width="8" height="4" fill="#000000"/><rect x="168" y="92" width="4" height="4" fill="#241206"/><rect x="204" y="92" width="8" height="4" fill="#241206"/><rect x="88" y="96" width="4" height="4" fill="#241206"/><rect x="92" y="96" width="4" height="4" fill="#f0821e"/><rect x="96" y="96" width="64" height="4" fill="#fff3df"/><rect x="160" y="96" width="4" height="4" fill="#f0821e"/><rect x="164" y="96" width="4" height="4" fill="#241206"/><rect x="200" y="96" width="4" height="4" fill="#241206"/><rect x="204" y="96" width="8" height="4" fill="#000000"/><rect x="212" y="96" width="4" height="4" fill="#241206"/><rect x="88" y="100" width="4" height="4" fill="#241206"/><rect x="92" y="100" width="8" height="4" fill="#f0821e"/><rect x="100" y="100" width="56" height="4" fill="#fff3df"/><rect x="156" y="100" width="8" height="4" fill="#f0821e"/><rect x="164" y="100" width="4" height="4" fill="#241206"/><rect x="196" y="100" width="4" height="4" fill="#241206"/><rect x="200" y="100" width="16" height="4" fill="#000000"/><rect x="216" y="100" width="4" height="4" fill="#241206"/><rect x="76" y="104" width="12" height="4" fill="#241206"/><rect x="88" y="104" width="8" height="4" fill="#f0821e"/><rect x="96" y="104" width="4" height="4" fill="#000000"/><rect x="100" y="104" width="56" height="4" fill="#fff3df"/><rect x="156" y="104" width="4" height="4" fill="#000000"/><rect x="160" y="104" width="8" height="4" fill="#f0821e"/><rect x="168" y="104" width="12" height="4" fill="#241206"/><rect x="196" y="104" width="4" height="4" fill="#241206"/><rect x="200" y="104" width="16" height="4" fill="#000000"/><rect x="216" y="104" width="4" height="4" fill="#241206"/><rect x="72" y="108" width="4" height="4" fill="#241206"/><rect x="76" y="108" width="12" height="4" fill="#000000"/><rect x="88" y="108" width="8" height="4" fill="#f0821e"/><rect x="96" y="108" width="8" height="4" fill="#000000"/><rect x="104" y="108" width="48" height="4" fill="#fff3df"/><rect x="152" y="108" width="8" height="4" fill="#000000"/><rect x="160" y="108" width="8" height="4" fill="#f0821e"/><rect x="168" y="108" width="12" height="4" fill="#000000"/><rect x="180" y="108" width="4" height="4" fill="#241206"/><rect x="196" y="108" width="4" height="4" fill="#241206"/><rect x="200" y="108" width="12" height="4" fill="#000000"/><rect x="212" y="108" width="4" height="4" fill="#f0821e"/><rect x="216" y="108" width="4" height="4" fill="#241206"/><rect x="72" y="112" width="4" height="4" fill="#241206"/><rect x="76" y="112" width="12" height="4" fill="#000000"/><rect x="88" y="112" width="8" height="4" fill="#f0821e"/><rect x="96" y="112" width="12" height="4" fill="#000000"/><rect x="108" y="112" width="4" height="4" fill="#f0821e"/><rect x="112" y="112" width="32" height="4" fill="#fff3df"/><rect x="144" y="112" width="4" height="4" fill="#f0821e"/><rect x="148" y="112" width="12" height="4" fill="#000000"/><rect x="160" y="112" width="8" height="4" fill="#f0821e"/><rect x="168" y="112" width="12" height="4" fill="#000000"/><rect x="180" y="112" width="4" height="4" fill="#241206"/><rect x="196" y="112" width="4" height="4" fill="#241206"/><rect x="200" y="112" width="20" height="4" fill="#f0821e"/><rect x="220" y="112" width="4" height="4" fill="#241206"/><rect x="72" y="116" width="4" height="4" fill="#241206"/><rect x="76" y="116" width="12" height="4" fill="#000000"/><rect x="88" y="116" width="8" height="4" fill="#f0821e"/><rect x="96" y="116" width="12" height="4" fill="#000000"/><rect x="108" y="116" width="40" height="4" fill="#f0821e"/><rect x="148" y="116" width="12" height="4" fill="#000000"/><rect x="160" y="116" width="8" height="4" fill="#f0821e"/><rect x="168" y="116" width="12" height="4" fill="#000000"/><rect x="180" y="116" width="4" height="4" fill="#241206"/><rect x="196" y="116" width="4" height="4" fill="#241206"/><rect x="200" y="116" width="12" height="4" fill="#000000"/><rect x="212" y="116" width="12" height="4" fill="#f0821e"/><rect x="224" y="116" width="4" height="4" fill="#241206"/><rect x="68" y="120" width="4" height="4" fill="#241206"/><rect x="72" y="120" width="4" height="4" fill="#f0821e"/><rect x="76" y="120" width="12" height="4" fill="#000000"/><rect x="88" y="120" width="8" height="4" fill="#f0821e"/><rect x="96" y="120" width="12" height="4" fill="#000000"/><rect x="108" y="120" width="40" height="4" fill="#f0821e"/><rect x="148" y="120" width="12" height="4" fill="#000000"/><rect x="160" y="120" width="8" height="4" fill="#f0821e"/><rect x="168" y="120" width="12" height="4" fill="#000000"/><rect x="180" y="120" width="4" height="4" fill="#f0821e"/><rect x="184" y="120" width="4" height="4" fill="#241206"/><rect x="196" y="120" width="4" height="4" fill="#241206"/><rect x="200" y="120" width="12" height="4" fill="#000000"/><rect x="212" y="120" width="12" height="4" fill="#f0821e"/><rect x="224" y="120" width="4" height="4" fill="#241206"/><rect x="68" y="124" width="4" height="4" fill="#241206"/><rect x="72" y="124" width="4" height="4" fill="#f0821e"/><rect x="76" y="124" width="12" height="4" fill="#000000"/><rect x="88" y="124" width="8" height="4" fill="#f0821e"/><rect x="96" y="124" width="12" height="4" fill="#000000"/><rect x="108" y="124" width="40" height="4" fill="#f0821e"/><rect x="148" y="124" width="12" height="4" fill="#000000"/><rect x="160" y="124" width="8" height="4" fill="#f0821e"/><rect x="168" y="124" width="12" height="4" fill="#000000"/><rect x="180" y="124" width="4" height="4" fill="#f0821e"/><rect x="184" y="124" width="4" height="4" fill="#241206"/><rect x="200" y="124" width="4" height="4" fill="#241206"/><rect x="204" y="124" width="20" height="4" fill="#f0821e"/><rect x="224" y="124" width="4" height="4" fill="#241206"/><rect x="68" y="128" width="4" height="4" fill="#241206"/><rect x="72" y="128" width="4" height="4" fill="#f0821e"/><rect x="76" y="128" width="12" height="4" fill="#000000"/><rect x="88" y="128" width="8" height="4" fill="#f0821e"/><rect x="96" y="128" width="12" height="4" fill="#000000"/><rect x="108" y="128" width="40" height="4" fill="#f0821e"/><rect x="148" y="128" width="12" height="4" fill="#000000"/><rect x="160" y="128" width="8" height="4" fill="#f0821e"/><rect x="168" y="128" width="12" height="4" fill="#000000"/><rect x="180" y="128" width="4" height="4" fill="#f0821e"/><rect x="184" y="128" width="4" height="4" fill="#241206"/><rect x="192" y="128" width="8" height="4" fill="#241206"/><rect x="200" y="128" width="24" height="4" fill="#f0821e"/><rect x="224" y="128" width="4" height="4" fill="#241206"/><rect x="64" y="132" width="4" height="4" fill="#241206"/><rect x="68" y="132" width="8" height="4" fill="#f0821e"/><rect x="76" y="132" width="12" height="4" fill="#000000"/><rect x="88" y="132" width="8" height="4" fill="#f0821e"/><rect x="96" y="132" width="12" height="4" fill="#000000"/><rect x="108" y="132" width="8" height="4" fill="#f0821e"/><rect x="116" y="132" width="24" height="4" fill="#fff3df"/><rect x="140" y="132" width="8" height="4" fill="#f0821e"/><rect x="148" y="132" width="12" height="4" fill="#000000"/><rect x="160" y="132" width="8" height="4" fill="#f0821e"/><rect x="168" y="132" width="12" height="4" fill="#000000"/><rect x="180" y="132" width="8" height="4" fill="#f0821e"/><rect x="188" y="132" width="4" height="4" fill="#241206"/><rect x="192" y="132" width="32" height="4" fill="#f0821e"/><rect x="224" y="132" width="4" height="4" fill="#241206"/><rect x="64" y="136" width="4" height="4" fill="#241206"/><rect x="68" y="136" width="8" height="4" fill="#f0821e"/><rect x="76" y="136" width="12" height="4" fill="#000000"/><rect x="88" y="136" width="8" height="4" fill="#f0821e"/><rect x="96" y="136" width="12" height="4" fill="#000000"/><rect x="108" y="136" width="40" height="4" fill="#fff3df"/><rect x="148" y="136" width="12" height="4" fill="#000000"/><rect x="160" y="136" width="8" height="4" fill="#f0821e"/><rect x="168" y="136" width="12" height="4" fill="#000000"/><rect x="180" y="136" width="40" height="4" fill="#f0821e"/><rect x="220" y="136" width="4" height="4" fill="#241206"/><rect x="64" y="140" width="4" height="4" fill="#241206"/><rect x="68" y="140" width="8" height="4" fill="#f0821e"/><rect x="76" y="140" width="12" height="4" fill="#000000"/><rect x="88" y="140" width="8" height="4" fill="#f0821e"/><rect x="96" y="140" width="12" height="4" fill="#000000"/><rect x="108" y="140" width="40" height="4" fill="#fff3df"/><rect x="148" y="140" width="12" height="4" fill="#000000"/><rect x="160" y="140" width="8" height="4" fill="#f0821e"/><rect x="168" y="140" width="8" height="4" fill="#000000"/><rect x="176" y="140" width="44" height="4" fill="#f0821e"/><rect x="220" y="140" width="4" height="4" fill="#241206"/><rect x="64" y="144" width="4" height="4" fill="#241206"/><rect x="68" y="144" width="8" height="4" fill="#f0821e"/><rect x="76" y="144" width="12" height="4" fill="#000000"/><rect x="88" y="144" width="8" height="4" fill="#f0821e"/><rect x="96" y="144" width="12" height="4" fill="#000000"/><rect x="108" y="144" width="40" height="4" fill="#fff3df"/><rect x="148" y="144" width="12" height="4" fill="#000000"/><rect x="160" y="144" width="8" height="4" fill="#f0821e"/><rect x="168" y="144" width="4" height="4" fill="#000000"/><rect x="172" y="144" width="44" height="4" fill="#f0821e"/><rect x="216" y="144" width="4" height="4" fill="#241206"/><rect x="64" y="148" width="4" height="4" fill="#241206"/><rect x="68" y="148" width="8" height="4" fill="#f0821e"/><rect x="76" y="148" width="12" height="4" fill="#000000"/><rect x="88" y="148" width="8" height="4" fill="#f0821e"/><rect x="96" y="148" width="12" height="4" fill="#000000"/><rect x="108" y="148" width="40" height="4" fill="#fff3df"/><rect x="148" y="148" width="12" height="4" fill="#000000"/><rect x="160" y="148" width="8" height="4" fill="#f0821e"/><rect x="168" y="148" width="4" height="4" fill="#000000"/><rect x="172" y="148" width="40" height="4" fill="#f0821e"/><rect x="212" y="148" width="4" height="4" fill="#241206"/><rect x="64" y="152" width="4" height="4" fill="#241206"/><rect x="68" y="152" width="8" height="4" fill="#f0821e"/><rect x="76" y="152" width="12" height="4" fill="#000000"/><rect x="88" y="152" width="4" height="4" fill="#f0821e"/><rect x="92" y="152" width="4" height="4" fill="#fff3df"/><rect x="96" y="152" width="12" height="4" fill="#000000"/><rect x="108" y="152" width="40" height="4" fill="#fff3df"/><rect x="148" y="152" width="12" height="4" fill="#000000"/><rect x="160" y="152" width="4" height="4" fill="#fff3df"/><rect x="164" y="152" width="4" height="4" fill="#f0821e"/><rect x="168" y="152" width="4" height="4" fill="#000000"/><rect x="172" y="152" width="32" height="4" fill="#f0821e"/><rect x="204" y="152" width="8" height="4" fill="#241206"/><rect x="68" y="156" width="4" height="4" fill="#241206"/><rect x="72" y="156" width="4" height="4" fill="#f0821e"/><rect x="76" y="156" width="12" height="4" fill="#000000"/><rect x="88" y="156" width="4" height="4" fill="#f0821e"/><rect x="92" y="156" width="4" height="4" fill="#fff3df"/><rect x="96" y="156" width="12" height="4" fill="#000000"/><rect x="108" y="156" width="40" height="4" fill="#fff3df"/><rect x="148" y="156" width="12" height="4" fill="#000000"/><rect x="160" y="156" width="4" height="4" fill="#fff3df"/><rect x="164" y="156" width="4" height="4" fill="#f0821e"/><rect x="168" y="156" width="4" height="4" fill="#000000"/><rect x="172" y="156" width="28" height="4" fill="#f0821e"/><rect x="200" y="156" width="4" height="4" fill="#241206"/><rect x="68" y="160" width="4" height="4" fill="#241206"/><rect x="72" y="160" width="4" height="4" fill="#f0821e"/><rect x="76" y="160" width="12" height="4" fill="#000000"/><rect x="88" y="160" width="4" height="4" fill="#f0821e"/><rect x="92" y="160" width="4" height="4" fill="#fff3df"/><rect x="96" y="160" width="12" height="4" fill="#000000"/><rect x="108" y="160" width="40" height="4" fill="#fff3df"/><rect x="148" y="160" width="12" height="4" fill="#000000"/><rect x="160" y="160" width="4" height="4" fill="#fff3df"/><rect x="164" y="160" width="4" height="4" fill="#f0821e"/><rect x="168" y="160" width="8" height="4" fill="#000000"/><rect x="176" y="160" width="16" height="4" fill="#f0821e"/><rect x="192" y="160" width="8" height="4" fill="#241206"/><rect x="68" y="164" width="4" height="4" fill="#241206"/><rect x="72" y="164" width="4" height="4" fill="#f0821e"/><rect x="76" y="164" width="12" height="4" fill="#000000"/><rect x="88" y="164" width="4" height="4" fill="#f0821e"/><rect x="92" y="164" width="4" height="4" fill="#fff3df"/><rect x="96" y="164" width="12" height="4" fill="#000000"/><rect x="108" y="164" width="40" height="4" fill="#fff3df"/><rect x="148" y="164" width="12" height="4" fill="#000000"/><rect x="160" y="164" width="4" height="4" fill="#fff3df"/><rect x="164" y="164" width="4" height="4" fill="#f0821e"/><rect x="168" y="164" width="12" height="4" fill="#000000"/><rect x="180" y="164" width="4" height="4" fill="#f0821e"/><rect x="184" y="164" width="8" height="4" fill="#241206"/><rect x="72" y="168" width="4" height="4" fill="#241206"/><rect x="76" y="168" width="8" height="4" fill="#000000"/><rect x="84" y="168" width="20" height="4" fill="#fff3df"/><rect x="104" y="168" width="4" height="4" fill="#000000"/><rect x="108" y="168" width="40" height="4" fill="#fff3df"/><rect x="148" y="168" width="4" height="4" fill="#000000"/><rect x="152" y="168" width="20" height="4" fill="#fff3df"/><rect x="172" y="168" width="8" height="4" fill="#000000"/><rect x="180" y="168" width="4" height="4" fill="#241206"/><rect x="76" y="172" width="4" height="4" fill="#241206"/><rect x="80" y="172" width="96" height="4" fill="#fff3df"/><rect x="176" y="172" width="4" height="4" fill="#241206"/><rect x="76" y="176" width="4" height="4" fill="#241206"/><rect x="80" y="176" width="96" height="4" fill="#fff3df"/><rect x="176" y="176" width="4" height="4" fill="#241206"/><rect x="76" y="180" width="4" height="4" fill="#241206"/><rect x="80" y="180" width="12" height="4" fill="#fff3df"/><rect x="92" y="180" width="8" height="4" fill="#000000"/><rect x="100" y="180" width="64" height="4" fill="#fff3df"/><rect x="164" y="180" width="8" height="4" fill="#000000"/><rect x="172" y="180" width="4" height="4" fill="#fff3df"/><rect x="176" y="180" width="4" height="4" fill="#241206"/><rect x="76" y="184" width="4" height="4" fill="#241206"/><rect x="80" y="184" width="12" height="4" fill="#fff3df"/><rect x="92" y="184" width="8" height="4" fill="#000000"/><rect x="100" y="184" width="64" height="4" fill="#fff3df"/><rect x="164" y="184" width="8" height="4" fill="#000000"/><rect x="172" y="184" width="4" height="4" fill="#fff3df"/><rect x="176" y="184" width="4" height="4" fill="#241206"/><rect x="80" y="188" width="4" height="4" fill="#241206"/><rect x="84" y="188" width="20" height="4" fill="#fff3df"/><rect x="104" y="188" width="4" height="4" fill="#f0821e"/><rect x="108" y="188" width="40" height="4" fill="#fff3df"/><rect x="148" y="188" width="4" height="4" fill="#f0821e"/><rect x="152" y="188" width="20" height="4" fill="#fff3df"/><rect x="172" y="188" width="4" height="4" fill="#241206"/><rect x="84" y="192" width="28" height="4" fill="#241206"/><rect x="112" y="192" width="4" height="4" fill="#f0821e"/><rect x="116" y="192" width="24" height="4" fill="#fff3df"/><rect x="140" y="192" width="4" height="4" fill="#f0821e"/><rect x="144" y="192" width="28" height="4" fill="#241206"/><rect x="112" y="196" width="32" height="4" fill="#241206"/><g transform="rotate(0 104 186)">
    <rect x="97" y="186" width="14" height="2" fill="#000000"/>
    <rect x="97" y="188" width="14" height="6" fill="#fff3df"/>
    <rect x="97" y="194" width="14" height="8" fill="#241206"/>
    <animateTransform attributeName="transform" type="rotate" calcMode="discrete" values="-18.0 104 186;-5.9 104 186;5.9 104 186;18.0 104 186;5.9 104 186;-5.9 104 186" keyTimes="0.0000;0.1667;0.3333;0.5000;0.6667;0.8333" dur="1.2000000000000002s" repeatCount="indefinite" />
  </g>
</svg>