<svg xmlns="http://www.w3.org/2000/svg" width="256" height="216" viewBox="0 0 256 216">
  <title>Dog - 3DPixelZodiac</title>
  <g transform="rotate(0 72 154)">
    <rect x="62" y="154" width="20" height="21" fill="#d9822b"/>
    
    <rect x="62" y="175" width="20" height="11" fill="#2a1a0c"/>
    <animateTransform attributeName="transform" type="rotate" calcMode="discrete" values="18.0 72 154;5.9 72 154;-5.9 72 154;-18.0 72 154;-5.9 72 154;5.9 72 154" keyTimes="0.0000;0.1667;0.3333;0.5000;0.6667;0.8333" dur="1.2000000000000002s" repeatCount="indefinite" />
  </g><rect x="152" y="28" width="4" height="4" fill="#2a1a0c"/><rect x="228" y="28" width="4" height="4" fill="#2a1a0c"/><rect x="148" y="32" width="4" height="4" fill="#2a1a0c"/><rect x="152" y="32" width="4" height="4" fill="#d9822b"/><rect x="156" y="32" width="4" height="4" fill="#2a1a0c"/><rect x="224" y="32" width="4" height="4" fill="#2a1a0c"/><rect x="228" y="32" width="4" height="4" fill="#d9822b"/><rect x="232" y="32" width="4" height="4" fill="#2a1a0c"/><rect x="148" y="36" width="4" height="4" fill="#2a1a0c"/><rect x="152" y="36" width="4" height="4" fill="#d9822b"/><rect x="156" y="36" width="4" height="4" fill="#2a1a0c"/><rect x="224" y="36" width="4" height="4" fill="#2a1a0c"/><rect x="228" y="36" width="4" height="4" fill="#d9822b"/><rect x="232" y="36" width="4" height="4" fill="#2a1a0c"/><rect x="24" y="40" width="4" height="4" fill="#2a1a0c"/><rect x="148" y="40" width="4" height="4" fill="#2a1a0c"/><rect x="152" y="40" width="4" height="4" fill="#d9822b"/><rect x="156" y="40" width="4" height="4" fill="#2a1a0c"/><rect x="224" y="40" width="4" height="4" fill="#2a1a0c"/><rect x="228" y="40" width="4" height="4" fill="#d9822b"/><rect x="232" y="40" width="4" height="4" fill="#2a1a0c"/><rect x="16" y="44" width="8" height="4" fill="#2a1a0c"/><rect x="24" y="44" width="4" height="4" fill="#d9822b"/><rect x="28" y="44" width="20" height="4" fill="#2a1a0c"/><rect x="148" y="44" width="4" height="4" fill="#2a1a0c"/><rect x="152" y="44" width="8" height="4" fill="#d9822b"/><rect x="160" y="44" width="4" height="4" fill="#2a1a0c"/><rect x="220" y="44" width="4" height="4" fill="#2a1a0c"/><rect x="224" y="44" width="8" height="4" fill="#d9822b"/><rect x="232" y="44" width="4" height="4" fill="#2a1a0c"/><rect x="12" y="48" width="4" height="4" fill="#2a1a0c"/><rect x="16" y="48" width="24" height="4" fill="#d9822b"/><rect x="40" y="48" width="8" height="4" fill="#fdf6ea"/><rect x="48" y="48" width="4" height="4" fill="#2a1a0c"/><rect x="148" y="48" width="4" height="4" fill="#2a1a0c"/><rect x="152" y="48" width="12" height="4" fill="#d9822b"/><rect x="164" y="48" width="4" height="4" fill="#2a1a0c"/><rect x="216" y="48" width="4" height="4" fill="#2a1a0c"/><rect x="220" y="48" width="12" height="4" fill="#d9822b"/><rect x="232" y="48" width="4" height="4" fill="#2a1a0c"/><rect x="8" y="52" width="4" height="4" fill="#2a1a0c"/><rect x="12" y="52" width="24" height="4" fill="#d9822b"/><rect x="36" y="52" width="16" height="4" fill="#fdf6ea"/><rect x="52" y="52" width="4" height="4" fill="#2a1a0c"/><rect x="148" y="52" width="4" height="4" fill="#2a1a0c"/><rect x="152" y="52" width="12" height="4" fill="#d9822b"/><rect x="164" y="52" width="4" height="4" fill="#2a1a0c"/><rect x="216" y="52" width="4" height="4" fill="#2a1a0c"/><rect x="220" y="52" width="12" height="4" fill="#d9822b"/><rect x="232" y="52" width="4" height="4" fill="#2a1a0c"/><rect x="4" y="56" width="4" height="4" fill="#2a1a0c"/><rect x="8" y="56" width="28" height="4" fill="#d9822b"/><rect x="36" y="56" width="16" height="4" fill="#fdf6ea"/><rect x="52" y="56" width="4" height="4" fill="#2a1a0c"/><rect x="148" y="56" width="4" height="4" fill="#2a1a0c"/><rect x="152" y="56" width="16" height="4" fill="#d9822b"/><rect x="168" y="56" width="32" height="4" fill="#2a1a0c"/><rect x="212" y="56" width="4" height="4" fill="#2a1a0c"/><rect x="216" y="56" width="16" height="4" fill="#d9822b"/><rect x="232" y="56" width="4" height="4" fill="#2a1a0c"/><rect x="0" y="60" width="4" height="4" fill="#2a1a0c"/><rect x="4" y="60" width="36" height="4" fill="#d9822b"/><rect x="40" y="60" width="8" height="4" fill="#fdf6ea"/><rect x="48" y="60" width="4" height="4" fill="#2a1a0c"/><rect x="148" y="60" width="4" height="4" fill="#2a1a0c"/><rect x="152" y="60" width="48" height="4" fill="#d9822b"/><rect x="200" y="60" width="4" height="4" fill="#2a1a0c"/><rect x="212" y="60" width="4" height="4" fill="#2a1a0c"/><rect x="216" y="60" width="16" height="4" fill="#d9822b"/><rect x="232" y="60" width="4" height="4" fill="#2a1a0c"/><rect x="0" y="64" width="28" height="4" fill="#d9822b"/><rect x="28" y="64" width="20" height="4" fill="#2a1a0c"/><rect x="148" y="64" width="4" height="4" fill="#2a1a0c"/><rect x="152" y="64" width="52" height="4" fill="#d9822b"/><rect x="204" y="64" width="8" height="4" fill="#2a1a0c"/><rect x="212" y="64" width="20" height="4" fill="#d9822b"/><rect x="232" y="64" width="4" height="4" fill="#2a1a0c"/><rect x="0" y="68" width="24" height="4" fill="#d9822b"/><rect x="24" y="68" width="4" height="4" fill="#2a1a0c"/><rect x="148" y="68" width="4" height="4" fill="#2a1a0c"/><rect x="152" y="68" width="80" height="4" fill="#d9822b"/><rect x="232" y="68" width="4" height="4" fill="#2a1a0c"/><rect x="0" y="72" width="20" height="4" fill="#d9822b"/><rect x="20" y="72" width="4" height="4" fill="#2a1a0c"/><rect x="148" y="72" width="4" height="4" fill="#2a1a0c"/><rect x="152" y="72" width="80" height="4" fill="#d9822b"/><rect x="232" y="72" width="4" height="4" fill="#2a1a0c"/><rect x="0" y="76" width="20" height="4" fill="#d9822b"/><rect x="20" y="76" width="4" height="4" fill="#2a1a0c"/><rect x="92" y="76" width="40" height="4" fill="#2a1a0c"/><rect x="148" y="76" width="4" height="4" fill="#2a1a0c"/><rect x="152" y="76" width="40" height="4" fill="#d9822b"/><rect x="192" y="76" width="8" height="4" fill="#fdf6ea"/><rect x="200" y="76" width="32" height="4" fill="#d9822b"/><rect x="232" y="76" width="4" height="4" fill="#2a1a0c"/><rect x="0" y="80" width="20" height="4" fill="#d9822b"/><rect x="20" y="80" width="4" height="4" fill="#2a1a0c"/><rect x="76" y="80" width="16" height="4" fill="#2a1a0c"/><rect x="92" y="80" width="40" height="4" fill="#d9822b"/><rect x="132" y="80" width="16" height="4" fill="#2a1a0c"/><rect x="148" y="80" width="44" height="4" fill="#d9822b"/><rect x="192" y="80" width="8" height="4" fill="#fdf6ea"/><rect x="200" y="80" width="20" height="4" fill="#d9822b"/><rect x="220" y="80" width="12" height="4" fill="#2a1a0c"/><rect x="0" y="84" width="20" height="4" fill="#d9822b"/><rect x="20" y="84" width="4" height="4" fill="#2a1a0c"/><rect x="68" y="84" width="8" height="4" fill="#2a1a0c"/><rect x="76" y="84" width="144" height="4" fill="#d9822b"/><rect x="220" y="84" width="4" height="4" fill="#2a1a0c"/><rect x="0" y="88" width="24" height="4" fill="#d9822b"/><rect x="24" y="88" width="4" height="4" fill="#2a1a0c"/><rect x="60" y="88" width="8" height="4" fill="#2a1a0c"/><rect x="68" y="88" width="152" height="4" fill="#d9822b"/><rect x="220" y="88" width="8" height="4" fill="#2a1a0c"/><rect x="0" y="92" width="28" height="4" fill="#d9822b"/><rect x="28" y="92" width="4" height="4" fill="#2a1a0c"/><rect x="56" y="92" width="4" height="4" fill="#2a1a0c"/><rect x="60" y="92" width="132" height="4" fill="#d9822b"/><rect x="192" y="92" width="8" height="4" fill="#141116"/><rect x="200" y="92" width="12" height="4" fill="#d9822b"/><rect x="212" y="92" width="16" height="4" fill="#fdf6ea"/><rect x="228" y="92" width="4" height="4" fill="#2a1a0c"/><rect x="0" y="96" width="4" height="4" fill="#2a1a0c"/><rect x="4" y="96" width="28" height="4" fill="#d9822b"/><rect x="32" y="96" width="4" height="4" fill="#2a1a0c"/><rect x="52" y="96" width="4" height="4" fill="#2a1a0c"/><rect x="56" y="96" width="136" height="4" fill="#d9822b"/><rect x="192" y="96" width="8" height="4" fill="#141116"/><rect x="200" y="96" width="8" height="4" fill="#d9822b"/><rect x="208" y="96" width="24" height="4" fill="#fdf6ea"/><rect x="232" y="96" width="4" height="4" fill="#2a1a0c"/><rect x="0" y="100" width="4" height="4" fill="#2a1a0c"/><rect x="4" y="100" width="32" height="4" fill="#d9822b"/><rect x="36" y="100" width="4" height="4" fill="#2a1a0c"/><rect x="48" y="100" width="4" height="4" fill="#2a1a0c"/><rect x="52" y="100" width="156" height="4" fill="#d9822b"/><rect x="208" y="100" width="28" height="4" fill="#fdf6ea"/><rect x="236" y="100" width="4" height="4" fill="#2a1a0c"/><rect x="4" y="104" width="4" height="4" fill="#2a1a0c"/><rect x="8" y="104" width="28" height="4" fill="#d9822b"/><rect x="36" y="104" width="4" height="4" fill="#2a1a0c"/><rect x="44" y="104" width="4" height="4" fill="#2a1a0c"/><rect x="48" y="104" width="160" height="4" fill="#d9822b"/><rect x="208" y="104" width="28" height="4" fill="#fdf6ea"/><rect x="236" y="104" width="4" height="4" fill="#2a1a0c"/><rect x="8" y="108" width="4" height="4" fill="#2a1a0c"/><rect x="12" y="108" width="24" height="4" fill="#d9822b"/><rect x="36" y="108" width="4" height="4" fill="#2a1a0c"/><rect x="44" y="108" width="4" height="4" fill="#2a1a0c"/><rect x="48" y="108" width="160" height="4" fill="#d9822b"/><rect x="208" y="108" width="24" height="4" fill="#fdf6ea"/><rect x="232" y="108" width="4" height="4" fill="#2a1a0c"/><rect x="8" y="112" width="4" height="4" fill="#2a1a0c"/><rect x="12" y="112" width="24" height="4" fill="#d9822b"/><rect x="36" y="112" width="8" height="4" fill="#2a1a0c"/><rect x="44" y="112" width="168" height="4" fill="#d9822b"/><rect x="212" y="112" width="16" height="4" fill="#fdf6ea"/><rect x="228" y="112" width="4" height="4" fill="#2a1a0c"/><rect x="12" y="116" width="4" height="4" fill="#2a1a0c"/><rect x="16" y="116" width="16" height="4" fill="#d9822b"/><rect x="32" y="116" width="4" height="4" fill="#2a1a0c"/><rect x="40" y="116" width="4" height="4" fill="#2a1a0c"/><rect x="44" y="116" width="40" height="4" fill="#d9822b"/><rect x="84" y="116" width="48" height="4" fill="#fdf6ea"/><rect x="132" y="116" width="80" height="4" fill="#d9822b"/><rect x="212" y="116" width="16" height="4" fill="#2a1a0c"/><rect x="16" y="120" width="16" height="4" fill="#2a1a0c"/><rect x="40" y="120" width="4" height="4" fill="#2a1a0c"/><rect x="44" y="120" width="32" height="4" fill="#d9822b"/><rect x="76" y="120" width="64" height="4" fill="#fdf6ea"/><rect x="140" y="120" width="72" height="4" fill="#d9822b"/><rect x="212" y="120" width="4" height="4" fill="#2a1a0c"/><rect x="40" y="124" width="4" height="4" fill="#2a1a0c"/><rect x="44" y="124" width="24" height="4" fill="#d9822b"/><rect x="68" y="124" width="80" height="4" fill="#fdf6ea"/><rect x="148" y="124" width="56" height="4" fill="#d9822b"/><rect x="204" y="124" width="8" height="4" fill="#2a1a0c"/><rect x="44" y="128" width="4" height="4" fill="#2a1a0c"/><rect x="48" y="128" width="16" height="4" fill="#d9822b"/><rect x="64" y="128" width="88" height="4" fill="#fdf6ea"/><rect x="152" y="128" width="48" height="4" fill="#d9822b"/><rect x="200" y="128" width="4" height="4" fill="#2a1a0c"/><rect x="44" y="132" width="4" height="4" fill="#2a1a0c"/><rect x="48" y="132" width="12" height="4" fill="#d9822b"/><rect x="60" y="132" width="96" height="4" fill="#fdf6ea"/><rect x="156" y="132" width="20" height="4" fill="#d9822b"/><rect x="176" y="132" width="24" height="4" fill="#2a1a0c"/><rect x="48" y="136" width="4" height="4" fill="#2a1a0c"/><rect x="52" y="136" width="8" height="4" fill="#d9822b"/><rect x="60" y="136" width="96" height="4" fill="#fdf6ea"/><rect x="156" y="136" width="16" height="4" fill="#d9822b"/><rect x="172" y="136" width="4" height="4" fill="#2a1a0c"/><rect x="52" y="140" width="4" height="4" fill="#2a1a0c"/><rect x="56" y="140" width="4" height="4" fill="#d9822b"/><rect x="60" y="140" width="96" height="4" fill="#fdf6ea"/><rect x="156" y="140" width="12" height="4" fill="#d9822b"/><rect x="168" y="140" width="4" height="4" fill="#2a1a0c"/><rect x="56" y="144" width="4" height="4" fill="#2a1a0c"/><rect x="60" y="144" width="96" height="4" fill="#fdf6ea"/><rect x="156" y="144" width="8" height="4" fill="#d9822b"/><rect x="164" y="144" width="4" height="4" fill="#2a1a0c"/><rect x="60" y="148" width="4" height="4" fill="#2a1a0c"/><rect x="64" y="148" width="88" height="4" fill="#fdf6ea"/><rect x="152" y="148" width="4" height="4" fill="#d9822b"/><rect x="156" y="148" width="8" height="4" fill="#2a1a0c"/><rect x="64" y="152" width="8" height="4" fill="#2a1a0c"/><rect x="72" y="152" width="72" height="4" fill="#fdf6ea"/><rect x="144" y="152" width="4" height="4" fill="#d9822b"/><rect x="148" y="152" width="8" height="4" fill="#2a1a0c"/><rect x="72" y="156" width="8" height="4" fill="#2a1a0c"/><rect x="80" y="156" width="56" height="4" fill="#fdf6ea"/><rect x="136" y="156" width="12" height="4" fill="#2a1a0c"/><rect x="80" y="160" width="12" height="4" fill="#2a1a0c"/><rect x="92" y="160" width="32" height="4" fill="#fdf6ea"/><rect x="124" y="160" width="12" height="4" fill="#2a1a0c"/><rect x="92" y="164" width="32" height="4" fill="#2a1a0c"/><g transform="rotate(0 160 154)">
    <rect x="150" y="154" width="20" height="21" fill="#d9822b"/>
    
    <rect x="150" y="175" width="20" height="11" fill="#2a1a0c"/>
    <animateTransform attributeName="transform" type="rotate" calcMode="discrete" values="-18.0 160 154;-5.9 160 154;5.9 160 154;18.0 160 154;5.9 160 154;-5.9 160 154" keyTimes="0.0000;0.1667;0.3333;0.5000;0.6667;0.8333" dur="1.2000000000000002s" repeatCount="indefinite" />
  </g>
</svg>