<svg xmlns="http://www.w3.org/2000/svg" width="256" height="216" viewBox="0 0 256 216">
  <title>Rooster - 3DPixelZodiac</title>
  <g transform="rotate(0 96 154)">
    <rect x="91" y="154" width="10" height="24" fill="#f2c94c"/>
    
    <rect x="91" y="178" width="10" height="6" fill="#241206"/>
    <animateTransform attributeName="transform" type="rotate" calcMode="discrete" values="18.0 96 154;5.9 96 154;-5.9 96 154;-18.0 96 154;-5.9 96 154;5.9 96 154" keyTimes="0.0000;0.1667;0.3333;0.5000;0.6667;0.8333" dur="1.2000000000000002s" repeatCount="indefinite" />
  </g><g transform="rotate(0 136 88)">
    <rect x="135" y="87" width="58" height="50" fill="#241206"/>
    <rect x="136" y="88" width="56" height="48" fill="#c0392b"/>
    <animateTransform attributeName="transform" type="rotate" calcMode="discrete" values="-22.0 136 88;-7.3 136 88;7.3 136 88;22.0 136 88;7.3 136 88;-7.3 136 88" keyTimes="0.0000;0.1667;0.3333;0.5000;0.6667;0.8333" dur="1.2000000000000002s" repeatCount="indefinite" />
  </g><rect x="168" y="36" width="12" height="4" fill="#241206"/><rect x="164" y="40" width="4" height="4" fill="#241206"/><rect x="168" y="40" width="12" height="4" fill="#ff5b45"/><rect x="180" y="40" width="12" height="4" fill="#241206"/><rect x="24" y="44" width="16" height="4" fill="#241206"/><rect x="156" y="44" width="12" height="4" fill="#241206"/><rect x="168" y="44" width="24" height="4" fill="#ff5b45"/><rect x="192" y="44" width="4" height="4" fill="#241206"/><rect x="20" y="48" width="4" height="4" fill="#241206"/><rect x="24" y="48" width="16" height="4" fill="#f2c94c"/><rect x="40" y="48" width="4" height="4" fill="#241206"/><rect x="152" y="48" width="4" height="4" fill="#241206"/><rect x="156" y="48" width="36" height="4" fill="#ff5b45"/><rect x="192" y="48" width="4" height="4" fill="#241206"/><rect x="20" y="52" width="4" height="4" fill="#241206"/><rect x="24" y="52" width="16" height="4" fill="#f2c94c"/><rect x="40" y="52" width="16" height="4" fill="#241206"/><rect x="152" y="52" width="4" height="4" fill="#241206"/><rect x="156" y="52" width="36" height="4" fill="#ff5b45"/><rect x="192" y="52" width="4" height="4" fill="#241206"/><rect x="20" y="56" width="4" height="4" fill="#241206"/><rect x="24" y="56" width="16" height="4" fill="#f2c94c"/><rect x="40" y="56" width="16" height="4" fill="#2f9e5f"/><rect x="56" y="56" width="4" height="4" fill="#241206"/><rect x="152" y="56" width="4" height="4" fill="#241206"/><rect x="156" y="56" width="36" height="4" fill="#ff5b45"/><rect x="192" y="56" width="4" height="4" fill="#241206"/><rect x="8" y="60" width="16" height="4" fill="#241206"/><rect x="24" y="60" width="16" height="4" fill="#f2c94c"/><rect x="40" y="60" width="16" height="4" fill="#2f9e5f"/><rect x="56" y="60" width="4" height="4" fill="#241206"/><rect x="152" y="60" width="4" height="4" fill="#241206"/><rect x="156" y="60" width="36" height="4" fill="#ff5b45"/><rect x="192" y="60" width="4" height="4" fill="#241206"/><rect x="4" y="64" width="4" height="4" fill="#241206"/><rect x="8" y="64" width="16" height="4" fill="#c0392b"/><rect x="24" y="64" width="16" height="4" fill="#f2c94c"/><rect x="40" y="64" width="16" height="4" fill="#2f9e5f"/><rect x="56" y="64" width="4" height="4" fill="#241206"/><rect x="152" y="64" width="4" height="4" fill="#241206"/><rect x="156" y="64" width="36" height="4" fill="#ff5b45"/><rect x="192" y="64" width="4" height="4" fill="#241206"/><rect x="4" y="68" width="4" height="4" fill="#241206"/><rect x="8" y="68" width="16" height="4" fill="#c0392b"/><rect x="24" y="68" width="16" height="4" fill="#f2c94c"/><rect x="40" y="68" width="16" height="4" fill="#2f9e5f"/><rect x="56" y="68" width="4" height="4" fill="#241206"/><rect x="152" y="68" width="4" height="4" fill="#241206"/><rect x="156" y="68" width="12" height="4" fill="#ff5b45"/><rect x="168" y="68" width="28" height="4" fill="#c0392b"/><rect x="196" y="68" width="4" height="4" fill="#241206"/><rect x="4" y="72" width="4" height="4" fill="#241206"/><rect x="8" y="72" width="16" height="4" fill="#c0392b"/><rect x="24" y="72" width="16" height="4" fill="#f2c94c"/><rect x="40" y="72" width="16" height="4" fill="#2f9e5f"/><rect x="56" y="72" width="4" height="4" fill="#241206"/><rect x="148" y="72" width="4" height="4" fill="#241206"/><rect x="152" y="72" width="48" height="4" fill="#c0392b"/><rect x="200" y="72" width="4" height="4" fill="#241206"/><rect x="4" y="76" width="4" height="4" fill="#241206"/><rect x="8" y="76" width="16" height="4" fill="#c0392b"/><rect x="24" y="76" width="16" height="4" fill="#f2c94c"/><rect x="40" y="76" width="16" height="4" fill="#2f9e5f"/><rect x="56" y="76" width="4" height="4" fill="#241206"/><rect x="104" y="76" width="32" height="4" fill="#241206"/><rect x="144" y="76" width="4" height="4" fill="#241206"/><rect x="148" y="76" width="56" height="4" fill="#c0392b"/><rect x="204" y="76" width="4" height="4" fill="#241206"/><rect x="4" y="80" width="4" height="4" fill="#241206"/><rect x="8" y="80" width="16" height="4" fill="#c0392b"/><rect x="24" y="80" width="16" height="4" fill="#f2c94c"/><rect x="40" y="80" width="16" height="4" fill="#2f9e5f"/><rect x="56" y="80" width="4" height="4" fill="#241206"/><rect x="92" y="80" width="12" height="4" fill="#241206"/><rect x="104" y="80" width="32" height="4" fill="#c0392b"/><rect x="136" y="80" width="12" height="4" fill="#241206"/><rect x="148" y="80" width="56" height="4" fill="#c0392b"/><rect x="204" y="80" width="4" height="4" fill="#241206"/><rect x="4" y="84" width="4" height="4" fill="#241206"/><rect x="8" y="84" width="16" height="4" fill="#c0392b"/><rect x="24" y="84" width="16" height="4" fill="#f2c94c"/><rect x="40" y="84" width="16" height="4" fill="#2f9e5f"/><rect x="56" y="84" width="4" height="4" fill="#241206"/><rect x="84" y="84" width="8" height="4" fill="#241206"/><rect x="92" y="84" width="116" height="4" fill="#c0392b"/><rect x="208" y="84" width="4" height="4" fill="#241206"/><rect x="4" y="88" width="4" height="4" fill="#241206"/><rect x="8" y="88" width="16" height="4" fill="#c0392b"/><rect x="24" y="88" width="16" height="4" fill="#f2c94c"/><rect x="40" y="88" width="16" height="4" fill="#2f9e5f"/><rect x="56" y="88" width="4" height="4" fill="#241206"/><rect x="80" y="88" width="4" height="4" fill="#241206"/><rect x="84" y="88" width="100" height="4" fill="#c0392b"/><rect x="184" y="88" width="8" height="4" fill="#141116"/><rect x="192" y="88" width="16" height="4" fill="#c0392b"/><rect x="208" y="88" width="4" height="4" fill="#241206"/><rect x="4" y="92" width="4" height="4" fill="#241206"/><rect x="8" y="92" width="16" height="4" fill="#c0392b"/><rect x="24" y="92" width="16" height="4" fill="#f2c94c"/><rect x="40" y="92" width="16" height="4" fill="#2f9e5f"/><rect x="56" y="92" width="4" height="4" fill="#241206"/><rect x="76" y="92" width="4" height="4" fill="#241206"/><rect x="80" y="92" width="104" height="4" fill="#c0392b"/><rect x="184" y="92" width="8" height="4" fill="#141116"/><rect x="192" y="92" width="16" height="4" fill="#c0392b"/><rect x="208" y="92" width="12" height="4" fill="#241206"/><rect x="4" y="96" width="4" height="4" fill="#241206"/><rect x="8" y="96" width="16" height="4" fill="#c0392b"/><rect x="24" y="96" width="16" height="4" fill="#f2c94c"/><rect x="40" y="96" width="16" height="4" fill="#2f9e5f"/><rect x="56" y="96" width="4" height="4" fill="#241206"/><rect x="72" y="96" width="4" height="4" fill="#241206"/><rect x="76" y="96" width="128" height="4" fill="#c0392b"/><rect x="204" y="96" width="16" height="4" fill="#f2a71b"/><rect x="220" y="96" width="4" height="4" fill="#241206"/><rect x="4" y="100" width="4" height="4" fill="#241206"/><rect x="8" y="100" width="16" height="4" fill="#c0392b"/><rect x="24" y="100" width="16" height="4" fill="#f2c94c"/><rect x="40" y="100" width="16" height="4" fill="#2f9e5f"/><rect x="56" y="100" width="4" height="4" fill="#241206"/><rect x="68" y="100" width="4" height="4" fill="#241206"/><rect x="72" y="100" width="132" height="4" fill="#c0392b"/><rect x="204" y="100" width="16" height="4" fill="#f2a71b"/><rect x="220" y="100" width="4" height="4" fill="#241206"/><rect x="4" y="104" width="4" height="4" fill="#241206"/><rect x="8" y="104" width="16" height="4" fill="#c0392b"/><rect x="24" y="104" width="16" height="4" fill="#f2c94c"/><rect x="40" y="104" width="16" height="4" fill="#2f9e5f"/><rect x="56" y="104" width="4" height="4" fill="#241206"/><rect x="68" y="104" width="4" height="4" fill="#241206"/><rect x="72" y="104" width="136" height="4" fill="#c0392b"/><rect x="208" y="104" width="12" height="4" fill="#241206"/><rect x="4" y="108" width="4" height="4" fill="#241206"/><rect x="8" y="108" width="16" height="4" fill="#c0392b"/><rect x="24" y="108" width="16" height="4" fill="#f2c94c"/><rect x="40" y="108" width="16" height="4" fill="#2f9e5f"/><rect x="56" y="108" width="4" height="4" fill="#241206"/><rect x="64" y="108" width="4" height="4" fill="#241206"/><rect x="68" y="108" width="128" height="4" fill="#c0392b"/><rect x="196" y="108" width="8" height="4" fill="#8a2416"/><rect x="204" y="108" width="4" height="4" fill="#241206"/><rect x="4" y="112" width="4" height="4" fill="#241206"/><rect x="8" y="112" width="16" height="4" fill="#c0392b"/><rect x="24" y="112" width="16" height="4" fill="#f2c94c"/><rect x="40" y="112" width="16" height="4" fill="#2f9e5f"/><rect x="56" y="112" width="4" height="4" fill="#241206"/><rect x="64" y="112" width="4" height="4" fill="#241206"/><rect x="68" y="112" width="128" height="4" fill="#c0392b"/><rect x="196" y="112" width="8" height="4" fill="#8a2416"/><rect x="204" y="112" width="4" height="4" fill="#241206"/><rect x="4" y="116" width="4" height="4" fill="#241206"/><rect x="8" y="116" width="16" height="4" fill="#c0392b"/><rect x="24" y="116" width="16" height="4" fill="#f2c94c"/><rect x="40" y="116" width="16" height="4" fill="#2f9e5f"/><rect x="56" y="116" width="4" height="4" fill="#241206"/><rect x="64" y="116" width="4" height="4" fill="#241206"/><rect x="68" y="116" width="128" height="4" fill="#c0392b"/><rect x="196" y="116" width="8" height="4" fill="#8a2416"/><rect x="204" y="116" width="4" height="4" fill="#241206"/><rect x="4" y="120" width="4" height="4" fill="#241206"/><rect x="8" y="120" width="16" height="4" fill="#c0392b"/><rect x="24" y="120" width="16" height="4" fill="#f2c94c"/><rect x="40" y="120" width="16" height="4" fill="#2f9e5f"/><rect x="56" y="120" width="4" height="4" fill="#241206"/><rect x="64" y="120" width="4" height="4" fill="#241206"/><rect x="68" y="120" width="128" height="4" fill="#c0392b"/><rect x="196" y="120" width="8" height="4" fill="#8a2416"/><rect x="204" y="120" width="4" height="4" fill="#241206"/><rect x="4" y="124" width="4" height="4" fill="#241206"/><rect x="8" y="124" width="16" height="4" fill="#c0392b"/><rect x="24" y="124" width="16" height="4" fill="#f2c94c"/><rect x="40" y="124" width="16" height="4" fill="#2f9e5f"/><rect x="56" y="124" width="4" height="4" fill="#241206"/><rect x="64" y="124" width="4" height="4" fill="#241206"/><rect x="68" y="124" width="32" height="4" fill="#c0392b"/><rect x="100" y="124" width="40" height="4" fill="#8a2416"/><rect x="140" y="124" width="48" height="4" fill="#c0392b"/><rect x="188" y="124" width="16" height="4" fill="#241206"/><rect x="8" y="128" width="32" height="4" fill="#241206"/><rect x="40" y="128" width="16" height="4" fill="#2f9e5f"/><rect x="56" y="128" width="4" height="4" fill="#241206"/><rect x="64" y="128" width="4" height="4" fill="#241206"/><rect x="68" y="128" width="24" height="4" fill="#c0392b"/><rect x="92" y="128" width="56" height="4" fill="#8a2416"/><rect x="148" y="128" width="24" height="4" fill="#c0392b"/><rect x="172" y="128" width="16" height="4" fill="#241206"/><rect x="36" y="132" width="4" height="4" fill="#241206"/><rect x="40" y="132" width="16" height="4" fill="#2f9e5f"/><rect x="56" y="132" width="4" height="4" fill="#241206"/><rect x="68" y="132" width="4" height="4" fill="#241206"/><rect x="72" y="132" width="16" height="4" fill="#c0392b"/><rect x="88" y="132" width="64" height="4" fill="#8a2416"/><rect x="152" y="132" width="16" height="4" fill="#c0392b"/><rect x="168" y="132" width="4" height="4" fill="#241206"/><rect x="40" y="136" width="16" height="4" fill="#241206"/><rect x="68" y="136" width="4" height="4" fill="#241206"/><rect x="72" y="136" width="12" height="4" fill="#c0392b"/><rect x="84" y="136" width="72" height="4" fill="#8a2416"/><rect x="156" y="136" width="12" height="4" fill="#c0392b"/><rect x="168" y="136" width="4" height="4" fill="#241206"/><rect x="72" y="140" width="4" height="4" fill="#241206"/><rect x="76" y="140" width="8" height="4" fill="#c0392b"/><rect x="84" y="140" width="72" height="4" fill="#8a2416"/><rect x="156" y="140" width="8" height="4" fill="#c0392b"/><rect x="164" y="140" width="4" height="4" fill="#241206"/><rect x="76" y="144" width="4" height="4" fill="#241206"/><rect x="80" y="144" width="4" height="4" fill="#c0392b"/><rect x="84" y="144" width="72" height="4" fill="#8a2416"/><rect x="156" y="144" width="4" height="4" fill="#c0392b"/><rect x="160" y="144" width="4" height="4" fill="#241206"/><rect x="80" y="148" width="4" height="4" fill="#241206"/><rect x="84" y="148" width="72" height="4" fill="#8a2416"/><rect x="156" y="148" width="4" height="4" fill="#241206"/><rect x="84" y="152" width="4" height="4" fill="#241206"/><rect x="88" y="152" width="64" height="4" fill="#8a2416"/><rect x="152" y="152" width="4" height="4" fill="#241206"/><rect x="88" y="156" width="4" height="4" fill="#241206"/><rect x="92" y="156" width="56" height="4" fill="#8a2416"/><rect x="148" y="156" width="4" height="4" fill="#241206"/><rect x="92" y="160" width="8" height="4" fill="#241206"/><rect x="100" y="160" width="40" height="4" fill="#8a2416"/><rect x="140" y="160" width="8" height="4" fill="#241206"/><rect x="100" y="164" width="40" height="4" fill="#241206"/><g transform="rotate(0 136 154)">
    <rect x="131" y="154" width="10" height="24" fill="#f2c94c"/>
    
    <rect x="131" y="178" width="10" height="6" fill="#241206"/>
    <animateTransform attributeName="transform" type="rotate" calcMode="discrete" values="-18.0 136 154;-5.9 136 154;5.9 136 154;18.0 136 154;5.9 136 154;-5.9 136 154" keyTimes="0.0000;0.1667;0.3333;0.5000;0.6667;0.8333" dur="1.2000000000000002s" repeatCount="indefinite" />
  </g>
</svg>