<svg xmlns="http://www.w3.org/2000/svg" width="304" height="176" viewBox="0 0 304 176">
  <title>Dragon - 3DPixelZodiac</title>
  <g transform="translate(0,0)"><g><rect x="8" y="80" width="8" height="8" fill="#0d2e1c"/><rect x="8" y="88" width="8" height="8" fill="#0d2e1c"/><animateTransform attributeName="transform" type="translate" calcMode="discrete" values="0 -9.0;0 -3.0;0 3.0;0 9.0;0 3.0;0 -3.0" keyTimes="0.0000;0.1667;0.3333;0.5000;0.6667;0.8333" dur="1.2000000000000002s" repeatCount="indefinite" /></g></g><g transform="translate(16,0)"><g><rect x="0" y="72" width="16" height="8" fill="#0d2e1c"/><rect x="0" y="80" width="8" height="8" fill="#2f9e5f"/><rect x="8" y="80" width="8" height="8" fill="#1f7a46"/><rect x="0" y="88" width="8" height="8" fill="#2f9e5f"/><rect x="8" y="88" width="8" height="8" fill="#0d2e1c"/><rect x="0" y="96" width="8" height="8" fill="#0d2e1c"/><animateTransform attributeName="transform" type="translate" calcMode="discrete" values="0 -3.0;0 3.0;0 9.0;0 3.0;0 -3.0;0 -9.0" keyTimes="0.0000;0.1667;0.3333;0.5000;0.6667;0.8333" dur="1.2000000000000002s" repeatCount="indefinite" /></g></g><g transform="translate(32,0)"><g><rect x="8" y="56" width="8" height="8" fill="#0d2e1c"/><rect x="0" y="64" width="8" height="8" fill="#0d2e1c"/><rect x="8" y="64" width="8" height="8" fill="#2f9e5f"/><rect x="0" y="72" width="8" height="8" fill="#2f9e5f"/><rect x="8" y="72" width="8" height="8" fill="#1f7a46"/><rect x="0" y="80" width="8" height="8" fill="#1f7a46"/><rect x="8" y="80" width="8" height="8" fill="#2f9e5f"/><rect x="0" y="88" width="16" height="8" fill="#0d2e1c"/><animateTransform attributeName="transform" type="translate" calcMode="discrete" values="0 3.0;0 9.0;0 3.0;0 -3.0;0 -9.0;0 -3.0" keyTimes="0.0000;0.1667;0.3333;0.5000;0.6667;0.8333" dur="1.2000000000000002s" repeatCount="indefinite" /></g></g><g transform="translate(48,0)"><g><rect x="0" y="64" width="16" height="8" fill="#0d2e1c"/><rect x="0" y="72" width="8" height="8" fill="#1f7a46"/><rect x="8" y="72" width="8" height="8" fill="#2f9e5f"/><rect x="0" y="80" width="8" height="8" fill="#2f9e5f"/><rect x="8" y="80" width="8" height="8" fill="#1f7a46"/><rect x="0" y="88" width="16" height="8" fill="#2f9e5f"/><rect x="0" y="96" width="16" height="8" fill="#0d2e1c"/><animateTransform attributeName="transform" type="translate" calcMode="discrete" values="0 9.0;0 3.0;0 -3.0;0 -9.0;0 -3.0;0 3.0" keyTimes="0.0000;0.1667;0.3333;0.5000;0.6667;0.8333" dur="1.2000000000000002s" repeatCount="indefinite" /></g></g><g transform="translate(64,0)"><g><rect x="0" y="72" width="16" height="8" fill="#0d2e1c"/><rect x="0" y="80" width="8" height="8" fill="#1f7a46"/><rect x="8" y="80" width="8" height="8" fill="#2f9e5f"/><rect x="0" y="88" width="16" height="8" fill="#2f9e5f"/><rect x="0" y="96" width="16" height="8" fill="#2f9e5f"/><rect x="0" y="104" width="8" height="8" fill="#0d2e1c"/><rect x="8" y="104" width="8" height="8" fill="#2f9e5f"/><rect x="8" y="112" width="8" height="8" fill="#0d2e1c"/><animateTransform attributeName="transform" type="translate" calcMode="discrete" values="0 3.0;0 -3.0;0 -9.0;0 -3.0;0 3.0;0 9.0" keyTimes="0.0000;0.1667;0.3333;0.5000;0.6667;0.8333" dur="1.2000000000000002s" repeatCount="indefinite" /></g></g><g transform="translate(80,0)"><g><rect x="8" y="64" width="8" height="8" fill="#0d2e1c"/><rect x="0" y="72" width="8" height="8" fill="#0d2e1c"/><rect x="8" y="72" width="8" height="8" fill="#2f9e5f"/><rect x="0" y="80" width="16" height="8" fill="#2f9e5f"/><rect x="0" y="88" width="16" height="8" fill="#1f7a46"/><rect x="0" y="96" width="16" height="8" fill="#2f9e5f"/><rect x="0" y="104" width="8" height="8" fill="#2f9e5f"/><rect x="8" y="104" width="8" height="8" fill="#0d2e1c"/><rect x="0" y="112" width="8" height="8" fill="#0d2e1c"/><animateTransform attributeName="transform" type="translate" calcMode="discrete" values="0 -3.0;0 -9.0;0 -3.0;0 3.0;0 9.0;0 3.0" keyTimes="0.0000;0.1667;0.3333;0.5000;0.6667;0.8333" dur="1.2000000000000002s" repeatCount="indefinite" /></g></g><g transform="translate(96,0)"><g><rect x="0" y="56" width="16" height="8" fill="#0d2e1c"/><rect x="0" y="64" width="16" height="8" fill="#2f9e5f"/><rect x="0" y="72" width="16" height="8" fill="#2f9e5f"/><rect x="0" y="80" width="8" height="8" fill="#1f7a46"/><rect x="8" y="80" width="8" height="8" fill="#2f9e5f"/><rect x="0" y="88" width="16" height="8" fill="#2f9e5f"/><rect x="0" y="96" width="8" height="8" fill="#2f9e5f"/><rect x="8" y="96" width="8" height="8" fill="#0d2e1c"/><rect x="0" y="104" width="8" height="8" fill="#0d2e1c"/><animateTransform attributeName="transform" type="translate" calcMode="discrete" values="0 -9.0;0 -3.0;0 3.0;0 9.0;0 3.0;0 -3.0" keyTimes="0.0000;0.1667;0.3333;0.5000;0.6667;0.8333" dur="1.2000000000000002s" repeatCount="indefinite" /></g></g><g transform="translate(112,0)"><g><rect x="0" y="48" width="16" height="8" fill="#0d2e1c"/><rect x="0" y="56" width="16" height="8" fill="#2f9e5f"/><rect x="0" y="64" width="8" height="8" fill="#2f9e5f"/><rect x="8" y="64" width="8" height="8" fill="#1f7a46"/><rect x="0" y="72" width="8" height="8" fill="#1f7a46"/><rect x="8" y="72" width="8" height="8" fill="#2f9e5f"/><rect x="0" y="80" width="16" height="8" fill="#2f9e5f"/><rect x="0" y="88" width="16" height="8" fill="#2f9e5f"/><rect x="0" y="96" width="16" height="8" fill="#0d2e1c"/><animateTransform attributeName="transform" type="translate" calcMode="discrete" values="0 -3.0;0 3.0;0 9.0;0 3.0;0 -3.0;0 -9.0" keyTimes="0.0000;0.1667;0.3333;0.5000;0.6667;0.8333" dur="1.2000000000000002s" repeatCount="indefinite" /></g></g><g transform="translate(128,0)"><g><rect x="0" y="48" width="8" height="8" fill="#0d2e1c"/><rect x="0" y="56" width="8" height="8" fill="#2f9e5f"/><rect x="8" y="56" width="8" height="8" fill="#0d2e1c"/><rect x="0" y="64" width="16" height="8" fill="#2f9e5f"/><rect x="0" y="72" width="8" height="8" fill="#1f7a46"/><rect x="8" y="72" width="8" height="8" fill="#2f9e5f"/><rect x="0" y="80" width="16" height="8" fill="#2f9e5f"/><rect x="0" y="88" width="16" height="8" fill="#2f9e5f"/><rect x="0" y="96" width="16" height="8" fill="#2f9e5f"/><rect x="0" y="104" width="8" height="8" fill="#0d2e1c"/><rect x="8" y="104" width="8" height="8" fill="#2f9e5f"/><rect x="8" y="112" width="8" height="8" fill="#0d2e1c"/><animateTransform attributeName="transform" type="translate" calcMode="discrete" values="0 3.0;0 9.0;0 3.0;0 -3.0;0 -9.0;0 -3.0" keyTimes="0.0000;0.1667;0.3333;0.5000;0.6667;0.8333" dur="1.2000000000000002s" repeatCount="indefinite" /></g></g><g transform="translate(144,0)"><g><rect x="0" y="64" width="16" height="8" fill="#0d2e1c"/><rect x="0" y="72" width="16" height="8" fill="#2f9e5f"/><rect x="0" y="80" width="8" height="8" fill="#1f7a46"/><rect x="8" y="80" width="8" height="8" fill="#2f9e5f"/><rect x="0" y="88" width="8" height="8" fill="#2f9e5f"/><rect x="8" y="88" width="8" height="8" fill="#1f7a46"/><rect x="0" y="96" width="16" height="8" fill="#2f9e5f"/><rect x="0" y="104" width="16" height="8" fill="#2f9e5f"/><rect x="0" y="112" width="16" height="8" fill="#2f9e5f"/><rect x="0" y="120" width="16" height="8" fill="#0d2e1c"/><animateTransform attributeName="transform" type="translate" calcMode="discrete" values="0 9.0;0 3.0;0 -3.0;0 -9.0;0 -3.0;0 3.0" keyTimes="0.0000;0.1667;0.3333;0.5000;0.6667;0.8333" dur="1.2000000000000002s" repeatCount="indefinite" /></g></g><g transform="translate(160,0)"><g><rect x="8" y="56" width="8" height="8" fill="#0d2e1c"/><rect x="0" y="64" width="8" height="8" fill="#0d2e1c"/><rect x="8" y="64" width="8" height="8" fill="#2f9e5f"/><rect x="0" y="72" width="16" height="8" fill="#2f9e5f"/><rect x="0" y="80" width="16" height="8" fill="#2f9e5f"/><rect x="0" y="88" width="8" height="8" fill="#1f7a46"/><rect x="8" y="88" width="8" height="8" fill="#2f9e5f"/><rect x="0" y="96" width="16" height="8" fill="#2f9e5f"/><rect x="0" y="104" width="16" height="8" fill="#2f9e5f"/><rect x="0" y="112" width="16" height="8" fill="#2f9e5f"/><rect x="0" y="120" width="16" height="8" fill="#0d2e1c"/><animateTransform attributeName="transform" type="translate" calcMode="discrete" values="0 3.0;0 -3.0;0 -9.0;0 -3.0;0 3.0;0 9.0" keyTimes="0.0000;0.1667;0.3333;0.5000;0.6667;0.8333" dur="1.2000000000000002s" repeatCount="indefinite" /></g></g><g transform="translate(176,0)"><g><rect x="8" y="40" width="8" height="8" fill="#0d2e1c"/><rect x="0" y="48" width="8" height="8" fill="#0d2e1c"/><rect x="8" y="48" width="8" height="8" fill="#2f9e5f"/><rect x="0" y="56" width="16" height="8" fill="#2f9e5f"/><rect x="0" y="64" width="16" height="8" fill="#2f9e5f"/><rect x="0" y="72" width="8" height="8" fill="#2f9e5f"/><rect x="8" y="72" width="8" height="8" fill="#1f7a46"/><rect x="0" y="80" width="8" height="8" fill="#1f7a46"/><rect x="8" y="80" width="8" height="8" fill="#2f9e5f"/><rect x="0" y="88" width="16" height="8" fill="#2f9e5f"/><rect x="0" y="96" width="16" height="8" fill="#2f9e5f"/><rect x="0" y="104" width="8" height="8" fill="#2f9e5f"/><rect x="8" y="104" width="8" height="8" fill="#0d2e1c"/><rect x="0" y="112" width="8" height="8" fill="#0d2e1c"/><animateTransform attributeName="transform" type="translate" calcMode="discrete" values="0 -3.0;0 -9.0;0 -3.0;0 3.0;0 9.0;0 3.0" keyTimes="0.0000;0.1667;0.3333;0.5000;0.6667;0.8333" dur="1.2000000000000002s" repeatCount="indefinite" /></g></g><g transform="translate(192,0)"><g><rect x="0" y="40" width="16" height="8" fill="#0d2e1c"/><rect x="0" y="48" width="16" height="8" fill="#2f9e5f"/><rect x="0" y="56" width="16" height="8" fill="#2f9e5f"/><rect x="0" y="64" width="8" height="8" fill="#2f9e5f"/><rect x="8" y="64" width="8" height="8" fill="#1f7a46"/><rect x="0" y="72" width="16" height="8" fill="#2f9e5f"/><rect x="0" y="80" width="16" height="8" fill="#2f9e5f"/><rect x="0" y="88" width="16" height="8" fill="#2f9e5f"/><rect x="0" y="96" width="16" height="8" fill="#2f9e5f"/><rect x="0" y="104" width="16" height="8" fill="#0d2e1c"/><animateTransform attributeName="transform" type="translate" calcMode="discrete" values="0 -9.0;0 -3.0;0 3.0;0 9.0;0 3.0;0 -3.0" keyTimes="0.0000;0.1667;0.3333;0.5000;0.6667;0.8333" dur="1.2000000000000002s" repeatCount="indefinite" /></g></g><g transform="translate(208,0)"><g><rect x="8" y="16" width="8" height="8" fill="#0d2e1c"/><rect x="0" y="24" width="8" height="8" fill="#0d2e1c"/><rect x="8" y="24" width="8" height="8" fill="#e8c94b"/><rect x="0" y="32" width="8" height="8" fill="#0d2e1c"/><rect x="8" y="32" width="8" height="8" fill="#e8c94b"/><rect x="0" y="40" width="16" height="8" fill="#0d2e1c"/><rect x="0" y="48" width="8" height="8" fill="#2f9e5f"/><rect x="8" y="48" width="8" height="8" fill="#0d2e1c"/><rect x="0" y="56" width="16" height="8" fill="#2f9e5f"/><rect x="0" y="64" width="16" height="8" fill="#1f7a46"/><rect x="0" y="72" width="16" height="8" fill="#2f9e5f"/><rect x="0" y="80" width="16" height="8" fill="#2f9e5f"/><rect x="0" y="88" width="16" height="8" fill="#2f9e5f"/><rect x="0" y="96" width="16" height="8" fill="#2f9e5f"/><rect x="0" y="104" width="8" height="8" fill="#0d2e1c"/><rect x="8" y="104" width="8" height="8" fill="#2f9e5f"/><rect x="8" y="112" width="8" height="8" fill="#0d2e1c"/><animateTransform attributeName="transform" type="translate" calcMode="discrete" values="0 -3.0;0 3.0;0 9.0;0 3.0;0 -3.0;0 -9.0" keyTimes="0.0000;0.1667;0.3333;0.5000;0.6667;0.8333" dur="1.2000000000000002s" repeatCount="indefinite" /></g></g><g transform="translate(224,0)"><g><rect x="0" y="16" width="8" height="8" fill="#0d2e1c"/><rect x="0" y="24" width="8" height="8" fill="#e8c94b"/><rect x="8" y="24" width="8" height="8" fill="#0d2e1c"/><rect x="0" y="32" width="16" height="8" fill="#e8c94b"/><rect x="0" y="40" width="16" height="8" fill="#e8c94b"/><rect x="0" y="48" width="16" height="8" fill="#e8c94b"/><rect x="0" y="56" width="16" height="8" fill="#e8c94b"/><rect x="0" y="64" width="16" height="8" fill="#2f9e5f"/><rect x="0" y="72" width="8" height="8" fill="#2f9e5f"/><rect x="8" y="72" width="8" height="8" fill="#1f7a46"/><rect x="0" y="80" width="16" height="8" fill="#2f9e5f"/><rect x="0" y="88" width="16" height="8" fill="#2f9e5f"/><rect x="0" y="96" width="16" height="8" fill="#2f9e5f"/><rect x="0" y="104" width="16" height="8" fill="#2f9e5f"/><rect x="0" y="112" width="16" height="8" fill="#0d2e1c"/><animateTransform attributeName="transform" type="translate" calcMode="discrete" values="0 3.0;0 9.0;0 3.0;0 -3.0;0 -9.0;0 -3.0" keyTimes="0.0000;0.1667;0.3333;0.5000;0.6667;0.8333" dur="1.2000000000000002s" repeatCount="indefinite" /></g></g><g transform="translate(240,0)"><g><rect x="8" y="24" width="8" height="8" fill="#0d2e1c"/><rect x="0" y="32" width="8" height="8" fill="#0d2e1c"/><rect x="8" y="32" width="8" height="8" fill="#e8c94b"/><rect x="0" y="40" width="8" height="8" fill="#0d2e1c"/><rect x="8" y="40" width="8" height="8" fill="#e8c94b"/><rect x="0" y="48" width="8" height="8" fill="#0d2e1c"/><rect x="8" y="48" width="8" height="8" fill="#e8c94b"/><rect x="0" y="56" width="8" height="8" fill="#2f9e5f"/><rect x="8" y="56" width="8" height="8" fill="#e8c94b"/><rect x="0" y="64" width="16" height="8" fill="#2f9e5f"/><rect x="0" y="72" width="8" height="8" fill="#1f7a46"/><rect x="8" y="72" width="8" height="8" fill="#2f9e5f"/><rect x="0" y="80" width="8" height="8" fill="#141116"/><rect x="8" y="80" width="8" height="8" fill="#2f9e5f"/><rect x="0" y="88" width="16" height="8" fill="#2f9e5f"/><rect x="0" y="96" width="16" height="8" fill="#2f9e5f"/><rect x="0" y="104" width="16" height="8" fill="#2f9e5f"/><rect x="0" y="112" width="16" height="8" fill="#0d2e1c"/><animateTransform attributeName="transform" type="translate" calcMode="discrete" values="0 9.0;0 3.0;0 -3.0;0 -9.0;0 -3.0;0 3.0" keyTimes="0.0000;0.1667;0.3333;0.5000;0.6667;0.8333" dur="1.2000000000000002s" repeatCount="indefinite" /></g></g><g transform="translate(256,0)"><g><rect x="0" y="16" width="16" height="8" fill="#0d2e1c"/><rect x="0" y="24" width="16" height="8" fill="#e8c94b"/><rect x="0" y="32" width="16" height="8" fill="#e8c94b"/><rect x="0" y="40" width="8" height="8" fill="#e8c94b"/><rect x="8" y="40" width="8" height="8" fill="#0d2e1c"/><rect x="0" y="48" width="8" height="8" fill="#e8c94b"/><rect x="8" y="48" width="8" height="8" fill="#0d2e1c"/><rect x="0" y="56" width="8" height="8" fill="#e8c94b"/><rect x="8" y="56" width="8" height="8" fill="#0d2e1c"/><rect x="0" y="64" width="8" height="8" fill="#0d2e1c"/><rect x="0" y="72" width="8" height="8" fill="#2f9e5f"/><rect x="8" y="72" width="8" height="8" fill="#0d2e1c"/><rect x="0" y="80" width="8" height="8" fill="#2f9e5f"/><rect x="8" y="80" width="8" height="8" fill="#0d2e1c"/><rect x="0" y="88" width="16" height="8" fill="#2f9e5f"/><rect x="0" y="96" width="16" height="8" fill="#2f9e5f"/><rect x="0" y="104" width="8" height="8" fill="#0d2e1c"/><rect x="8" y="104" width="8" height="8" fill="#e8c94b"/><rect x="8" y="112" width="8" height="8" fill="#0d2e1c"/><animateTransform attributeName="transform" type="translate" calcMode="discrete" values="0 3.0;0 -3.0;0 -9.0;0 -3.0;0 3.0;0 9.0" keyTimes="0.0000;0.1667;0.3333;0.5000;0.6667;0.8333" dur="1.2000000000000002s" repeatCount="indefinite" /></g></g><g transform="translate(272,0)"><g><rect x="0" y="24" width="8" height="8" fill="#0d2e1c"/><rect x="0" y="32" width="8" height="8" fill="#0d2e1c"/><rect x="0" y="80" width="8" height="8" fill="#0d2e1c"/><rect x="0" y="88" width="8" height="8" fill="#2f9e5f"/><rect x="8" y="88" width="8" height="8" fill="#0d2e1c"/><rect x="0" y="96" width="8" height="8" fill="#2f9e5f"/><rect x="8" y="96" width="8" height="8" fill="#0d2e1c"/><rect x="0" y="104" width="16" height="8" fill="#e8c94b"/><rect x="0" y="112" width="16" height="8" fill="#e8c94b"/><rect x="0" y="120" width="16" height="8" fill="#0d2e1c"/><animateTransform attributeName="transform" type="translate" calcMode="discrete" values="0 -3.0;0 -9.0;0 -3.0;0 3.0;0 9.0;0 3.0" keyTimes="0.0000;0.1667;0.3333;0.5000;0.6667;0.8333" dur="1.2000000000000002s" repeatCount="indefinite" /></g></g><g transform="translate(288,0)"><g><rect x="0" y="104" width="16" height="8" fill="#0d2e1c"/><rect x="0" y="112" width="16" height="8" fill="#e8c94b"/><rect x="0" y="120" width="16" height="8" fill="#0d2e1c"/><animateTransform attributeName="transform" type="translate" calcMode="discrete" values="0 -9.0;0 -3.0;0 3.0;0 9.0;0 3.0;0 -3.0" keyTimes="0.0000;0.1667;0.3333;0.5000;0.6667;0.8333" dur="1.2000000000000002s" repeatCount="indefinite" /></g></g>
</svg>