<svg xmlns="http://www.w3.org/2000/svg" width="256" height="232" viewBox="0 0 256 232">
  <title>Rooster - 3DPixelZodiac</title>
  <g transform="rotate(0 72 160)">
    <rect x="67" y="160" width="10" height="49" fill="#f2c94c"/>
    <rect x="67" y="209" width="10" height="7" fill="#241206"/>
    <animateTransform attributeName="transform" type="rotate" calcMode="discrete" values="18.0 72 160;5.9 72 160;-5.9 72 160;-18.0 72 160;-5.9 72 160;5.9 72 160" keyTimes="0.0000;0.1667;0.3333;0.5000;0.6667;0.8333" dur="1.2000000000000002s" repeatCount="indefinite" />
  </g><g transform="rotate(0 136 88)">
    <rect x="135" y="87" width="58" height="50" fill="#241206"/>
    <rect x="136" y="88" width="56" height="48" fill="#c0392b"/>
    <animateTransform attributeName="transform" type="rotate" calcMode="discrete" values="-22.0 136 88;-7.3 136 88;7.3 136 88;22.0 136 88;7.3 136 88;-7.3 136 88" keyTimes="0.0000;0.1667;0.3333;0.5000;0.6667;0.8333" dur="1.2000000000000002s" repeatCount="indefinite" />
  </g><rect x="168" y="32" width="16" height="8" fill="#241206"/><rect x="24" y="40" width="24" height="8" fill="#241206"/><rect x="152" y="40" width="16" height="8" fill="#241206"/><rect x="168" y="40" width="16" height="8" fill="#ff5b45"/><rect x="184" y="40" width="16" height="8" fill="#241206"/><rect x="16" y="48" width="8" height="8" fill="#241206"/><rect x="24" y="48" width="24" height="8" fill="#f2c94c"/><rect x="48" y="48" width="16" height="8" fill="#241206"/><rect x="144" y="48" width="8" height="8" fill="#241206"/><rect x="152" y="48" width="48" height="8" fill="#ff5b45"/><rect x="200" y="48" width="8" height="8" fill="#241206"/><rect x="8" y="56" width="16" height="8" fill="#241206"/><rect x="24" y="56" width="24" height="8" fill="#f2c94c"/><rect x="48" y="56" width="16" height="8" fill="#2f9e5f"/><rect x="64" y="56" width="8" height="8" fill="#241206"/><rect x="144" y="56" width="8" height="8" fill="#241206"/><rect x="152" y="56" width="48" height="8" fill="#ff5b45"/><rect x="200" y="56" width="8" height="8" fill="#241206"/><rect x="0" y="64" width="8" height="8" fill="#241206"/><rect x="8" y="64" width="24" height="8" fill="#c0392b"/><rect x="32" y="64" width="16" height="8" fill="#f2c94c"/><rect x="48" y="64" width="16" height="8" fill="#2f9e5f"/><rect x="64" y="64" width="8" height="8" fill="#241206"/><rect x="144" y="64" width="8" height="8" fill="#241206"/><rect x="152" y="64" width="48" height="8" fill="#ff5b45"/><rect x="200" y="64" width="8" height="8" fill="#241206"/><rect x="0" y="72" width="8" height="8" fill="#241206"/><rect x="8" y="72" width="24" height="8" fill="#c0392b"/><rect x="32" y="72" width="16" height="8" fill="#f2c94c"/><rect x="48" y="72" width="16" height="8" fill="#2f9e5f"/><rect x="64" y="72" width="8" height="8" fill="#241206"/><rect x="96" y="72" width="56" height="8" fill="#241206"/><rect x="152" y="72" width="48" height="8" fill="#c0392b"/><rect x="200" y="72" width="8" height="8" fill="#241206"/><rect x="0" y="80" width="8" height="8" fill="#241206"/><rect x="8" y="80" width="24" height="8" fill="#c0392b"/><rect x="32" y="80" width="16" height="8" fill="#f2c94c"/><rect x="48" y="80" width="16" height="8" fill="#2f9e5f"/><rect x="64" y="80" width="8" height="8" fill="#241206"/><rect x="80" y="80" width="16" height="8" fill="#241206"/><rect x="96" y="80" width="112" height="8" fill="#c0392b"/><rect x="208" y="80" width="8" height="8" fill="#241206"/><rect x="0" y="88" width="8" height="8" fill="#241206"/><rect x="8" y="88" width="24" height="8" fill="#c0392b"/><rect x="32" y="88" width="16" height="8" fill="#f2c94c"/><rect x="48" y="88" width="16" height="8" fill="#2f9e5f"/><rect x="64" y="88" width="16" height="8" fill="#241206"/><rect x="80" y="88" width="104" height="8" fill="#c0392b"/><rect x="184" y="88" width="8" height="8" fill="#141116"/><rect x="192" y="88" width="16" height="8" fill="#c0392b"/><rect x="208" y="88" width="24" height="8" fill="#241206"/><rect x="0" y="96" width="8" height="8" fill="#241206"/><rect x="8" y="96" width="24" height="8" fill="#c0392b"/><rect x="32" y="96" width="16" height="8" fill="#f2c94c"/><rect x="48" y="96" width="16" height="8" fill="#2f9e5f"/><rect x="64" y="96" width="8" height="8" fill="#241206"/><rect x="72" y="96" width="136" height="8" fill="#c0392b"/><rect x="208" y="96" width="24" height="8" fill="#f2a71b"/><rect x="232" y="96" width="8" height="8" fill="#241206"/><rect x="0" y="104" width="8" height="8" fill="#241206"/><rect x="8" y="104" width="24" height="8" fill="#c0392b"/><rect x="32" y="104" width="16" height="8" fill="#f2c94c"/><rect x="48" y="104" width="16" height="8" fill="#2f9e5f"/><rect x="64" y="104" width="8" height="8" fill="#241206"/><rect x="72" y="104" width="136" height="8" fill="#c0392b"/><rect x="208" y="104" width="24" height="8" fill="#f2a71b"/><rect x="232" y="104" width="8" height="8" fill="#241206"/><rect x="0" y="112" width="8" height="8" fill="#241206"/><rect x="8" y="112" width="24" height="8" fill="#c0392b"/><rect x="32" y="112" width="16" height="8" fill="#f2c94c"/><rect x="48" y="112" width="16" height="8" fill="#2f9e5f"/><rect x="64" y="112" width="8" height="8" fill="#241206"/><rect x="72" y="112" width="128" height="8" fill="#c0392b"/><rect x="200" y="112" width="16" height="8" fill="#8a2416"/><rect x="216" y="112" width="16" height="8" fill="#241206"/><rect x="0" y="120" width="8" height="8" fill="#241206"/><rect x="8" y="120" width="24" height="8" fill="#c0392b"/><rect x="32" y="120" width="16" height="8" fill="#f2c94c"/><rect x="48" y="120" width="16" height="8" fill="#2f9e5f"/><rect x="64" y="120" width="8" height="8" fill="#241206"/><rect x="72" y="120" width="40" height="8" fill="#c0392b"/><rect x="112" y="120" width="16" height="8" fill="#8a2416"/><rect x="128" y="120" width="64" height="8" fill="#c0392b"/><rect x="192" y="120" width="8" height="8" fill="#241206"/><rect x="200" y="120" width="16" height="8" fill="#8a2416"/><rect x="216" y="120" width="8" height="8" fill="#241206"/><rect x="8" y="128" width="32" height="8" fill="#241206"/><rect x="40" y="128" width="24" height="8" fill="#2f9e5f"/><rect x="64" y="128" width="8" height="8" fill="#241206"/><rect x="72" y="128" width="16" height="8" fill="#c0392b"/><rect x="88" y="128" width="64" height="8" fill="#8a2416"/><rect x="152" y="128" width="16" height="8" fill="#c0392b"/><rect x="168" y="128" width="24" height="8" fill="#241206"/><rect x="200" y="128" width="16" height="8" fill="#241206"/><rect x="40" y="136" width="32" height="8" fill="#241206"/><rect x="72" y="136" width="16" height="8" fill="#c0392b"/><rect x="88" y="136" width="64" height="8" fill="#8a2416"/><rect x="152" y="136" width="16" height="8" fill="#c0392b"/><rect x="168" y="136" width="8" height="8" fill="#241206"/><rect x="72" y="144" width="8" height="8" fill="#241206"/><rect x="80" y="144" width="8" height="8" fill="#c0392b"/><rect x="88" y="144" width="64" height="8" fill="#8a2416"/><rect x="152" y="144" width="8" height="8" fill="#c0392b"/><rect x="160" y="144" width="8" height="8" fill="#241206"/><rect x="80" y="152" width="8" height="8" fill="#241206"/><rect x="88" y="152" width="64" height="8" fill="#8a2416"/><rect x="152" y="152" width="8" height="8" fill="#241206"/><rect x="88" y="160" width="24" height="8" fill="#241206"/><rect x="112" y="160" width="16" height="8" fill="#8a2416"/><rect x="128" y="160" width="24" height="8" fill="#241206"/><rect x="112" y="168" width="16" height="8" fill="#241206"/><g transform="rotate(0 160 160)">
    <rect x="155" y="160" width="10" height="49" fill="#f2c94c"/>
    <rect x="155" y="209" width="10" height="7" fill="#241206"/>
    <animateTransform attributeName="transform" type="rotate" calcMode="discrete" values="-18.0 160 160;-5.9 160 160;5.9 160 160;18.0 160 160;5.9 160 160;-5.9 160 160" keyTimes="0.0000;0.1667;0.3333;0.5000;0.6667;0.8333" dur="1.2000000000000002s" repeatCount="indefinite" />
  </g>
</svg>